<?xml version="1.0" encoding="utf-8"?>
<!-- Generator: Adobe Illustrator 21.0.0, SVG Export Plug-In . SVG Version: 6.00 Build 0)  -->
<svg version="1.1" id="Слой_1" xmlns="http://www.w3.org/2000/svg" xmlns:xlink="http://www.w3.org/1999/xlink" x="0px" y="0px"
	 viewBox="0 0 5442.5 3061.4" style="enable-background:new 0 0 5442.5 3061.4;" xml:space="preserve">
<style type="text/css">
	.st0{fill:#353635;}
	.st1{fill:#7C141B;}
	.st2{fill:#AD2028;}
	.st3{fill:#DB2C34;}
</style>
<g>
	<g>
		<path class="st0" d="M2773,902.7c21,48.3,241,573.4,326.4,766.7c50.4,113.2,91.1,133.5,120.5,141.1c21,6.4,42,7.6,56,7.6
			c8.4,0,14,1.3,14,7.6c0,7.6-12.6,10.2-28,10.2c-21,0-123.3,0-219.9-2.5c-26.6-1.3-42-1.3-42-8.9c0-5.1,5.6-8.9,9.8-8.9
			c2.8,0,11.2-6.4,11.2-17.8c0-3.8,0-11.4-2.8-16.5l-130.3-312.8c-2.8-5.1-5.6-7.6-12.6-7.6h-301.2c-7,0-11.2,3.8-14,10.2l-84.1,225
			c-12.6,31.8-19.6,62.3-19.6,85.2c0,25.4,29.4,36.9,53.2,36.9h14c9.8,0,14,2.5,14,7.6c0,7.6-8.4,10.2-21,10.2
			c-33.6,0-93.9-3.8-109.3-3.8c-15.4,0-92.5,3.8-158.3,3.8c-18.2,0-26.6-2.5-26.6-10.2c0-5.1,5.6-7.6,12.6-7.6
			c9.8,0,29.4-1.3,40.6-2.5c64.4-7.6,92.5-55.9,117.7-119.5l318-789.6c16.8-42,22.4-49.6,30.8-49.6S2756.2,863.3,2773,902.7z
			 M2857.1,1415.1c7,0,7-3.8,5.6-8.9l-133.1-343.3c-4.2-10.2-7-14-11.2-14c-2.8,0-7,5.1-9.8,14l-123.3,343.3c-2.8,6.4,0,8.9,4.2,8.9
			H2857.1z"/>
		<path class="st0" d="M3400.6,1819.4c-19.6-8.9-21-14-21-48.3c0-63.6,5.6-114.4,7-134.8c1.4-14,4.2-20.3,11.2-20.3
			c8.4,0,9.8,3.8,9.8,14c0,11.4,0,29.2,4.2,47c21,94.1,113.5,129.7,207.3,129.7c134.5,0,200.3-87.7,200.3-169.1
			c0-87.7-40.6-138.6-161.1-228.9l-63-47c-148.5-110.6-182.1-189.4-182.1-275.9c0-136,112.1-228.9,290-228.9
			c54.6,0,95.3,5.1,130.3,12.7c26.6,5.1,37.8,6.4,49,6.4c11.2,0,14,2.5,14,8.9c0,6.4-5.6,48.3-5.6,134.8c0,20.3-2.8,29.2-9.8,29.2
			c-8.4,0-9.8-6.4-11.2-16.5c-1.4-15.3-9.8-49.6-18.2-63.6c-8.4-14-46.2-67.4-175.1-67.4c-96.7,0-172.3,54.7-172.3,147.5
			c0,72.5,39.2,115.7,170.9,213.6l39.2,28c165.3,118.2,204.5,197.1,204.5,298.8c0,52.1-22.4,148.8-119.1,211.1
			c-60.2,38.1-135.9,53.4-211.5,53.4C3522.5,1853.7,3458,1844.8,3400.6,1819.4z"/>
		<path class="st0" d="M4587.2,1467.2c0,122.1,0,222.5,7,275.9c4.2,36.9,12.6,64.8,54.6,69.9c19.6,2.5,50.4,5.1,63,5.1
			c8.4,0,11.2,3.8,11.2,7.6c0,6.4-7,10.2-22.4,10.2c-77.1,0-165.3-3.8-172.3-3.8c-7,0-95.3,3.8-137.3,3.8
			c-15.4,0-22.4-2.5-22.4-10.2c0-3.8,2.8-7.6,11.2-7.6c12.6,0,29.4-2.5,42-5.1c28-5.1,35-33.1,40.6-69.9c7-53.4,7-153.8,7-275.9
			V929.4l-207.3,2.5c-86.9,1.3-120.5,10.2-142.9,40.7c-15.4,21.6-19.6,30.5-23.8,39.4c-4.2,10.2-8.4,12.7-14,12.7
			c-4.2,0-7-3.8-7-11.4c0-12.7,28-122.1,30.8-132.2c2.8-7.6,8.4-24.2,14-24.2c9.8,0,23.8,12.7,61.6,15.3
			c40.6,3.8,93.9,6.4,110.7,6.4h525.3c44.8,0,77-3.8,99.5-6.4c21-3.8,33.6-6.4,39.2-6.4c7,0,7,7.6,7,15.3
			c0,38.1-4.2,125.9-4.2,139.9c0,11.4-4.2,16.5-9.8,16.5c-7,0-9.8-3.8-11.2-21.6l-1.4-14c-5.6-38.1-37.8-67.4-172.3-69.9l-176.5-2.5
			V1467.2z"/>
		<path class="st0" d="M5374.5,1287.9c0,8.9,1.4,12.7,8.4,12.7c18.2,0,190.5,0,222.7-2.5c33.6-2.5,53.2-5.1,65.8-17.8
			c9.8-10.2,15.4-16.5,21-16.5c4.2,0,7,2.5,7,10.2c0,5.1-16.8,90.3-16.8,152.6c0,14-1.4,24.2-9.8,24.2c-7,0-9.8-5.1-9.8-11.4
			c0-12.7,0-25.4-5.6-42c-5.6-17.8-18.2-39.4-72.8-44.5c-37.8-3.8-176.5-6.4-200.3-6.4c-7,0-9.8,3.8-9.8,8.9v329.3
			c0,83.9,25.2,104.3,162.5,104.3c36.4,0,98.1,0,134.5-14c36.4-14,53.2-39.4,63-91.5c2.8-14,5.6-19.1,12.6-19.1
			c8.4,0,8.4,10.2,8.4,19.1c0,10.2-11.2,96.6-18.2,123.3c-9.8,33.1-21,33.1-75.6,33.1c-211.5,0-305.4-7.6-346-7.6
			c-36.4,0-106.5,3.8-137.3,3.8c-15.4,0-22.4-2.5-22.4-10.2c0-3.8,2.8-7.6,11.2-7.6c12.6,0,29.4-1.3,42-5.1
			c22.4-6.4,29.4-17.8,37.8-54.7c7-33.1,9.8-136,9.8-291.2v-223.8c0-213.6-1.4-267-4.2-288.6c-4.2-30.5-12.6-49.6-58.8-58.5
			c-11.2-2.5-35-3.8-47.6-3.8c-5.6,0-11.2-2.5-11.2-7.6c0-7.6,7-10.2,22.4-10.2c63,0,151.3,3.8,158.3,3.8
			c151.3,0,294.2-1.3,316.6-2.5c22.4-1.3,56-3.8,61.6-5.1c8.4-2.5,14-7.6,19.6-7.6s8.4,7.6,8.4,14c0,8.9-7,24.2-11.2,59.8
			c-1.4,12.7-4.2,68.7-7,83.9c-1.4,6.4-4.2,12.7-11.2,12.7c-7,0-9.8-5.1-9.8-14c0-10.2-4.2-31.8-12.6-48.3c-8.4-16.5-42-42-124.7-42
			c-8.4,0-134.5-3.8-162.5-3.8c-5.6,0-8.4,2.5-8.4,11.4V1287.9z"/>
		<path class="st0" d="M6111.3,1243.4c0-198.3,0-233.9-2.8-274.6c-2.8-43.2-14-63.6-60.2-72.5c-11.2-2.5-35-3.8-47.6-3.8
			c-5.6,0-11.2-2.5-11.2-7.6c0-7.6,7-10.2,22.4-10.2c63,0,151.3,3.8,158.3,3.8c15.4,0,121.9-3.8,165.3-3.8
			c88.3,0,182.1,7.6,256.4,55.9c35,22.9,96.7,85.2,96.7,172.9c0,94.1-43.4,188.2-169.5,293.7c114.9,133.5,210.1,246.7,291.4,325.5
			c75.6,72.5,135.9,86.5,170.9,91.5c26.6,3.8,46.2,3.8,54.6,3.8c7,0,12.6,3.8,12.6,7.6c0,7.6-8.4,10.2-33.6,10.2h-99.5
			c-78.5,0-113.5-6.4-149.9-24.2c-60.2-29.2-109.3-91.5-189.1-186.9c-58.8-69.9-124.7-155.1-152.7-188.2c-5.6-5.1-9.8-7.6-18.2-7.6
			l-172.3-2.5c-7,0-9.8,3.8-9.8,10.2v30.5c0,122.1,0,222.5,7,275.9c4.2,36.9,12.6,64.8,54.6,69.9c19.6,2.5,50.4,5.1,63,5.1
			c8.4,0,11.2,3.8,11.2,7.6c0,6.4-7,10.2-22.4,10.2c-77,0-165.3-3.8-172.3-3.8c-1.4,0-89.7,3.8-131.7,3.8
			c-15.4,0-22.4-2.5-22.4-10.2c0-3.8,2.8-7.6,11.2-7.6c12.6,0,29.4-2.5,42-5.1c28-5.1,35-33.1,40.6-69.9c7-53.4,7-153.8,7-275.9
			V1243.4z M6223.4,1354c0,6.4,2.8,11.4,9.8,15.3c21,11.4,85.5,20.3,147.1,20.3c33.6,0,72.8-3.8,105.1-24.2
			c49-30.5,85.5-99.2,85.5-195.8c0-158.9-92.5-254.3-242.4-254.3c-42,0-79.9,3.8-93.9,7.6c-7,2.5-11.2,7.6-11.2,15.3V1354z"/>
		<path class="st0" d="M7431,902.7c21,48.3,241,573.4,326.4,766.7c50.4,113.2,91.1,133.5,120.5,141.1c21,6.4,42,7.6,56,7.6
			c8.4,0,14,1.3,14,7.6c0,7.6-12.6,10.2-28,10.2c-21,0-123.3,0-219.9-2.5c-26.6-1.3-42-1.3-42-8.9c0-5.1,5.6-8.9,9.8-8.9
			c2.8,0,11.2-6.4,11.2-17.8c0-3.8,0-11.4-2.8-16.5l-130.3-312.8c-2.8-5.1-5.6-7.6-12.6-7.6H7232c-7,0-11.2,3.8-14,10.2l-84.1,225
			c-12.6,31.8-19.6,62.3-19.6,85.2c0,25.4,29.4,36.9,53.2,36.9h14c9.8,0,14,2.5,14,7.6c0,7.6-8.4,10.2-21,10.2
			c-33.6,0-93.9-3.8-109.3-3.8s-92.5,3.8-158.3,3.8c-18.2,0-26.6-2.5-26.6-10.2c0-5.1,5.6-7.6,12.6-7.6c9.8,0,29.4-1.3,40.6-2.5
			c64.4-7.6,92.5-55.9,117.7-119.5l318-789.6c16.8-42,22.4-49.6,30.8-49.6S7414.2,863.3,7431,902.7z M7515,1415.1c7,0,7-3.8,5.6-8.9
			l-133.1-343.3c-4.2-10.2-7-14-11.2-14c-2.8,0-7,5.1-9.8,14l-123.3,343.3c-2.8,6.4,0,8.9,4.2,8.9H7515z"/>
	</g>
</g>
<g>
	<path class="st1" d="M2021.3,1836.7l-306.3-116L1247.1,1866c-133.3,41.4-327.3,42.4-433.3,2.4l-269.5-102.1l-256.2,79.6
		c-133.3,41.4-155.4,107.6-49.4,147.7l575.9,218c106,40.2,300,39.1,433.3-2.3l724-225C2105.3,1942.9,2127.4,1876.8,2021.3,1836.7z"
		/>
	<path class="st2" d="M1247.1,1815.5l467.9-145.4l256.2-79.7c133.3-41.4,155.4-107.5,49.4-147.7l-328.2-124.2L1242,1458.5
		c-133.3,41.4-327.3,42.5-433.3,2.3L561,1367.1l-273.7,85c-133.3,41.4-155.4,107.5-49.4,147.7l306.4,116l269.5,102
		C919.8,1858,1113.8,1856.9,1247.1,1815.5z"/>
	<path class="st3" d="M1242,1408l450.3-140l273.7-85c133.3-41.4,155.4-107.5,49.4-147.7l-575.9-218c-106-40.2-300-39.1-433.3,2.3
		l-724,225c-133.3,41.4-155.4,107.5-49.4,147.7L561,1316.5l247.7,93.8C914.8,1450.5,1108.8,1449.4,1242,1408z"/>
</g>
</svg>
