<?xml version="1.0" encoding="utf-8"?>
<!-- Generator: Adobe Illustrator 21.1.0, SVG Export Plug-In . SVG Version: 6.00 Build 0)  -->
<svg version="1.1" id="Слой_1" xmlns="http://www.w3.org/2000/svg" xmlns:xlink="http://www.w3.org/1999/xlink" x="0px" y="0px"
	 viewBox="0 0 39.4 34.9" style="enable-background:new 0 0 39.4 34.9;" xml:space="preserve">
<style type="text/css">
	.st0{fill:#3F2D3B;}
</style>
<g>
	<g>
		<g>
			<path class="st0" d="M13.3,19.1c-2,0-3.6,1.9-3.6,4.3s1.6,4.3,3.6,4.3s3.6-1.9,3.6-4.3S15.3,19.1,13.3,19.1z M13.3,26.3
				c-1.2,0-2.1-1.3-2.1-2.9c0-1.6,1-2.9,2.1-2.9s2.1,1.3,2.1,2.9C15.4,25,14.5,26.3,13.3,26.3z"/>
			<path class="st0" d="M26.9,19.1c-2,0-3.6,1.9-3.6,4.3s1.6,4.3,3.6,4.3s3.6-1.9,3.6-4.3S28.9,19.1,26.9,19.1z M26.9,26.3
				c-1.2,0-2.1-1.3-2.1-2.9c0-1.6,1-2.9,2.1-2.9s2.1,1.3,2.1,2.9C29,25,28.1,26.3,26.9,26.3z"/>
			<path class="st0" d="M28,15.5c0,0-0.1,0-0.1,0c-0.7,0-1.3,0-2,0.1c-0.6,0-1.2,0-1.8,0.1l-1,0c-1.8,0-3.7,0.1-5.5,0.1
				c-0.8,0-1.7,0-2.5-0.1c-1.1,0-2.3-0.1-3.5-0.1c-1.6,0-3,0.6-4.1,1.5l0,0c-1.8,1.6-2.5,3.8-2.3,6.6c0.4,4.1,2,6.2,5.7,7.3
				c3.1,0.9,6.2,1,8.8,0.9l0.9,0c0.3,0,0.6,0,0.9,0c0.4,0,0.7,0,1.1,0c2.6-0.1,4.8-0.5,6.9-1.2c2.3-0.8,3.8-2.3,4.5-4.4
				c0.5-1.6,0.7-3.2,0.5-4.8C34,19.1,31.8,15.5,28,15.5z M32.5,25.9c-0.6,1.7-1.7,2.9-3.6,3.5c-1.9,0.7-4,1-6.5,1.1
				c-0.6,0-1.3,0-1.9,0l-0.9,0c-2.5,0-5.5,0-8.4-0.9c-3.1-0.9-4.4-2.5-4.7-6c-0.2-2.4,0.4-4.1,1.8-5.5c0.8-0.7,1.9-1.1,3.1-1.2
				c1.1,0,2.3,0,3.4,0.1c0.9,0,1.7,0.1,2.6,0.1c1.9,0,3.8,0,5.6-0.1l1,0c0.6,0,1.2,0,1.8-0.1c0.7,0,1.3-0.1,2-0.1c0,0,0.1,0,0.1,0
				c3,0,4.7,2.9,5,4.8C33.1,23.2,33,24.5,32.5,25.9z"/>
			<path class="st0" d="M37.1,11c-0.4-0.6-0.6-0.9-0.6-1.6c0.1-1.3-0.1-2.6-0.2-3.9l0-0.1c-0.2-1.7-0.7-3.4-1.3-4.9L34.8,0l-1.1,0.2
				c-1.5,0.3-3,0.6-4.4,1.4c-0.9,0.5-1.8,1.1-2.7,1.6C26,3.7,25.4,4,24.8,4.4c0,0-0.1,0-0.1,0l0,0c-3.2-0.6-6.5-0.6-9.9,0
				c0,0-0.2,0-0.3-0.1c-0.4-0.2-0.7-0.5-1.1-0.7c-0.4-0.3-0.8-0.6-1.3-0.8c-2-1.2-4.3-2.4-7-2.7L4.7,0.1L4.4,0.7
				C4.4,0.8,4.3,0.9,4.3,1C3.5,3,3.1,5.2,2.9,7.5c-0.1,0.8-0.1,1.6,0,2.4c0,0.3,0,0.3-0.1,0.5c-1,1.2-1.7,2.5-2.1,3.8
				c-0.8,2.3-0.9,4.9-0.4,8.1c0.4,2.7,1,4.6,2.1,6.3c2.3,3.6,5.8,5.6,10.5,6c2.3,0.2,4.7,0.2,7,0.2c0.5,0,1,0,1.5,0c0.7,0,1.3,0,2,0
				c3,0,5.4-0.4,7.5-1.2c3.9-1.5,6.4-4.3,7.6-8.4c0.7-2.3,1-4.6,0.9-7.1C39.3,15.4,38.6,13,37.1,11z M37.2,24.8
				c-1.1,3.6-3.3,6.1-6.8,7.4c-2,0.8-4.2,1.2-7,1.1c-0.7,0-1.3,0-2,0c-2.8,0-5.6,0-8.4-0.2c-4.3-0.4-7.3-2.1-9.4-5.3
				c-1-1.5-1.6-3.3-1.9-5.8c-0.4-3-0.3-5.3,0.4-7.5c0.4-1.2,1-2.3,1.9-3.4c0.4-0.5,0.5-0.9,0.4-1.6c-0.1-0.7,0-1.4,0-2.2
				c0.1-2,0.5-4,1.2-5.9C7.8,2,9.7,3,11.5,4.1c0.4,0.2,0.8,0.5,1.2,0.8c0.4,0.2,0.8,0.5,1.1,0.7c0.4,0.2,0.9,0.3,1.3,0.3
				c3.2-0.5,6.4-0.5,9.4,0c0.4,0.1,0.8,0,1.1-0.2c0.6-0.4,1.2-0.7,1.8-1.1C28.3,4,29.1,3.4,30,2.9c1.2-0.7,2.5-1,3.9-1.2
				c0.5,1.2,0.8,2.6,1,4l0,0.1c0.2,1.2,0.3,2.4,0.2,3.6c-0.1,1.1,0.3,1.9,0.8,2.5c1.3,1.8,2,3.9,2,6.4
				C38.1,20.5,37.8,22.7,37.2,24.8z"/>
		</g>
	</g>
</g>
</svg>
