<svg xmlns="http://www.w3.org/2000/svg" viewBox="0 0 1049.35 225.51"><defs><style>.cls-1{fill:none;}</style></defs><title>Ресурс 1</title><g id="Слой_2" data-name="Слой 2"><g id="Слой_1-2" data-name="Слой 1"><rect class="cls-1" x="909.31" y="89.53" width="93.36" height="11.73"/><rect class="cls-1" x="314.42" y="89.53" width="93.36" height="11.73"/><polygon points="465.97 66.08 465.97 159.44 512.65 159.44 512.65 124.48 606 124.48 606 159.44 652.68 159.44 652.68 101.03 629.46 101.03 629.46 66.08 582.78 66.08 582.78 101.26 512.65 101.26 512.65 66.08 465.97 66.08"/><path d="M862.63,159.44h46.68v-35h140V66.08H862.63Zm46.68-69.91h93.36v11.73H909.31Z"/><polygon points="244.52 182.66 244.52 135.99 197.84 135.99 197.84 225.51 384.33 225.51 384.33 182.66 244.52 182.66"/><polygon points="244.52 89.53 244.52 42.85 384.33 42.85 384.33 0 197.84 0 197.84 89.53 244.52 89.53"/><path d="M454.46,159.44V66.08H267.74v93.36h46.68v-35h93.36v35Zm-140-58.18V89.53h93.36v11.73Z"/><polygon points="139.43 135.99 139.43 182.66 0 182.66 0 225.51 186.11 225.51 186.11 135.99 139.43 135.99"/><polygon points="139.43 42.85 139.43 89.53 186.11 89.53 186.11 0 0 0 0 42.85 139.43 42.85"/><polygon points="664.19 159.44 851.14 159.44 851.14 136.21 710.87 136.21 710.87 124.48 851.14 124.48 851.14 101.26 710.87 101.26 710.87 89.53 851.14 89.53 851.14 66.08 664.19 66.08 664.19 159.44"/><rect x="139.43" y="101.03" width="105.08" height="23.45"/></g></g></svg>