<svg xmlns="http://www.w3.org/2000/svg" viewBox="0 0 1556.24 217.55"><defs><style>.cls-1{fill:#4e8fcd;}</style></defs><title>Ресурс 3</title><g id="Слой_2" data-name="Слой 2"><g id="Слой_1-2" data-name="Слой 1"><rect class="cls-1" y="53.08" width="22.75" height="111.38"/><polygon class="cls-1" points="120.45 53.08 97.69 53.08 97.69 164.46 168.18 164.46 168.18 142.82 120.45 142.82 120.45 53.08"/><polygon class="cls-1" points="258.4 53.08 235.65 53.08 235.65 164.46 306.13 164.46 306.13 142.82 258.4 142.82 258.4 53.08"/><path class="cls-1" d="M439,116c0,19.41-9.55,28.74-22.91,28.74S393.17,135.4,393.17,116V53.08H370.1v64.18c0,31.34,19.73,49.11,46,49.11s46-17.77,46-49.11V53.08H439Z"/><polygon class="cls-1" points="590.31 95.88 561.67 53.08 535.57 53.08 535.57 164.46 558.33 164.46 558.33 84.59 589.19 131.53 591.26 131.53 622.29 84.59 622.29 164.46 645.04 164.46 645.04 53.08 618.79 53.08 590.31 95.88"/><rect class="cls-1" x="719.98" y="53.08" width="22.75" height="111.38"/><polygon class="cls-1" points="889.44 127.73 842.97 53.08 816.88 53.08 816.88 164.46 839.63 164.46 839.63 89.83 885.94 164.46 912.19 164.46 912.19 53.08 889.44 53.08 889.44 127.73"/><path class="cls-1" d="M1018.77,53.08,977.08,164.46h24l9.55-26.25h45l9.39,26.25h24.19L1047.57,53.08Zm-.32,63.49,14.64-40.42,14.64,40.42Z"/><polygon class="cls-1" points="1133.46 74.72 1165.45 74.72 1165.45 164.46 1188.2 164.46 1188.2 74.72 1220.34 74.72 1220.34 53.08 1133.46 53.08 1133.46 74.72"/><path class="cls-1" d="M1525.05,122.62c15.59-4,26.19-15.12,26.19-33.26,0-22.12-15.38-36.28-39.24-36.28h-47.89V164.46h22.75v-40.1h12.57l28.8,40.1h28Zm-15.59-18.14h-22.59V74.72h22.59c11.78,0,19.37,5.73,19.37,15C1528.82,98.75,1521.39,104.48,1509.46,104.48Z"/><rect class="cls-1" x="1237.23" width="205.22" height="21.64"/><rect class="cls-1" x="1237.23" y="195.9" width="205.22" height="21.64"/><path class="cls-1" d="M1397.44,108.77a57.6,57.6,0,1,0-57.6,57.6A57.6,57.6,0,0,0,1397.44,108.77Zm-93.56,0a36,36,0,1,1,36,36A36,36,0,0,1,1303.87,108.77Z"/></g></g></svg>