<?xml version="1.0" encoding="UTF-8" standalone="no"?>
<svg
   xmlns:dc="http://purl.org/dc/elements/1.1/"
   xmlns:cc="http://creativecommons.org/ns#"
   xmlns:rdf="http://www.w3.org/1999/02/22-rdf-syntax-ns#"
   xmlns:svg="http://www.w3.org/2000/svg"
   xmlns="http://www.w3.org/2000/svg"
   viewBox="0 0 741.33331 233.33333"
   height="233.33333"
   width="741.33331"
   xml:space="preserve"
   id="svg2"
   version="1.1"><metadata
     id="metadata8"><rdf:RDF><cc:Work
         rdf:about=""><dc:format>image/svg+xml</dc:format><dc:type
           rdf:resource="http://purl.org/dc/dcmitype/StillImage" /></cc:Work></rdf:RDF></metadata><defs
     id="defs6" /><g
     transform="matrix(1.3333333,0,0,-1.3333333,0,233.33333)"
     id="g10"><g
       transform="scale(0.1)"
       id="g12"><path
         id="path14"
         style="fill:#231f20;fill-opacity:1;fill-rule:nonzero;stroke:none"
         d="m 18.2148,637.023 c -19.5273,157.77 -21.62105,343 -2.8359,526.997 2.9727,29.18 87.7971,29.34 88.0001,0 1.152,-167.532 3.516,-353.688 2.832,-526.997 -0.113,-29.32 -84.3946,-29.093 -87.9962,0" /><path
         id="path16"
         style="fill:none;stroke:#231f20;stroke-width:19.99839973;stroke-linecap:butt;stroke-linejoin:miter;stroke-miterlimit:2.61310005;stroke-dasharray:none;stroke-opacity:1"
         d="M 4965.5,1263.18 4649.27,703.004" /><path
         id="path18"
         style="fill:none;stroke:#231f20;stroke-width:19.99839973;stroke-linecap:butt;stroke-linejoin:miter;stroke-miterlimit:2.61310005;stroke-dasharray:none;stroke-opacity:1"
         d="M 4960.19,709.914 4301.75,694.93" /><path
         id="path20"
         style="fill:#ffffff;fill-opacity:1;fill-rule:evenodd;stroke:none"
         d="m 4126.95,985.922 337.62,-555.215 c -305.23,56.914 -318.8,72.977 -487.65,295.32 l 150.03,259.895" /><path
         id="path22"
         style="fill:#2b4481;fill-opacity:1;fill-rule:evenodd;stroke:none"
         d="M 4312.25,702.125 4966.35,717 C 4815.88,513.324 4668.31,439.09 4475.07,437.738 l -162.82,264.387" /><path
         id="path24"
         style="fill:#ffffff;fill-opacity:1;fill-rule:evenodd;stroke:none"
         d="m 4653.15,709.879 317.02,565.351 c 124.3,-275.16 85.44,-289.41 -4.7,-558.246 l -312.32,-7.105" /><path
         id="path26"
         style="fill:#2b4481;fill-opacity:1;fill-rule:evenodd;stroke:none"
         d="m 4816.73,1001.61 -345.28,557.56 c 182.59,7.85 400.23,-87.4 500.21,-288.9 l -154.93,-268.66" /><path
         id="path28"
         style="fill:#ffffff;fill-opacity:1;fill-rule:evenodd;stroke:none"
         d="m 4636.12,1291.36 -648.44,-10.65 c 84.5,162.06 269.55,292.93 494.05,278.78 l 154.39,-268.13" /><path
         id="path30"
         style="fill:#2b4481;fill-opacity:1;fill-rule:evenodd;stroke:none"
         d="m 4307.91,1295.85 -327.1,-566.686 c -101.75,147.402 -109.33,370.366 10.71,549.386 l 316.39,17.3" /><path
         id="path32"
         style="fill:none;stroke:#231f20;stroke-width:19.99839973;stroke-linecap:butt;stroke-linejoin:miter;stroke-miterlimit:2.61310005;stroke-dasharray:none;stroke-opacity:1"
         d="m 3922.28,1089.3 c 47.84,307.85 336.29,518.71 644.14,470.86 307.85,-47.84 518.71,-336.29 470.87,-644.14 -47.84,-307.852 -336.3,-518.707 -644.15,-470.864 -307.85,47.836 -518.71,336.289 -470.86,644.144" /><path
         id="path34"
         style="fill:none;stroke:#231f20;stroke-width:19.99839973;stroke-linecap:butt;stroke-linejoin:miter;stroke-miterlimit:2.61310005;stroke-dasharray:none;stroke-opacity:1"
         d="m 4475.33,1570.02 c 0,0 145.85,-240.12 248.39,-408.96 55.6,-91.54 98.47,-162.119 98.47,-162.119" /><path
         id="path36"
         style="fill:none;stroke:#231f20;stroke-width:19.99839973;stroke-linecap:butt;stroke-linejoin:miter;stroke-miterlimit:2.61310005;stroke-dasharray:none;stroke-opacity:1"
         d="M 4971.66,1270.27 4655.43,710.098" /><path
         id="path38"
         style="fill:none;stroke:#231f20;stroke-width:19.99839973;stroke-linecap:butt;stroke-linejoin:miter;stroke-miterlimit:2.61310005;stroke-dasharray:none;stroke-opacity:1"
         d="M 4966.35,717 4307.92,702.023" /><path
         id="path40"
         style="fill:none;stroke:#231f20;stroke-width:19.99839973;stroke-linecap:butt;stroke-linejoin:miter;stroke-miterlimit:2.61310005;stroke-dasharray:none;stroke-opacity:1"
         d="M 4475.07,437.738 4132,994.816" /><path
         id="path42"
         style="fill:none;stroke:#231f20;stroke-width:19.99839973;stroke-linecap:butt;stroke-linejoin:miter;stroke-miterlimit:2.61310005;stroke-dasharray:none;stroke-opacity:1"
         d="M 4307.91,1295.85 3980.81,729.164" /><path
         id="path44"
         style="fill:none;stroke:#231f20;stroke-width:19.99839973;stroke-linecap:butt;stroke-linejoin:miter;stroke-miterlimit:2.61310005;stroke-dasharray:none;stroke-opacity:1"
         d="m 4642.29,1298.46 -651.93,-14.83" /><path
         id="path46"
         style="fill:#231f20;fill-opacity:1;fill-rule:nonzero;stroke:none"
         d="m 61.8906,1326.42 c 15,0 27.6016,-5.16 37.918,-15.48 10.3164,-10.32 15.4804,-22.92 15.4804,-37.92 0,-15 -5.039,-27.72 -15.121,-38.28 -10.0742,-10.56 -22.7969,-15.84 -38.2774,-15.84 -15,0 -27.7187,5.28 -38.2773,15.84 -10.5625,10.56 -15.83986,23.28 -15.83986,38.28 0,15 5.16016,27.6 15.47656,37.92 10.3203,10.32 23.1602,15.48 38.6406,15.48" /><path
         id="path48"
         style="fill:#231f20;fill-opacity:1;fill-rule:nonzero;stroke:none"
         d="m 1011.38,629.785 c -43.915,14.965 -15.747,-6 -178.841,-6 -30.5,0 -59.199,8.695 -85.668,20.332 -26.465,11.641 -46.176,26.539 -58.996,44.164 -12.953,17.824 -22.023,39.532 -27.164,65.172 -3.477,17.301 -5.332,44.664 -5.332,82.168 0,107.059 -1.746,266.019 11.336,372.179 13.144,106.61 73.941,118.47 82.488,90.47 12.649,-116.23 -2.367,-307.832 -6,-428.989 -1.371,-45.945 1.629,-76.91 5.34,-92.832 5.41,-23.199 17.285,-41.285 35.168,-54.5 42.742,-31.597 149.332,-25.906 185.492,25.508 30.606,24.824 18.672,87.324 18.672,131.496 0,92.606 -7.242,330.817 7.125,418.977 4.695,28.83 93.32,40.71 89.21,-141.15 7.14,-168.303 3.84,-328.374 5.67,-504.323 0.21,-20.234 -46.52,-33.574 -78.5,-22.672 z m -563.001,6.91 v 0 c -8.316,227.75 -9.941,428.785 2.586,674.415 1.492,29.21 90.328,29.16 87.828,0 -9.105,-194.13 -8.043,-403.047 -2.582,-674.415 0.586,-29.257 -84.973,-29.125 -87.832,0" /><path
         id="path50"
         style="fill:#231f20;fill-opacity:1;fill-rule:nonzero;stroke:none"
         d="m 2100.62,1318.91 c 15,0 27.62,-5.18 37.92,-15.48 10.29,-10.3 15.48,-22.93 15.48,-37.92 0,-15 -5.07,-27.74 -15.13,-38.28 -10.05,-10.54 -22.79,-15.84 -38.27,-15.84 -15.01,0 -27.73,5.27 -38.28,15.84 -10.57,10.56 -15.84,23.28 -15.84,38.28 0,14.99 5.18,27.62 15.48,37.92 10.29,10.3 23.16,15.48 38.64,15.48" /><path
         id="path52"
         style="fill:#231f20;fill-opacity:1;fill-rule:nonzero;stroke:none"
         d="m 2054.34,640.852 c -24.41,164.257 -26.95,345.503 0,518.488 4.5,28.87 87.8,29.34 88,0 4.28,-149.89 2.55,-325.293 0,-518.488 -0.38,-29.211 -84.4,-29.11 -88,0 z m -838.57,9.925 v 0 c -1.89,206.477 -3.83,442.393 -5.68,653.433 -0.22,26.07 34.78,19.53 60.5,15 35.07,-6.17 26.72,-58.62 83,-26.5 26.96,15.38 55.92,23.33 92.33,23.33 36.43,0 69.76,-8 94.34,-23.99 24.58,-16 -43.96,-27.35 0,0 43.95,27.34 153.58,23.99 212.16,23.99 58.59,0 91.01,-14.33 118.67,-42.83 27.67,-28.5 41.5,-72.37 41.5,-131.5 0,-118.67 28.2,-385.304 0,-500.515 -6.89,-28.191 -87.33,-29.113 -87.33,0 v 471.185 c 0,35.16 -2.76,60.58 -8.5,76 -5.74,15.41 -16.09,27.91 -31,37.33 -14.91,9.41 -24.5,14.17 -52.83,14.17 -28.34,0 -66.76,-12.25 -90.84,-36.51 -24.07,-24.24 -36.16,-63.04 -36.16,-116.33 0,-134.075 0,-386.087 0,-436.255 0,-50.176 -81.92,-29.277 -82.29,-0.012 l -5.55,471.767 c -0.49,39.17 -7.16,68.5 -21.5,88 -14.32,19.5 -41.67,29.34 -70.33,29.34 -28.66,0 -47.5,-6.59 -68.5,-19.67 -21,-13.08 -36.25,-31.92 -45.67,-57.01 -9.41,-25.07 -16.02,-61.42 -14.16,-108.49 9.1,-230.573 -5.03,-361.136 -6.33,-403.933 -1.09,-35.937 -75.41,-46.656 -75.83,0 z m 1066.82,-10 v 0 c 0,216.828 -26.12,435.243 0,650.493 3.18,26.12 79,26.3 79,0 v -73.67 c 38.17,57 93.17,85.5 165,85.5 31.34,0 60,-5.67 86.16,-16.83 26.34,-11.33 45.84,-26 58.84,-44.33 13.16,-18.17 22.16,-39.84 27.5,-64.84 3.16,-16.33 4.83,-44.84 4.83,-85.5 0,-106.272 28.26,-348.393 0,-450.823 -7.79,-28.265 -88,-29.332 -88,0 v 447.493 c 0,35.67 -3.33,62.5 -10.16,80.33 -6.83,17.67 -19,31.83 -36.33,42.33 -17.5,10.68 -37.84,16.01 -61.34,16.01 -37.5,0 -69.66,-12 -97,-35.67 -27.16,-23.83 -40.66,-68.84 -40.66,-135.33 0,-94.389 27.95,-325.026 0,-415.163 -8.67,-27.949 -87.84,-29.281 -87.84,0 z m 935.77,78.461 v 0 c 0.56,-41.16 -47.44,-86.199 -87.22,-90.785 -57.14,-6.582 -112.45,-5.043 -155.22,-3.09 -49.76,2.266 -88.84,13.168 -117,39.5 -28.17,26.332 -42.17,61.332 -42.17,104.996 0,93.329 55.01,147.832 165,162.996 l 149.84,21.004 c -1.42,188.871 30.46,278.091 -133.41,288.821 -40.64,2.65 -92.12,5.72 -127.91,2.53 -21.07,8.97 -32.79,34.75 -16.51,56.65 2.92,26.32 123.57,13.43 192.01,12.66 214.19,-27.29 164.74,-181.49 171.66,-352.336 4.43,-109.692 -0.57,-133.039 0.93,-242.946 z m -85.69,162.02 v 0 l -121.58,-7.903 c -37.17,-5.164 -65.17,-14.335 -84,-27.664 -18.84,-13.168 -28.33,-36.503 -28.33,-70 0,-24.328 8.66,-44.332 26.16,-59.832 17.33,-15.496 40.53,-22.492 69.5,-23.168 81.2,-1.878 138.56,4.981 138.77,80.293 0.04,15.543 -0.62,92.707 -0.52,108.274 z m 663.07,354.672 v 0 c -66.98,-6.7 -200.17,10.04 -193.53,-22.52 -6.07,-236.847 -0.92,-379.328 -8.64,-572.289 -1.08,-27.156 -79.27,-27.125 -82,0 -7.07,198.684 -4.98,381.089 0.39,575.839 0.95,34.3 -139,13.31 -202.05,18.97 -24.5,2.2 -23.28,74.5 1.33,75.68 161.95,7.75 322.76,0 482.83,0 24.67,0 41.29,-71.73 1.67,-75.68 z M 5552.97,650.977 v 0 c -34.31,-46.227 -52.11,-13.442 -136.14,41.312 -13.65,8.899 -35.96,34.461 -71.27,61.219 -10.68,8.094 -37.85,23.75 -50.52,24.578 -32.93,2.148 -4.82,0.383 -19.65,0.055 -2.66,-77.059 -0.09,-35.996 -6.54,-133.321 -1.8,-27.234 -78.44,-29.89 -80.44,-2.656 -3.28,228.738 -10.47,384.746 -3.59,628.356 1.04,37 48.06,53.68 117.72,53.68 30.5,0 58.84,-3.83 84.67,-11.5 25.83,-7.66 48.31,-19.23 67.33,-34.83 19.12,-15.69 22.64,-29.54 33.33,-52.67 10.78,-23.33 10.5,-58.93 10.5,-90.27 0,-24.32 2.21,-184.586 0.95,-206.141 -2.14,-36.816 -18.92,-61.984 -54.62,-89.141 -19.16,-11.16 -40.5,-20 -64.33,-26.168 v -1.996 c 11.87,-5.203 187.33,-137.566 172.6,-160.507 z m -288.88,561.203 v 0 l 5.03,-334.508 c 0.4,-27.016 42.89,-24.051 109.92,4.371 47.62,19.801 44.46,42.414 51.62,59.25 7.17,16.664 -1.29,180.147 -1.29,200.977 0,37.51 -12.05,60.91 -36.33,81.93 -24.18,20.94 -59.34,31.5 -105.16,31.5 -37.45,0 -24.35,-6.1 -23.79,-43.52 z M 240.883,636.695 v 0 c -10.254,227.629 -14.371,422.685 -3.086,674.415 1.308,29.21 90.34,29.16 87.836,0 -7.719,-197.32 -2.371,-403.047 3.082,-674.415 0.586,-29.246 -84.973,-29.136 -87.832,0" /><path
         id="path54"
         style="fill:none;stroke:#231f20;stroke-width:60.00090027;stroke-linecap:butt;stroke-linejoin:miter;stroke-miterlimit:2.61310005;stroke-dasharray:none;stroke-opacity:1"
         d="m 3893.41,1091.55 c 50.24,323.29 353.15,544.72 676.43,494.48 323.29,-50.24 544.71,-353.15 494.48,-676.436 -50.25,-323.281 -353.15,-544.711 -676.44,-494.469 -323.28,50.242 -544.71,353.148 -494.47,676.425" /><path
         id="path56"
         style="fill:#ffffff;fill-opacity:1;fill-rule:evenodd;stroke:none"
         d="m 4478.86,1575.23 c 9.79,0 17.77,7.99 17.77,17.77 0,9.79 -7.98,17.78 -17.77,17.78 -9.79,0 -17.77,-7.99 -17.77,-17.78 0,-9.78 7.98,-17.77 17.77,-17.77" /><path
         id="path58"
         style="fill:none;stroke:#231f20;stroke-width:2.16000009;stroke-linecap:butt;stroke-linejoin:miter;stroke-miterlimit:2.61313009;stroke-dasharray:none;stroke-opacity:1"
         d="m 4478.86,1575.23 c 9.79,0 17.77,7.99 17.77,17.77 0,9.79 -7.98,17.78 -17.77,17.78 -9.79,0 -17.77,-7.99 -17.77,-17.78 0,-9.78 7.98,-17.77 17.77,-17.77 z" /><path
         id="path60"
         style="fill:#ffffff;fill-opacity:1;fill-rule:evenodd;stroke:none"
         d="m 5071.29,982.801 c 9.79,0 17.77,7.984 17.77,17.769 0,9.79 -7.98,17.78 -17.77,17.78 -9.79,0 -17.77,-7.99 -17.77,-17.78 0,-9.785 7.98,-17.769 17.77,-17.769" /><path
         id="path62"
         style="fill:none;stroke:#231f20;stroke-width:2.16000009;stroke-linecap:butt;stroke-linejoin:miter;stroke-miterlimit:2.61313009;stroke-dasharray:none;stroke-opacity:1"
         d="m 5071.29,982.801 c 9.79,0 17.77,7.984 17.77,17.769 0,9.79 -7.98,17.78 -17.77,17.78 -9.79,0 -17.77,-7.99 -17.77,-17.78 0,-9.785 7.98,-17.769 17.77,-17.769 z" /><path
         id="path64"
         style="fill:#ffffff;fill-opacity:1;fill-rule:evenodd;stroke:none"
         d="m 4478.86,390.383 c 9.79,0 17.77,7.98 17.77,17.769 0,9.786 -7.98,17.774 -17.77,17.774 -9.79,0 -17.77,-7.988 -17.77,-17.774 0,-9.789 7.98,-17.769 17.77,-17.769" /><path
         id="path66"
         style="fill:none;stroke:#231f20;stroke-width:2.16000009;stroke-linecap:butt;stroke-linejoin:miter;stroke-miterlimit:2.61313009;stroke-dasharray:none;stroke-opacity:1"
         d="m 4478.86,390.383 c 9.79,0 17.77,7.98 17.77,17.769 0,9.786 -7.98,17.774 -17.77,17.774 -9.79,0 -17.77,-7.988 -17.77,-17.774 0,-9.789 7.98,-17.769 17.77,-17.769 z" /><path
         id="path68"
         style="fill:#ffffff;fill-opacity:1;fill-rule:evenodd;stroke:none"
         d="m 3886.43,982.801 c 9.79,0 17.78,7.984 17.78,17.769 0,9.79 -7.99,17.78 -17.78,17.78 -9.78,0 -17.76,-7.99 -17.76,-17.78 0,-9.785 7.98,-17.769 17.76,-17.769" /><path
         id="path70"
         style="fill:none;stroke:#231f20;stroke-width:2.16000009;stroke-linecap:butt;stroke-linejoin:miter;stroke-miterlimit:2.61313009;stroke-dasharray:none;stroke-opacity:1"
         d="m 3886.43,982.801 c 9.79,0 17.78,7.984 17.78,17.769 0,9.79 -7.99,17.78 -17.78,17.78 -9.78,0 -17.76,-7.99 -17.76,-17.78 0,-9.785 7.98,-17.769 17.76,-17.769 z" /><path
         id="path72"
         style="fill:#ffffff;fill-opacity:1;fill-rule:evenodd;stroke:none"
         d="m 4047.39,1432.05 c 6.94,6.94 18.19,6.94 25.13,0 6.94,-6.94 6.94,-18.19 0,-25.13 -6.94,-6.94 -18.19,-6.94 -25.13,0 -6.94,6.94 -6.94,18.19 0,25.13" /><path
         id="path74"
         style="fill:none;stroke:#231f20;stroke-width:2.16000009;stroke-linecap:butt;stroke-linejoin:miter;stroke-miterlimit:2.61313009;stroke-dasharray:none;stroke-opacity:1"
         d="m 4047.39,1432.05 c 6.94,6.94 18.19,6.94 25.13,0 6.94,-6.94 6.94,-18.19 0,-25.13 -6.94,-6.94 -18.19,-6.94 -25.13,0 -6.94,6.94 -6.94,18.19 0,25.13 z" /><path
         id="path76"
         style="fill:#ffffff;fill-opacity:1;fill-rule:evenodd;stroke:none"
         d="m 4885.2,1432.05 c 6.94,6.94 18.19,6.94 25.14,0 6.94,-6.94 6.94,-18.19 0,-25.13 -6.95,-6.94 -18.2,-6.94 -25.14,0 -6.94,6.94 -6.94,18.19 0,25.13" /><path
         id="path78"
         style="fill:none;stroke:#231f20;stroke-width:2.16000009;stroke-linecap:butt;stroke-linejoin:miter;stroke-miterlimit:2.61313009;stroke-dasharray:none;stroke-opacity:1"
         d="m 4885.2,1432.05 c 6.94,6.94 18.19,6.94 25.14,0 6.94,-6.94 6.94,-18.19 0,-25.13 -6.95,-6.94 -18.2,-6.94 -25.14,0 -6.94,6.94 -6.94,18.19 0,25.13 z" /><path
         id="path80"
         style="fill:#ffffff;fill-opacity:1;fill-rule:evenodd;stroke:none"
         d="m 4885.2,594.234 c 6.94,6.942 18.19,6.942 25.14,0 6.94,-6.941 6.94,-18.191 0,-25.132 -6.95,-6.946 -18.2,-6.946 -25.14,0 -6.94,6.941 -6.94,18.191 0,25.132" /><path
         id="path82"
         style="fill:none;stroke:#231f20;stroke-width:2.16000009;stroke-linecap:butt;stroke-linejoin:miter;stroke-miterlimit:2.61313009;stroke-dasharray:none;stroke-opacity:1"
         d="m 4885.2,594.234 c 6.94,6.942 18.19,6.942 25.14,0 6.94,-6.941 6.94,-18.191 0,-25.132 -6.95,-6.946 -18.2,-6.946 -25.14,0 -6.94,6.941 -6.94,18.191 0,25.132 z" /><path
         id="path84"
         style="fill:#ffffff;fill-opacity:1;fill-rule:evenodd;stroke:none"
         d="m 4047.39,594.234 c 6.94,6.942 18.19,6.942 25.13,0 6.94,-6.941 6.94,-18.191 0,-25.132 -6.94,-6.946 -18.19,-6.946 -25.13,0 -6.94,6.941 -6.94,18.191 0,25.132" /><path
         id="path86"
         style="fill:none;stroke:#231f20;stroke-width:2.16000009;stroke-linecap:butt;stroke-linejoin:miter;stroke-miterlimit:2.61313009;stroke-dasharray:none;stroke-opacity:1"
         d="m 4047.39,594.234 c 6.94,6.942 18.19,6.942 25.13,0 6.94,-6.941 6.94,-18.191 0,-25.132 -6.94,-6.946 -18.19,-6.946 -25.13,0 -6.94,6.941 -6.94,18.191 0,25.132 z" /><g
         transform="scale(10)"
         id="g88"><text
           id="text94"
           style="font-variant:normal;font-weight:bold;font-size:29.99939919px;font-family:Calibri;-inkscape-font-specification:Calibri-Bold;writing-mode:lr-tb;fill:#231f20;fill-opacity:1;fill-rule:nonzero;stroke:none"
           transform="matrix(1,0,0,-1,20.7641,145.958)"><tspan
             id="tspan90"
             y="0"
             x="0 20.249596 36.254276 47.694111 63.833786 78.683487 94.463173 108.68289">фотоклуб</tspan><tspan
             id="tspan92"
             y="118.882"
             x="123.143 139.85266 161.24223 176.03712 192.85159 200.86642 219.26604 234.06058 250.87541 265.6951">им.В.А.Как</tspan></text>
<text
           id="text98"
           style="font-variant:normal;font-weight:bold;font-size:29.99939919px;font-family:Calibri;-inkscape-font-specification:Calibri-Bold;writing-mode:lr-tb;fill:#231f20;fill-opacity:1;fill-rule:nonzero;stroke:none"
           transform="matrix(1,0,0,-1,300.7731,27.076)"><tspan
             id="tspan96"
             y="0"
             x="0 16.139677 30.98938 45.839085 62.548748 78.898422">овкина</tspan></text>
</g></g></g></svg>