<svg xmlns="http://www.w3.org/2000/svg" width="1345.334" height="291.999" viewBox="0 0 14014 3042" shape-rendering="geometricPrecision" text-rendering="geometricPrecision" image-rendering="optimizeQuality" fill-rule="evenodd" clip-rule="evenodd"><defs><style>.fil0,.fil1{fill:#27735e;fill-rule:nonzero}.fil0{fill:#d43d39}</style></defs><g id="Layer_x0020_1"><path class="fil0" d="M12978 2456v-197h1024v197h-1024zm1024-1060v197h-71c64 36 94 117 94 194 0 209-164 331-352 331-216 0-351-155-351-331 0-108 52-168 92-194h-70v-197h658zm-326 525c60 0 165-45 165-164 0-70-33-113-73-138-26-17-55-25-84-27-30-2-59 4-86 17-45 21-91 66-91 150 0 113 95 162 169 162h1zm-698-660v-197h418c-75-70-75-164-75-191 0-137 98-323 347-323 237 0 356 165 356 332 0 93-45 164-93 191h70v188h-1024zm693-515c-84 0-166 64-166 161 0 104 84 163 166 163 91 0 169-61 169-160 0-101-82-165-168-165h-1zM2160 1818l252 503 252-503h-504zm4547-568l-503 252 503 252v-503zm5641 1204l-252-503-252 503h503z"/><path class="fil1" d="M3335 2456h-360l-563-1207-563 1207h-360l923-1979 923 1979zM9129-12c-175 192-632 790-232 1391 388 583 348 899-175 1343l147 319c697-533 825-1129 372-1767-359-506 36-956 155-1072L9129-11zm-5416 0c-175 192-632 790-232 1391 388 583 347 899-175 1343l147 319c697-533 825-1129 372-1767-359-506 36-956 155-1072L3713-11zm3250 921V550H5831v1906h1132v-359h-773V910h773zM360 550H0v1906h360V550zm435 953l667-953h-421l-667 953 667 953h421l-667-953zm9384-953h-359v1906h359V550zm435 953l667-953h-421l-667 953 667 953h421l-667-953zm-2429 215c181-120 284-309 284-523 0-235-105-425-294-537-126-74-280-108-485-108h-450v1906h360V910h90c249 0 420 61 420 285 0 209-206 300-444 308h-52l667 953h421l-517-738zM5338 659c-126-74-280-108-485-108h-450v1906h360V911h90c249 0 420 61 420 285 0 209-206 300-444 308h-52l239 341c118-21 224-59 313-113 7-4 13-9 20-13 181-120 284-309 284-523 0-235-105-425-294-537zm7200-108l-441 765-442-765h-359l801 1387 801-1387h-360z"/></g></svg>