<?xml version="1.0" encoding="utf-8"?>
<!-- Generator: Adobe Illustrator 16.0.0, SVG Export Plug-In . SVG Version: 6.00 Build 0)  -->
<!DOCTYPE svg PUBLIC "-//W3C//DTD SVG 1.1//EN" "http://www.w3.org/Graphics/SVG/1.1/DTD/svg11.dtd">
<svg version="1.1" id="Layer_1" xmlns="http://www.w3.org/2000/svg" xmlns:xlink="http://www.w3.org/1999/xlink" x="0px" y="0px"
	 width="368.504px" height="368.504px" viewBox="0 0 368.504 368.504" enable-background="new 0 0 368.504 368.504"
	 xml:space="preserve">
<g>
	<rect x="84.206" y="84.206" fill="#CC0000" width="200.092" height="200.093"/>
	<g>
		<g>
			<rect x="200.38" y="168.144" fill="#FFFFFF" width="2.252" height="11.334"/>
			<path fill="#FFFFFF" d="M168.912,170.423l7.089,0.003c0.27,0.001,0.504,0.229,0.512,0.505h2.254
				c-0.008-1.536-1.25-2.779-2.766-2.787h-7.089c-1.535,0-2.785,1.26-2.785,2.811v1.172c0,1.55,1.25,2.812,2.782,2.812h7.073
				c0.288,0,0.53,0.231,0.53,0.523v1.208c0,0.291-0.242,0.529-0.53,0.529v0.008h-9.695v2.271l9.812-0.006
				c1.482-0.057,2.668-1.207,2.668-2.707v-1.303c0-1.559-1.25-2.81-2.784-2.81l-7.073-0.005c-0.289,0-0.527-0.235-0.527-0.523
				v-1.172C168.382,170.664,168.62,170.423,168.912,170.423"/>
			<rect x="181.021" y="168.144" fill="#FFFFFF" width="2.254" height="11.334"/>
			<path fill="#FFFFFF" d="M146.198,168.144h-7.076h-0.018c-1.523,0.008-2.756,1.26-2.764,2.799h2.256
				c0.006-0.28,0.229-0.508,0.508-0.52h7.094c0.288,0,0.523,0.237,0.523,0.529v1.172c0,0.288-0.235,0.523-0.523,0.523l-7.094,0.005
				c-1.523,0.013-2.756,1.251-2.764,2.798v4.026h2.256v-4.026c0.006-0.28,0.229-0.512,0.508-0.514h7.094
				c1.537,0,2.781-1.265,2.781-2.812v-1.172C148.979,169.404,147.735,168.144,146.198,168.144"/>
			<path fill="#FFFFFF" d="M185.525,170.423h5.179v6.265c0.008,1.539,1.246,2.785,2.762,2.791V177.2
				c-0.274-0.008-0.5-0.23-0.516-0.513v-6.265h5.178v-2.279h-12.603V170.423L185.525,170.423z"/>
			<path fill="#FFFFFF" d="M161.091,168.144h-7.07c-1.538,0-2.781,1.26-2.781,2.805v5.636c0,1.552,1.243,2.896,2.781,2.896v-0.002
				h7.07c1.536,0,2.785-1.26,2.785-2.808v-5.718C163.876,169.404,162.627,168.144,161.091,168.144z M161.615,176.67
				c0,0.291-0.233,0.529-0.524,0.529l-7.07,0.008c-0.295,0-0.533-0.242-0.533-0.537v-5.724c0-0.293,0.238-0.523,0.533-0.523h7.07
				c0.291,0,0.524,0.24,0.524,0.529V176.67z"/>
			<path fill="#FFFFFF" d="M222.359,170.423h7.043c0.283,0.003,0.5,0.23,0.509,0.517h2.252c-0.004-1.545-1.235-2.788-2.761-2.796
				h-7.043c-1.541,0-2.78,1.26-2.78,2.811v5.718c0,1.548,1.239,2.808,2.78,2.808l7.035,0.004c1.521-0.004,2.76-1.256,2.769-2.791
				h-2.252c-0.015,0.281-0.231,0.509-0.517,0.517l-7.035-0.008c-0.293,0-0.53-0.238-0.53-0.529l-0.004-1.731h7.577v-2.284h-7.577
				l0.004-1.7C221.829,170.664,222.066,170.423,222.359,170.423"/>
			<path fill="#FFFFFF" d="M212.044,175.903c-0.317,0.577-0.567,0.534-0.806,0.076l-3.881-7.835h-2.471l5.608,11.334
				c1.594,0,2.834-1.008,4.069-3.674l3.789-7.66h-2.465L212.044,175.903z"/>
		</g>
		<g>
			<path fill="#FFFFFF" d="M188.326,189.025h-7.074v-0.004c-1.535,0-2.785,1.266-2.785,2.811v5.631c0,1.553,1.25,2.896,2.785,2.896
				v-0.002h7.074c1.535,0,2.773-1.258,2.773-2.807v-5.715C191.1,190.285,189.861,189.025,188.326,189.025z M188.85,197.549
				c0,0.289-0.242,0.527-0.521,0.527l-7.074,0.008c-0.298,0-0.53-0.242-0.53-0.535v-5.719c0-0.293,0.232-0.525,0.53-0.525h7.074
				c0.279,0,0.521,0.24,0.521,0.529V197.549z"/>
			<path fill="#FFFFFF" d="M158.201,193.537h-8.132v-1.719c0.012-0.281,0.237-0.504,0.515-0.514v-2.281
				c-1.522,0.01-2.761,1.262-2.768,2.795v8.535h2.253v-4.545h8.132v1.756c-0.017,0.281-0.238,0.504-0.52,0.512v2.277
				c1.523-0.006,2.75-1.252,2.766-2.789v-8.541h-2.246V193.537z"/>
			<path fill="#FFFFFF" d="M173.967,189.025v7.223c0,0.295-0.362,0.74-0.71,0.412l-8.297-7.635
				c-1.287,0.266-2.261,1.438-2.261,2.811v8.521h2.261v-7.248c0-0.293,0.345-0.734,0.7-0.404l8.307,7.633
				c1.281-0.268,2.25-1.443,2.25-2.812v-8.498L173.967,189.025L173.967,189.025z"/>
			<path fill="#FFFFFF" d="M135.759,191.305h7.048c0.28,0.002,0.499,0.232,0.503,0.516h2.258c-0.013-1.543-1.248-2.785-2.761-2.795
				h-7.048c-1.528,0-2.779,1.262-2.779,2.811v5.715c0,1.549,1.251,2.807,2.779,2.807l7.036,0.004
				c1.524-0.004,2.756-1.256,2.772-2.789h-2.258c-0.004,0.279-0.236,0.508-0.515,0.516l-7.036-0.008
				c-0.292,0-0.524-0.238-0.524-0.527v-5.715C135.234,191.545,135.467,191.305,135.759,191.305"/>
			<path fill="#FFFFFF" d="M213.32,189.025h-7.078v-0.004c-1.527,0-2.771,1.266-2.771,2.811v5.631c0,1.553,1.244,2.896,2.771,2.896
				v-0.002h7.078c1.535,0,2.783-1.258,2.783-2.807v-5.715C216.104,190.285,214.855,189.025,213.32,189.025z M213.854,197.549
				c0,0.289-0.232,0.527-0.533,0.527l-7.076,0.008c-0.279,0-0.518-0.242-0.518-0.535v-5.719c0-0.293,0.236-0.525,0.518-0.525h7.076
				c0.301,0,0.533,0.24,0.533,0.529V197.549z"/>
			<path fill="#FFFFFF" d="M240.525,191.305h7.047c0.273,0.002,0.5,0.232,0.504,0.516h2.264c-0.014-1.543-1.248-2.785-2.768-2.799
				l-7.047,0.004c-1.531,0-2.779,1.262-2.779,2.811v5.715c0,1.543,1.248,2.807,2.779,2.807l7.039,0.004
				c1.525-0.004,2.762-1.256,2.773-2.789h-2.264c-0.006,0.279-0.234,0.508-0.514,0.516l-7.039-0.008
				c-0.285,0-0.521-0.238-0.521-0.527v-1.738h7.567v-2.271h-7.567v-1.703C240.004,191.545,240.24,191.305,240.525,191.305"/>
			<path fill="#FFFFFF" d="M195.609,197.549l0.002-5.729c0.014-0.281,0.236-0.504,0.514-0.514v-2.281
				c-1.521,0.008-2.754,1.262-2.766,2.795v5.729c0,1.549,1.244,2.807,2.773,2.807h5.078v-2.271l-5.078-0.008
				C195.848,198.076,195.609,197.838,195.609,197.549"/>
			<path fill="#FFFFFF" d="M262.441,193.537l-7.078-0.01c-0.285,0-0.527-0.234-0.527-0.521v-1.172c0-0.289,0.246-0.529,0.535-0.529
				l7.084,0.002c0.273,0.002,0.498,0.23,0.508,0.504h2.256c-0.018-1.533-1.25-2.775-2.764-2.785h-7.084
				c-1.539,0-2.787,1.262-2.787,2.811v1.172c0,1.547,1.248,2.805,2.779,2.805h7.078c0.287,0,0.521,0.238,0.521,0.531v1.207
				c0,0.289-0.233,0.527-0.521,0.527v0.008h-9.699v2.271l9.807-0.006c1.48-0.057,2.67-1.205,2.67-2.705v-1.303
				C265.219,194.785,263.969,193.537,262.441,193.537"/>
			<path fill="#FFFFFF" d="M221.141,191.301l7.092,0.004c0.275,0.012,0.498,0.236,0.506,0.518h2.256
				c0-1.535-1.238-2.787-2.762-2.797h-7.092c-1.535,0-2.779,1.262-2.779,2.811v5.715c0,1.549,1.244,2.807,2.779,2.807h7.072
				c1.529,0,2.779-1.264,2.779-2.807v-1.207c0-1.557-1.25-2.805-2.779-2.805h-5.35v2.271h5.35c0.291,0,0.525,0.238,0.525,0.531
				v1.207c0,0.289-0.234,0.527-0.525,0.527h-7.072c-0.295,0-0.521-0.238-0.521-0.527v-5.715
				C220.619,191.545,220.846,191.301,221.141,191.301"/>
			<rect x="233.252" y="189.025" fill="#FFFFFF" width="2.246" height="11.33"/>
			<path fill="#FFFFFF" d="M103.285,191.305h5.17v6.262c0.01,1.537,1.245,2.783,2.768,2.789v-2.277
				c-0.284-0.008-0.51-0.229-0.512-0.512v-6.262h5.166v-2.279h-12.592V191.305z"/>
			<path fill="#FFFFFF" d="M120.91,191.305h7.046c0.271,0.002,0.497,0.232,0.506,0.516h2.252c-0.009-1.543-1.235-2.785-2.758-2.795
				h-7.046c-1.533,0-2.778,1.262-2.778,2.811v5.715c0,1.549,1.245,2.807,2.778,2.807l7.042,0.004
				c1.518-0.004,2.753-1.256,2.762-2.789h-2.252c-0.009,0.279-0.237,0.508-0.51,0.516l-7.042-0.008
				c-0.294,0-0.523-0.238-0.523-0.527v-1.738h7.569v-2.271h-7.569v-1.703C120.387,191.545,120.616,191.305,120.91,191.305"/>
		</g>
	</g>
</g>
</svg>
