<?xml version="1.0" encoding="utf-8"?>
<!-- Generator: Adobe Illustrator 21.0.0, SVG Export Plug-In . SVG Version: 6.00 Build 0)  -->
<svg version="1.1" id="Layer_1" xmlns="http://www.w3.org/2000/svg" xmlns:xlink="http://www.w3.org/1999/xlink" x="0px" y="0px"
	 viewBox="0 0 466 468" style="enable-background:new 0 0 466 468;" xml:space="preserve">
<style type="text/css">
	.st0{fill-rule:evenodd;clip-rule:evenodd;}
	.st1{fill-rule:evenodd;clip-rule:evenodd;fill:#6D6E71;}
	.st2{fill-rule:evenodd;clip-rule:evenodd;fill:#414042;}
	.st3{fill-rule:evenodd;clip-rule:evenodd;fill:#211F1F;}
	.st4{fill-rule:evenodd;clip-rule:evenodd;fill:#161414;}
	.st5{fill-rule:evenodd;clip-rule:evenodd;fill:#58595B;}
	.st6{fill-rule:evenodd;clip-rule:evenodd;fill:url(#SVGID_1_);}
	.st7{fill-rule:evenodd;clip-rule:evenodd;fill:#808285;}
	.st8{fill-rule:evenodd;clip-rule:evenodd;fill:#784717;}
	.st9{fill-rule:evenodd;clip-rule:evenodd;fill:#161515;}
	.st10{fill-rule:evenodd;clip-rule:evenodd;fill:#A87149;}
	.st11{fill-rule:evenodd;clip-rule:evenodd;fill:#BCBEC0;}
	.st12{fill-rule:evenodd;clip-rule:evenodd;fill:#191617;}
	.st13{fill-rule:evenodd;clip-rule:evenodd;fill:url(#SVGID_2_);}
	.st14{fill-rule:evenodd;clip-rule:evenodd;fill:url(#SVGID_3_);}
	.st15{fill-rule:evenodd;clip-rule:evenodd;fill:url(#SVGID_4_);}
	.st16{fill-rule:evenodd;clip-rule:evenodd;fill:url(#SVGID_5_);}
</style>
<path class="st0" d="M231.9,386.4l1.1-0.5c12-6,22.6-16.4,32.2-25.6c2.4-2.3,3.5-4.3,5.6-7c40.7-50.1,59.5-110.4,66.6-174.1l0.1,0
	l1.8-24.9l0,0l0.1-17.4c-38.9-3-73.7-42.7-100.9-44.3c-2.2-0.3-4.4-0.4-6.6-0.4c-2.2,0-4.4,0.1-6.6,0.4
	c-27.2,1.7-62.1,41.3-100.9,44.3l0.1,17.4l0,0l1.8,24.9l0.1,0c7.1,63.7,25.8,124,66.6,174.1c2.1,2.6,3.2,4.7,5.6,7
	c9.6,9.2,20.2,19.6,32.2,25.6L231.9,386.4z"/>
<path class="st1" d="M231.9,373c0.4,0.1,0.7,0.1,1,0.1c11-5.5,20.6-15,29.4-23.4c2.2-2.1,3.2-4,5.1-6.4
	c37.2-45.7,54.3-100.8,60.7-158.9l0.1,0l1.6-22.7l0,0l0.1-15.9c-35.5-2.8-67.3-38.9-92.1-40.5c-2-0.3-4-0.4-6-0.4c-2,0-4,0.1-6,0.4
	c-24.8,1.5-56.6,37.7-92.1,40.5l0.1,15.9l0,0l1.6,22.7l0.1,0c6.5,58.1,23.6,113.2,60.7,158.9c2,2.4,2.9,4.3,5.1,6.4
	c8.8,8.4,18.4,17.9,29.4,23.4C231.2,373.1,231.5,373.1,231.9,373z"/>
<g>
	<path class="st2" d="M138.9,151.1h2.6v10.9c0,0.3-0.2,0.5-0.5,0.5h-1c-0.3,0-0.5-0.2-0.5-0.5v-8l-1.4,2.7c-0.1,0.2-0.2,0.2-0.4,0.2
		c-0.1,0-0.3,0-0.4-0.1l-0.6-0.3c-0.3-0.2-0.5-0.3-0.5-0.5c0-0.1,0-0.1,0-0.2L138.9,151.1L138.9,151.1z M137.4,178.4
		c0,2.7,0.8,4.1,2.4,4.1c1.6,0,2.4-1.4,2.4-4.1c0-2.7-0.8-4.1-2.4-4.1C138.2,174.4,137.4,175.7,137.4,178.4L137.4,178.4z
		 M135.3,178.4c0-3.9,1.5-5.8,4.5-5.8c3,0,4.5,1.9,4.5,5.8v0c0,3.9-1.5,5.8-4.5,5.8C136.8,184.2,135.3,182.3,135.3,178.4
		L135.3,178.4z M138.9,194.7h2.6v10.9c0,0.3-0.2,0.5-0.5,0.5h-1c-0.3,0-0.5-0.2-0.5-0.5v-8l-1.4,2.7c-0.1,0.1-0.2,0.2-0.3,0.2
		c-0.1-1-0.3-2-0.4-3L138.9,194.7L138.9,194.7z M142,224.2c0.1-0.6,0.2-1.3,0.2-2.1c0-2.1-0.5-3.4-1.4-3.8c-0.1-0.6-0.2-1.3-0.4-1.9
		c2.6,0.2,3.9,2.2,3.9,5.7v0c0,2.4-0.6,4-1.7,5C142.4,226.1,142.2,225.1,142,224.2z"/>
	<path class="st2" d="M159.6,138.6c-0.7,1.3-2,2-3.7,2c-0.3,0-0.5,0-0.8-0.1C156.6,139.9,158.1,139.3,159.6,138.6L159.6,138.6z
		 M153.5,156.6c0,2.7,0.8,4.1,2.4,4.1c1.6,0,2.4-1.4,2.4-4.1c0-2.7-0.8-4.1-2.4-4.1C154.3,152.6,153.5,153.9,153.5,156.6
		L153.5,156.6z M151.4,156.6c0-3.9,1.5-5.8,4.5-5.8c3,0,4.5,1.9,4.5,5.8v0c0,3.9-1.5,5.8-4.5,5.8
		C152.9,162.4,151.4,160.5,151.4,156.6L151.4,156.6z M155,172.9h2.6v10.9c0,0.3-0.2,0.5-0.5,0.5h-1c-0.3,0-0.5-0.2-0.5-0.5v-8
		l-1.4,2.7c-0.1,0.2-0.2,0.2-0.4,0.2c-0.1,0-0.3,0-0.4-0.1l-0.6-0.3c-0.3-0.2-0.5-0.3-0.5-0.5c0-0.1,0-0.1,0-0.2L155,172.9
		L155,172.9z M153.5,200.3c0,2.7,0.8,4.1,2.4,4.1c1.6,0,2.4-1.4,2.4-4.1c0-2.7-0.8-4.1-2.4-4.1C154.3,196.2,153.5,197.6,153.5,200.3
		L153.5,200.3z M151.4,200.3c0-3.9,1.5-5.8,4.5-5.8c3,0,4.5,1.9,4.5,5.8v0c0,3.9-1.5,5.8-4.5,5.8
		C152.9,206.1,151.4,204.1,151.4,200.3z"/>
	<path class="st2" d="M168.9,135c0,2.7,0.8,4.1,2.4,4.1c1.6,0,2.4-1.4,2.4-4.1c0-1.5-0.3-2.6-0.8-3.3c0.6-0.3,1.2-0.7,1.8-1
		c0.7,1,1.1,2.4,1.1,4.3v0c0,3.9-1.5,5.8-4.5,5.8c-3,0-4.5-1.9-4.5-5.7c0.7-0.4,1.4-0.7,2.1-1.1C168.9,134.2,168.9,134.6,168.9,135
		L168.9,135z M170.4,151.2h2.6v10.9c0,0.3-0.2,0.5-0.5,0.5h-1c-0.3,0-0.5-0.2-0.5-0.5v-8l-1.4,2.7c-0.1,0.2-0.2,0.2-0.4,0.2
		c-0.1,0-0.3,0-0.4-0.1l-0.6-0.3c-0.3-0.2-0.5-0.3-0.5-0.5c0-0.1,0-0.1,0-0.2L170.4,151.2L170.4,151.2z M168.9,178.6
		c0,2.7,0.8,4.1,2.4,4.1c1.6,0,2.4-1.4,2.4-4.1c0-2.7-0.8-4.1-2.4-4.1C169.7,174.6,168.9,175.9,168.9,178.6L168.9,178.6z
		 M166.8,178.6c0-3.9,1.5-5.8,4.5-5.8c3,0,4.5,1.9,4.5,5.8v0c0,3.9-1.5,5.8-4.5,5.8C168.3,184.4,166.8,182.5,166.8,178.6
		L166.8,178.6z M168.9,200.5c0,2.7,0.8,4.1,2.4,4.1c1.6,0,2.4-1.4,2.4-4.1c0-2.7-0.8-4.1-2.4-4.1
		C169.7,196.4,168.9,197.8,168.9,200.5L168.9,200.5z M166.8,200.5c0-3.9,1.5-5.8,4.5-5.8c3,0,4.5,1.9,4.5,5.8v0
		c0,3.9-1.5,5.8-4.5,5.8C168.3,206.2,166.8,204.3,166.8,200.5L166.8,200.5z M168.9,222.3c0,2.7,0.8,4.1,2.4,4.1
		c1.6,0,2.4-1.4,2.4-4.1c0-2.7-0.8-4.1-2.4-4.1C169.7,218.2,168.9,219.6,168.9,222.3L168.9,222.3z M166.8,222.3
		c0-3.9,1.5-5.8,4.5-5.8c3,0,4.5,1.9,4.5,5.8v0c0,3.9-1.5,5.8-4.5,5.8C168.3,228.1,166.8,226.1,166.8,222.3L166.8,222.3z
		 M170.4,238.6h2.6v10.9c0,0.3-0.2,0.5-0.5,0.5h-1c-0.3,0-0.5-0.2-0.5-0.5v-8l-1.4,2.7c-0.1,0.2-0.2,0.2-0.4,0.2
		c-0.1,0-0.3,0-0.4-0.1l-0.6-0.3c-0.3-0.2-0.5-0.3-0.5-0.5c0-0.1,0-0.1,0-0.2L170.4,238.6L170.4,238.6z M168.9,266
		c0,2.7,0.8,4.1,2.4,4.1c1.6,0,2.4-1.4,2.4-4.1c0-2.7-0.8-4.1-2.4-4.1C169.7,261.9,168.9,263.3,168.9,266L168.9,266z M166.8,266
		c0-3.9,1.5-5.8,4.5-5.8c3,0,4.5,1.9,4.5,5.8v0c0,3.9-1.5,5.8-4.5,5.8C168.3,271.7,166.8,269.8,166.8,266z"/>
	<path class="st2" d="M184.8,128.2h2.6v10.9c0,0.3-0.2,0.5-0.5,0.5h-1c-0.3,0-0.5-0.2-0.5-0.5v-8l-1.4,2.7c-0.1,0.2-0.2,0.2-0.4,0.2
		c-0.1,0-0.3,0-0.4-0.1l-0.6-0.3c-0.3-0.2-0.5-0.3-0.5-0.5c0-0.1,0-0.1,0-0.2L184.8,128.2L184.8,128.2z M183.3,155.6
		c0,2.7,0.8,4.1,2.4,4.1c1.6,0,2.4-1.4,2.4-4.1c0-2.7-0.8-4.1-2.4-4.1C184.1,151.6,183.3,152.9,183.3,155.6L183.3,155.6z
		 M181.2,155.6c0-3.9,1.5-5.8,4.5-5.8c3,0,4.5,1.9,4.5,5.8v0c0,3.9-1.5,5.8-4.5,5.8C182.7,161.4,181.2,159.5,181.2,155.6
		L181.2,155.6z M183.3,177.5c0,2.7,0.8,4.1,2.4,4.1c1.6,0,2.4-1.4,2.4-4.1c0-2.7-0.8-4.1-2.4-4.1
		C184.1,173.4,183.3,174.8,183.3,177.5L183.3,177.5z M181.2,177.5c0-3.9,1.5-5.8,4.5-5.8c3,0,4.5,1.9,4.5,5.8v0
		c0,3.9-1.5,5.8-4.5,5.8C182.7,183.2,181.2,181.3,181.2,177.5L181.2,177.5z M183.3,199.3c0,2.7,0.8,4.1,2.4,4.1
		c1.6,0,2.4-1.4,2.4-4.1c0-2.7-0.8-4.1-2.4-4.1C184.1,195.2,183.3,196.6,183.3,199.3L183.3,199.3z M181.2,199.3
		c0-3.9,1.5-5.8,4.5-5.8c3,0,4.5,1.9,4.5,5.8v0c0,3.9-1.5,5.8-4.5,5.8C182.7,205.1,181.2,203.1,181.2,199.3L181.2,199.3z
		 M184.8,215.6h2.6v10.9c0,0.3-0.2,0.5-0.5,0.5h-1c-0.3,0-0.5-0.2-0.5-0.5v-8l-1.4,2.7c-0.1,0.2-0.2,0.2-0.4,0.2
		c-0.1,0-0.3,0-0.4-0.1l-0.6-0.3c-0.3-0.2-0.5-0.3-0.5-0.5c0-0.1,0-0.1,0-0.2L184.8,215.6L184.8,215.6z M183.3,243
		c0,2.7,0.8,4.1,2.4,4.1c1.6,0,2.4-1.4,2.4-4.1c0-2.7-0.8-4.1-2.4-4.1C184.1,238.9,183.3,240.3,183.3,243L183.3,243z M181.2,242.9
		c0-3.9,1.5-5.8,4.5-5.8c3,0,4.5,1.9,4.5,5.8v0c0,3.9-1.5,5.8-4.5,5.8C182.7,248.7,181.2,246.8,181.2,242.9z"/>
	<path class="st2" d="M203.5,113.3v4c0,0.3-0.2,0.5-0.5,0.5h-1c-0.3,0-0.5-0.2-0.5-0.5v-2.8C202.1,114.1,202.8,113.7,203.5,113.3
		L203.5,113.3z M199.3,133.8c0,2.7,0.8,4.1,2.4,4.1c1.6,0,2.4-1.4,2.4-4.1c0-2.7-0.8-4.1-2.4-4.1
		C200.2,129.8,199.3,131.1,199.3,133.8L199.3,133.8z M197.3,133.8c0-3.9,1.5-5.8,4.5-5.8c3,0,4.5,1.9,4.5,5.8v0
		c0,3.9-1.5,5.8-4.5,5.8C198.8,139.6,197.3,137.7,197.3,133.8z"/>
	<path class="st2" d="M214.8,112.1c0,2.7,0.8,4.1,2.4,4.1c1.6,0,2.4-1.4,2.4-4.1c0-2.7-0.8-4.1-2.4-4.1
		C215.6,108.1,214.8,109.4,214.8,112.1L214.8,112.1z M212.7,112.1c0-1.5,0.2-2.7,0.7-3.6c1.9-0.8,3.7-1.4,5.5-1.9
		c1.9,0.6,2.8,2.5,2.8,5.5v0c0,3.9-1.5,5.8-4.5,5.8C214.2,117.9,212.7,116,212.7,112.1L212.7,112.1z M214.8,134
		c0,2.7,0.8,4.1,2.4,4.1c1.6,0,2.4-1.4,2.4-4.1c0-2.7-0.8-4.1-2.4-4.1C215.6,129.9,214.8,131.3,214.8,134L214.8,134z M212.7,134
		c0-3.9,1.5-5.8,4.5-5.8c3,0,4.5,1.9,4.5,5.8v0c0,3.9-1.5,5.8-4.5,5.8C214.2,139.8,212.7,137.8,212.7,134L212.7,134z M214.8,155.8
		c0,2.7,0.8,4.1,2.4,4.1c1.6,0,2.4-1.4,2.4-4.1c0-2.7-0.8-4.1-2.4-4.1C215.6,151.8,214.8,153.1,214.8,155.8L214.8,155.8z
		 M212.7,155.8c0-3.9,1.5-5.8,4.5-5.8c3,0,4.5,1.9,4.5,5.8v0c0,3.9-1.5,5.8-4.5,5.8C214.2,161.6,212.7,159.7,212.7,155.8
		L212.7,155.8z M216.3,172.1h2.6V183c0,0.3-0.2,0.5-0.5,0.5h-1c-0.3,0-0.5-0.2-0.5-0.5v-8l-1.4,2.7c-0.1,0.2-0.2,0.2-0.4,0.2
		c-0.1,0-0.3,0-0.4-0.1l-0.6-0.3c-0.3-0.2-0.5-0.3-0.5-0.5c0-0.1,0-0.1,0-0.2L216.3,172.1L216.3,172.1z M214.8,199.5
		c0,2.7,0.8,4.1,2.4,4.1c1.6,0,2.4-1.4,2.4-4.1c0-2.7-0.8-4.1-2.4-4.1C215.6,195.4,214.8,196.8,214.8,199.5L214.8,199.5z
		 M212.7,199.5c0-3.9,1.5-5.8,4.5-5.8c3,0,4.5,1.9,4.5,5.8v0c0,3.9-1.5,5.8-4.5,5.8C214.2,205.3,212.7,203.3,212.7,199.5z"/>
	<path class="st2" d="M229.6,112.5c0,2.7,0.8,4.1,2.4,4.1c1.6,0,2.4-1.4,2.4-4.1c0-2.7-0.8-4.1-2.4-4.1
		C230.4,108.4,229.6,109.8,229.6,112.5L229.6,112.5z M227.5,112.5c0-3.9,1.5-5.8,4.5-5.8c3,0,4.5,1.9,4.5,5.8v0
		c0,3.9-1.5,5.8-4.5,5.8C229,118.3,227.5,116.3,227.5,112.5L227.5,112.5z M231.1,128.8h2.6v10.9c0,0.3-0.2,0.5-0.5,0.5h-1
		c-0.3,0-0.5-0.2-0.5-0.5v-8l-1.4,2.7c-0.1,0.2-0.2,0.2-0.4,0.2c-0.1,0-0.3,0-0.4-0.1l-0.6-0.3c-0.3-0.2-0.5-0.3-0.5-0.5
		c0-0.1,0-0.1,0-0.2L231.1,128.8L231.1,128.8z M229.6,156.1c0,2.7,0.8,4.1,2.4,4.1c1.6,0,2.4-1.4,2.4-4.1c0-2.7-0.8-4.1-2.4-4.1
		C230.4,152.1,229.6,153.4,229.6,156.1L229.6,156.1z M227.5,156.1c0-3.9,1.5-5.8,4.5-5.8c3,0,4.5,1.9,4.5,5.8v0
		c0,3.9-1.5,5.8-4.5,5.8C229,161.9,227.5,160,227.5,156.1L227.5,156.1z M231.1,172.4h2.6v10.9c0,0.3-0.2,0.5-0.5,0.5h-1
		c-0.3,0-0.5-0.2-0.5-0.5v-8l-1.4,2.7c-0.1,0.2-0.2,0.2-0.4,0.2c-0.1,0-0.3,0-0.4-0.1l-0.6-0.3c-0.3-0.2-0.5-0.3-0.5-0.5
		c0-0.1,0-0.1,0-0.2L231.1,172.4L231.1,172.4z M229.6,199.8c0,2.7,0.8,4.1,2.4,4.1c1.6,0,2.4-1.4,2.4-4.1c0-2.7-0.8-4.1-2.4-4.1
		C230.4,195.8,229.6,197.1,229.6,199.8L229.6,199.8z M227.5,199.8c0-3.9,1.5-5.8,4.5-5.8c3,0,4.5,1.9,4.5,5.8v0
		c0,3.9-1.5,5.8-4.5,5.8C229,205.6,227.5,203.7,227.5,199.8L227.5,199.8z M229.6,221.6c0,2.7,0.8,4.1,2.4,4.1c1.6,0,2.4-1.4,2.4-4.1
		c0-2.7-0.8-4.1-2.4-4.1C230.4,217.6,229.6,218.9,229.6,221.6L229.6,221.6z M227.5,221.6c0-3.9,1.5-5.8,4.5-5.8c3,0,4.5,1.9,4.5,5.8
		v0c0,3.9-1.5,5.8-4.5,5.8C229,227.4,227.5,225.5,227.5,221.6L227.5,221.6z M229.6,243.5c0,2.7,0.8,4.1,2.4,4.1
		c1.6,0,2.4-1.4,2.4-4.1c0-2.7-0.8-4.1-2.4-4.1C230.4,239.4,229.6,240.8,229.6,243.5L229.6,243.5z M227.5,243.5
		c0-3.9,1.5-5.8,4.5-5.8c3,0,4.5,1.9,4.5,5.8v0c0,3.9-1.5,5.8-4.5,5.8C229,249.3,227.5,247.3,227.5,243.5L227.5,243.5z M231.1,259.8
		h2.6v10.9c0,0.3-0.2,0.5-0.5,0.5h-1c-0.3,0-0.5-0.2-0.5-0.5v-8l-1.4,2.7c-0.1,0.2-0.2,0.2-0.4,0.2c-0.1,0-0.3,0-0.4-0.1l-0.6-0.3
		c-0.3-0.2-0.5-0.3-0.5-0.5c0-0.1,0-0.1,0-0.2L231.1,259.8L231.1,259.8z M229.6,287.1c0,2.7,0.8,4.1,2.4,4.1c1.6,0,2.4-1.4,2.4-4.1
		c0-2.7-0.8-4.1-2.4-4.1C230.4,283.1,229.6,284.4,229.6,287.1L229.6,287.1z M227.5,287.1c0-3.9,1.5-5.8,4.5-5.8c3,0,4.5,1.9,4.5,5.8
		v0c0,3.9-1.5,5.8-4.5,5.8C229,292.9,227.5,291,227.5,287.1z"/>
	<path class="st2" d="M245.7,112.5c0,2.7,0.8,4.1,2.4,4.1c1.6,0,2.4-1.4,2.4-4.1c0-2.7-0.8-4.1-2.4-4.1
		C246.5,108.4,245.7,109.8,245.7,112.5L245.7,112.5z M243.6,112.5c0-3,0.9-4.8,2.7-5.5c1.9,0.6,3.8,1.3,5.8,2.2
		c0.3,0.9,0.5,1.9,0.5,3.3v0c0,3.9-1.5,5.8-4.5,5.8C245.1,118.3,243.6,116.3,243.6,112.5L243.6,112.5z M245.7,134.3
		c0,2.7,0.8,4.1,2.4,4.1c1.6,0,2.4-1.4,2.4-4.1c0-2.7-0.8-4.1-2.4-4.1C246.5,130.3,245.7,131.6,245.7,134.3L245.7,134.3z
		 M243.6,134.3c0-3.9,1.5-5.8,4.5-5.8c3,0,4.5,1.9,4.5,5.8v0c0,3.9-1.5,5.8-4.5,5.8C245.1,140.1,243.6,138.2,243.6,134.3
		L243.6,134.3z M247.2,150.6h2.6v10.9c0,0.3-0.2,0.5-0.5,0.5h-1c-0.3,0-0.5-0.2-0.5-0.5v-8l-1.4,2.7c-0.1,0.2-0.2,0.2-0.4,0.2
		c-0.1,0-0.3,0-0.4-0.1L245,156c-0.3-0.2-0.5-0.3-0.5-0.5c0-0.1,0-0.1,0-0.2L247.2,150.6L247.2,150.6z M245.7,178
		c0,2.7,0.8,4.1,2.4,4.1c1.6,0,2.4-1.4,2.4-4.1c0-2.7-0.8-4.1-2.4-4.1C246.5,173.9,245.7,175.3,245.7,178L245.7,178z M243.6,178
		c0-3.9,1.5-5.8,4.5-5.8c3,0,4.5,1.9,4.5,5.8v0c0,3.9-1.5,5.8-4.5,5.8C245.1,183.8,243.6,181.8,243.6,178z"/>
	<path class="st2" d="M261.2,113.7c0.2,2,1,3,2.4,3c0.7,0,1.2-0.2,1.6-0.7c0.6,0.3,1.2,0.7,1.8,1c-0.7,0.9-1.9,1.4-3.3,1.4
		c-3,0-4.5-1.9-4.5-5.8v0C259.8,113,260.5,113.4,261.2,113.7L261.2,113.7z M262.7,128.9h2.6v10.9c0,0.3-0.2,0.5-0.5,0.5h-1
		c-0.3,0-0.5-0.2-0.5-0.5v-8l-1.4,2.7c-0.1,0.2-0.2,0.2-0.4,0.2c-0.1,0-0.3,0-0.4-0.1l-0.6-0.3c-0.3-0.2-0.5-0.3-0.5-0.5
		c0-0.1,0-0.1,0-0.2L262.7,128.9L262.7,128.9z M261.1,156.3c0,2.7,0.8,4.1,2.4,4.1c1.6,0,2.4-1.4,2.4-4.1c0-2.7-0.8-4.1-2.4-4.1
		C261.9,152.3,261.1,153.6,261.1,156.3L261.1,156.3z M259.1,156.3c0-3.9,1.5-5.8,4.5-5.8c3,0,4.5,1.9,4.5,5.8v0
		c0,3.9-1.5,5.8-4.5,5.8C260.6,162.1,259.1,160.2,259.1,156.3L259.1,156.3z M261.1,178.2c0,2.7,0.8,4.1,2.4,4.1
		c1.6,0,2.4-1.4,2.4-4.1c0-2.7-0.8-4.1-2.4-4.1C261.9,174.1,261.1,175.5,261.1,178.2L261.1,178.2z M259.1,178.1
		c0-3.9,1.5-5.8,4.5-5.8c3,0,4.5,1.9,4.5,5.8v0c0,3.9-1.5,5.8-4.5,5.8C260.6,183.9,259.1,182,259.1,178.1L259.1,178.1z M261.1,200
		c0,2.7,0.8,4.1,2.4,4.1c1.6,0,2.4-1.4,2.4-4.1c0-2.7-0.8-4.1-2.4-4.1C261.9,195.9,261.1,197.3,261.1,200L261.1,200z M259.1,200
		c0-3.9,1.5-5.8,4.5-5.8c3,0,4.5,1.9,4.5,5.8v0c0,3.9-1.5,5.8-4.5,5.8C260.6,205.8,259.1,203.8,259.1,200L259.1,200z M262.7,216.3
		h2.6v10.9c0,0.3-0.2,0.5-0.5,0.5h-1c-0.3,0-0.5-0.2-0.5-0.5v-8l-1.4,2.7c-0.1,0.2-0.2,0.2-0.4,0.2c-0.1,0-0.3,0-0.4-0.1l-0.6-0.3
		c-0.3-0.2-0.5-0.3-0.5-0.5c0-0.1,0-0.1,0-0.2L262.7,216.3L262.7,216.3z M261.1,243.7c0,2.7,0.8,4.1,2.4,4.1c1.6,0,2.4-1.4,2.4-4.1
		c0-2.7-0.8-4.1-2.4-4.1C261.9,239.6,261.1,241,261.1,243.7L261.1,243.7z M259.1,243.6c0-3.9,1.5-5.8,4.5-5.8c3,0,4.5,1.9,4.5,5.8v0
		c0,3.9-1.5,5.8-4.5,5.8C260.6,249.4,259.1,247.5,259.1,243.6z"/>
	<path class="st2" d="M276.2,129.5h2.6v10.9c0,0.3-0.2,0.5-0.5,0.5h-1c-0.3,0-0.5-0.2-0.5-0.5v-8l-1.4,2.7c-0.1,0.2-0.2,0.2-0.4,0.2
		c-0.1,0-0.3,0-0.4-0.1L274,135c-0.3-0.2-0.5-0.3-0.5-0.5c0-0.1,0-0.1,0-0.2L276.2,129.5L276.2,129.5z M274.6,156.9
		c0,2.7,0.8,4.1,2.4,4.1c1.6,0,2.4-1.4,2.4-4.1c0-2.7-0.8-4.1-2.4-4.1C275.4,152.9,274.6,154.2,274.6,156.9L274.6,156.9z
		 M272.6,156.9c0-3.9,1.5-5.8,4.5-5.8c3,0,4.5,1.9,4.5,5.8v0c0,3.9-1.5,5.8-4.5,5.8C274.1,162.7,272.6,160.8,272.6,156.9
		L272.6,156.9z M274.6,178.7c0,2.7,0.8,4.1,2.4,4.1c1.6,0,2.4-1.4,2.4-4.1c0-2.7-0.8-4.1-2.4-4.1C275.4,174.7,274.6,176,274.6,178.7
		L274.6,178.7z M272.6,178.7c0-3.9,1.5-5.8,4.5-5.8c3,0,4.5,1.9,4.5,5.8v0c0,3.9-1.5,5.8-4.5,5.8
		C274.1,184.5,272.6,182.6,272.6,178.7L272.6,178.7z M274.6,200.6c0,2.7,0.8,4.1,2.4,4.1c1.6,0,2.4-1.4,2.4-4.1
		c0-2.7-0.8-4.1-2.4-4.1C275.4,196.5,274.6,197.9,274.6,200.6L274.6,200.6z M272.6,200.6c0-3.9,1.5-5.8,4.5-5.8c3,0,4.5,1.9,4.5,5.8
		v0c0,3.9-1.5,5.8-4.5,5.8C274.1,206.4,272.6,204.4,272.6,200.6L272.6,200.6z M276.2,216.9h2.6v10.9c0,0.3-0.2,0.5-0.5,0.5h-1
		c-0.3,0-0.5-0.2-0.5-0.5v-8l-1.4,2.7c-0.1,0.2-0.2,0.2-0.4,0.2c-0.1,0-0.3,0-0.4-0.1l-0.6-0.3c-0.3-0.2-0.5-0.3-0.5-0.5
		c0-0.1,0-0.1,0-0.2L276.2,216.9L276.2,216.9z M274.6,244.2c0,2.7,0.8,4.1,2.4,4.1c1.6,0,2.4-1.4,2.4-4.1c0-2.7-0.8-4.1-2.4-4.1
		C275.4,240.2,274.6,241.5,274.6,244.2L274.6,244.2z M272.6,244.2c0-3.9,1.5-5.8,4.5-5.8c3,0,4.5,1.9,4.5,5.8v0
		c0,3.9-1.5,5.8-4.5,5.8C274.1,250,272.6,248.1,272.6,244.2z"/>
	<path class="st2" d="M290.7,135.1c0,2.7,0.8,4.1,2.4,4.1c1.6,0,2.4-1.4,2.4-4.1c0-0.3,0-0.6,0-0.9c0.7,0.4,1.4,0.8,2.2,1.1
		c-0.1,3.7-1.6,5.5-4.5,5.5c-3,0-4.5-1.9-4.5-5.8c0-1.8,0.3-3.2,1-4.1c0.6,0.3,1.2,0.7,1.7,1C290.9,132.6,290.7,133.7,290.7,135.1z"
		/>
	<path class="st2" d="M309.8,140.9c-0.4,0.1-0.8,0.1-1.2,0.1c-1.9,0-3.2-0.7-3.9-2.2C306.4,139.6,308.1,140.3,309.8,140.9
		L309.8,140.9z M306.2,157.1c0,2.7,0.8,4.1,2.4,4.1c1.6,0,2.4-1.4,2.4-4.1c0-2.7-0.8-4.1-2.4-4.1C307,153,306.2,154.4,306.2,157.1
		L306.2,157.1z M304.1,157.1c0-3.9,1.5-5.8,4.5-5.8c3,0,4.5,1.9,4.5,5.8v0c0,3.9-1.5,5.8-4.5,5.8
		C305.6,162.9,304.1,160.9,304.1,157.1L304.1,157.1z M307.7,173.4h2.6v10.9c0,0.3-0.2,0.5-0.5,0.5h-1c-0.3,0-0.5-0.2-0.5-0.5v-8
		l-1.4,2.7c-0.1,0.2-0.2,0.2-0.4,0.2c-0.1,0-0.3,0-0.4-0.1l-0.6-0.3c-0.3-0.2-0.5-0.3-0.5-0.5c0-0.1,0-0.1,0-0.2L307.7,173.4
		L307.7,173.4z M306.2,200.8c0,2.7,0.8,4.1,2.4,4.1c1.6,0,2.4-1.4,2.4-4.1c0-2.7-0.8-4.1-2.4-4.1C307,196.7,306.2,198.1,306.2,200.8
		L306.2,200.8z M304.1,200.8c0-3.9,1.5-5.8,4.5-5.8c3,0,4.5,1.9,4.5,5.8v0c0,3.9-1.5,5.8-4.5,5.8
		C305.6,206.5,304.1,204.6,304.1,200.8z"/>
	<path class="st2" d="M321,156.9c0,2.7,0.8,4.1,2.4,4.1c1.6,0,2.4-1.4,2.4-4.1c0-2.7-0.8-4.1-2.4-4.1
		C321.8,152.9,321,154.2,321,156.9L321,156.9z M318.9,156.9c0-3.9,1.5-5.8,4.5-5.8c3,0,4.5,1.9,4.5,5.8v0c0,3.9-1.5,5.8-4.5,5.8
		C320.4,162.7,318.9,160.8,318.9,156.9L318.9,156.9z M321,178.7c0,2.7,0.8,4.1,2.4,4.1c1.6,0,2.4-1.4,2.4-4.1c0-2.7-0.8-4.1-2.4-4.1
		C321.8,174.7,321,176,321,178.7L321,178.7z M318.9,178.7c0-3.9,1.5-5.8,4.5-5.8c3,0,4.5,1.9,4.5,5.8v0c0,3.9-1.5,5.8-4.5,5.8
		C320.4,184.5,318.9,182.6,318.9,178.7L318.9,178.7z M321,200.6c0,2.7,0.8,4.1,2.4,4.1c1.6,0,2.4-1.4,2.4-4.1c0-2.7-0.8-4.1-2.4-4.1
		C321.8,196.5,321,197.9,321,200.6L321,200.6z M318.9,200.6c0-3.9,1.5-5.8,4.5-5.8c1.5,0,2.6,0.5,3.3,1.4c-0.5,3.3-0.9,6.6-1.5,9.8
		c-0.5,0.2-1.2,0.3-1.9,0.3C320.4,206.4,318.9,204.4,318.9,200.6L318.9,200.6z M322.5,216.9h0.9c-0.2,1.2-0.5,2.4-0.7,3.7l-1,1.9
		c-0.1,0.2-0.2,0.2-0.4,0.2c-0.1,0-0.3,0-0.4-0.1l-0.6-0.3c-0.3-0.2-0.5-0.3-0.5-0.5c0-0.1,0-0.1,0-0.2L322.5,216.9z"/>
</g>
<path class="st3" d="M156.6,274.6c10.9,26.2,24.6,49.7,40,69.5c9.6,12.3,21.4,22.8,35,29.7c35-16.9,57.8-56,76.2-99.8l-156.5-14.4
	L156.6,274.6z"/>
<g>
	<path class="st4" d="M308,180.9c3.2,7.9,15.8,24,12.6,34.9l-4.7,1.3c-0.2,0.1-0.5,0.1-0.8,0.2c-0.2,0-0.6,0.1-0.7,0.2
		c-0.2,0-0.5,0.1-0.7,0.2c2.1,28.4-2.7,44.8-17.5,64.7c-3.9,5.3-4,2.4-8,4.5c-0.2,0.1-0.4,0.3-0.6,0.4c-2.4,1.6-10.4,16.8-39,30.7
		c-2.9,1.4-10.1,5.4-15.3,6.1c-5.1-0.6-12.4-4.7-15.3-6.1c-28.5-13.9-36.6-29.1-39-30.7c-0.2-0.1-0.4-0.3-0.6-0.4
		c-4-2.1-4.1,0.8-8-4.5c-14.8-19.9-19.6-36.3-17.5-64.7c-0.2-0.1-0.5-0.1-0.7-0.2c-0.2,0-0.5-0.1-0.7-0.2c-0.2,0-0.5-0.1-0.8-0.2
		l-4.7-1.3c-3.2-11,9.4-27.1,12.6-34.9c-2-2.2-9.3-12.5-6.9-17.6c2.3-4.8,1.5,2.1,4.1-8.5c1.9-8.1,6.1-8.3,7.8-11.5
		c2.7-5.2-1.3-5.7,12.6-4.5c5,0.5,6.5,0.7,10.6,2.4c6.7,2.9,14.3-2.5,20.2-2c9.8,0.8,2.5-0.6,8.9-1.7c8.5-1.4,9.6,7.7,17.4,6.1
		c7.8,1.6,8.9-7.5,17.4-6.1c6.4,1.1-0.9,2.5,8.9,1.7c5.9-0.5,13.5,4.9,20.2,2c4.1-1.8,5.6-2,10.6-2.4c13.9-1.3,9.9-0.8,12.6,4.5
		c1.7,3.2,5.9,3.4,7.8,11.5c2.5,10.6,1.8,3.6,4.1,8.5C317.2,168.3,310,178.7,308,180.9L308,180.9z M233.3,329.7
		c3.7-0.8,14.4-5.6,16.6-6.6c8.4-4.1,15-8,22.2-13.5c9-6.9,17.8-17.4,19.6-18.1c6.7-2.8,6.1-1.9,12.7-11.4
		c12-17.3,17.9-34.3,17.9-58c16.6-3.9-4.6-35-8.6-41.1c3.3-2.4,6.8-10.3,6.8-16.4c0-4.1-1.5-4.2-3-6.7c-4-6.5,1.9-3-8.8-16.3
		c-3.9-4.9-3.5-11.9-24.9-6.9c-18.9,4.4-11,0.1-21.3-0.1c-14.6-0.3-0.4-1.9-14.5-1.9c-4.3,0-12.2,5.8-12.6,5.8
		c-0.7,0-1.4-0.1-2.1-0.1c-0.7,0.1-1.4,0.1-2.1,0.1c-0.3,0-8.2-5.8-12.6-5.8c-14.1,0,0.1,1.6-14.5,1.9c-10.4,0.2-2.4,4.4-21.3,0.1
		c-21.4-4.9-20.9,2.1-24.9,6.9c-10.8,13.3-4.8,9.8-8.8,16.3c-1.5,2.4-3,2.6-3,6.7c0,6.2,3.4,14,6.8,16.4
		c-4.1,6.1-25.2,37.2-8.6,41.1c0,23.7,5.9,40.6,17.9,58c6.6,9.5,6,8.7,12.7,11.4c1.8,0.7,10.6,11.2,19.6,18.1
		c7.2,5.5,13.9,9.4,22.2,13.5C218.9,324.1,229.6,328.9,233.3,329.7z"/>
	<path class="st5" d="M247.1,148.4c5.1-1.7,8.5-4.8,15-4.2l-2.5,4.3l11.5-3c0.2,0.6,0.1,0.7,0.1,0.9l0,4c9-1.2,14.6-10.9,20-4.7
		c0.1,0.1,0.3,0.4,0.4,0.6c1.8-2.5,1.1-2.2,4.7-3.4l2,4.2c0.5,0.5,1.1,0.8,1.8,1.2c7.7,4.6,7.6,9.4,5.9,20.4l4.5-2.5
		c-1.1,6.6-4.9,10.6-9.1,14.2c4.8,9.4,12.6,17.5,15,31.7c-3.1-3.2-5.6-7.1-9.9-9.5c2.9,22.2,6,41.5-5.3,63.8
		c-3.1,6.1-7.1,10.1-9.4,14.7c-2.6-1.8-1.6-1.4-2.9-4.8c-8.6,12.3-10.5,16.9-23.4,26c-7.6,5.4-21.3,14.2-32.2,17.2
		c-10.9-2.9-24.6-11.8-32.2-17.2c-12.8-9.1-14.7-13.6-23.4-26c-1.3,3.4-0.3,3-2.9,4.8c-2.3-4.5-6.4-8.6-9.4-14.7
		c-11.3-22.3-8.2-41.6-5.3-63.8c-4.2,2.5-6.7,6.3-9.9,9.5c2.4-14.3,10.2-22.4,15-31.7c-4.2-3.6-8-7.6-9.1-14.2l4.5,2.5
		c-1.7-11-1.8-15.9,5.9-20.4c0.6-0.4,1.2-0.6,1.8-1.2l2-4.2c3.6,1.2,2.9,0.9,4.7,3.4c0.1-0.2,0.3-0.5,0.4-0.6c5.4-6.2,11,3.6,20,4.7
		l0-4c0-0.2-0.1-0.4,0.1-0.9l11.5,3l-2.5-4.3c6.4-0.6,9.9,2.5,15,4.2c-0.6-2.5-1.9-4.2-2.8-6.2c5.4,1,7.1,3.7,10.5,6.1
		c1.6,1.1,3.6,1,6.1,0.5c2.4,0.5,4.5,0.6,6.1-0.5c3.5-2.3,5.2-5.1,10.5-6.1C249,144.2,247.7,145.9,247.1,148.4L247.1,148.4z
		 M233.3,323.9c5.1-0.6,12.4-4.7,15.3-6.1c28.5-13.9,36.6-29.1,39-30.7c0.2-0.1,0.4-0.3,0.6-0.4c4-2.1,4.1,0.8,8-4.5
		c14.8-19.9,19.6-36.3,17.5-64.7c0.2-0.1,0.5-0.1,0.7-0.2c0.2,0,0.5-0.1,0.7-0.2c0.2,0,0.5-0.1,0.8-0.2l4.7-1.3
		c3.2-11-9.4-27.1-12.6-34.9c2-2.2,9.3-12.5,6.9-17.6c-2.3-4.8-1.5,2.1-4.1-8.5c-1.9-8.1-6.1-8.3-7.8-11.5
		c-2.7-5.2,1.3-5.7-12.6-4.5c-5,0.5-6.5,0.7-10.6,2.4c-6.7,2.9-14.3-2.5-20.2-2c-9.8,0.8-2.5-0.6-8.9-1.7c-8.5-1.4-9.6,7.7-17.4,6.1
		c-7.8,1.6-8.9-7.5-17.4-6.1c-6.4,1.1,0.9,2.5-8.9,1.7c-5.9-0.5-13.5,4.9-20.2,2c-4.1-1.8-5.6-2-10.6-2.4
		c-13.9-1.3-9.9-0.8-12.6,4.5c-1.7,3.2-5.9,3.4-7.8,11.5c-2.6,10.6-1.8,3.6-4.1,8.5c-2.4,5.1,4.9,15.4,6.9,17.6
		c-3.2,7.9-15.8,24-12.6,34.9l4.7,1.3c0.2,0.1,0.5,0.1,0.8,0.2c0.2,0,0.6,0.1,0.7,0.2c0.2,0,0.5,0.1,0.7,0.2
		c-2,28.4,2.7,44.8,17.5,64.7c3.9,5.3,4,2.4,8,4.5c0.2,0.1,0.4,0.3,0.6,0.4c2.4,1.6,10.4,16.8,39,30.7
		C220.9,319.3,228.2,323.3,233.3,323.9z"/>
	<linearGradient id="SVGID_1_" gradientUnits="userSpaceOnUse" x1="233.3205" y1="294.1348" x2="233.3205" y2="152.1858">
		<stop  offset="0" style="stop-color:#A87149"/>
		<stop  offset="0.2705" style="stop-color:#A06A41"/>
		<stop  offset="0.6855" style="stop-color:#8C582C"/>
		<stop  offset="1" style="stop-color:#784717"/>
	</linearGradient>
	<path class="st6" d="M233.3,197c0.9-2.7,1.4-5.5,1.5-7.9c2.2,4.4,2.5,7,3,12.6c1.5-2.7,3.4-4.7,6.5-6.8l-0.6,7.7
		c10.8-3,8.1-12.4,25.5-7.1l-7.1,4.4c4.4,3.2,10.5,2.6,16.2,1.9c-2.8,12-12,11.5-15.7,14.6l11.9,3.9c-7.3,7.4-9.3,3.9-13.2,7.4
		c8.1,6.2,7.3,22.4,7,33.3c18.2-18.7,15.2-39.6,15.7-56.7c7.2,15.6,4.6,34.8-1.1,50.3c-2.6,7-6.7,14.8-10.3,20.7
		c-2.2,3.7-3.9,6.3-6.1,9.4c-2.4,3.4-4.4,5.8-6.4,9.4c6.4-3.3,18.4-19.9,23.2-27.4c1.5-2.4,2.1-3.3,3.1-5.7c0.2-0.5,1.1-2.6,1.1-2.7
		l1.9-2.9l3.5,5c5.5-14.4,9.3-30.5,8.2-47.6c-0.9-14.3-5.3-30.9-19.7-35.5c3.1-1.9,7.3-1.3,11.5-0.6c-1.4-3.5-7.7-8.7-11.4-11.1
		c-6.2-3.8-11.2-4.1-18.9-5.4l6.7-2.3c-1.4-9.5-67.5-5.5-72.2,0l6.7,2.3c-7.7,1.2-12.7,1.5-18.9,5.4c-3.8,2.3-10,7.5-11.4,11.1
		c4.1-0.7,8.4-1.3,11.5,0.6c-14.4,4.6-18.8,21.2-19.7,35.5c-1.1,17.1,2.8,33.2,8.2,47.6l3.5-5l1.9,2.9c0,0.1,0.9,2.2,1.1,2.7
		c1,2.3,1.5,3.3,3.1,5.7c4.8,7.5,16.9,24.1,23.2,27.4c-2-3.6-4-6-6.4-9.4c-2.2-3.1-3.9-5.7-6.1-9.4c-3.5-5.9-7.7-13.6-10.3-20.7
		c-5.7-15.5-8.3-34.8-1.1-50.3c0.5,17.1-2.5,38,15.7,56.7c-0.3-10.9-1.1-27.1,7-33.3c-3.9-3.5-5.9-0.1-13.2-7.4l11.9-3.9
		c-3.7-3.1-12.9-2.7-15.7-14.6c5.7,0.7,11.8,1.3,16.2-1.9l-7.1-4.4c17.4-5.4,14.8,4.1,25.5,7.1l-0.6-7.7c3,2.1,5,4.1,6.5,6.8
		c0.5-5.6,0.8-8.2,3-12.6C232,191.5,232.4,194.3,233.3,197z"/>
	<path class="st7" d="M243.2,243.7c2.3,2.4,1.1,5.5-1.1,5.6c-2.8-3.6-6.9,1-1,2.9c2,0,3.6-0.7,4.2-1.7c4.9-8.1-3.7-12.4-12-12
		c-9.5,0.5-16,3.3-12,11.9c0.3,0.7,2,1.9,4.2,1.8c6-1.9,1.9-6.5-1-2.9c-2.1,0-3.3-3.1-1.1-5.6C227.4,239.3,239.2,239.3,243.2,243.7z
		"/>
	<path class="st8" d="M274.5,155.5c10.6,3.2,7.9,3.2,14.7,7.9c-0.4-1.9-0.4-2.3-1.3-4.1c-1.4-2.8-1.4-1.6-2.2-4.5
		c4.2-4.4,5.6-4.1,12.3-3.2l-12.9-2.9c-1.7,0.1-4.4,2.5-5.2,3.2C276.8,154.5,278.6,153.3,274.5,155.5z"/>
	<path class="st9" d="M221.8,274c0.5,7.3,4.1,12.7,11.5,12.9c7.4-0.2,11-5.6,11.5-12.9c-4.4,2.4-7.9,3.4-11.5,3.5
		C229.8,277.4,226.2,276.4,221.8,274L221.8,274z M243.2,243.7c2.3,2.4,1.1,5.5-1.1,5.6c-2.8-3.6-6.9,1-1,2.9c2,0,3.6-0.7,4.2-1.7
		c4.9-8.1-3.7-12.4-12-12c-9.5,0.5-16,3.3-12,11.9c0.3,0.7,2,1.9,4.2,1.8c6-1.9,1.9-6.5-1-2.9c-2.1,0-3.3-3.1-1.1-5.6
		C227.4,239.3,239.2,239.3,243.2,243.7L243.2,243.7z M233.3,319.1c-10.9-2.9-24.6-11.8-32.2-17.2c-12.8-9.1-14.7-13.6-23.4-26
		c-1.3,3.4-0.3,3-2.9,4.8c-2.3-4.5-6.4-8.6-9.4-14.7c-11.3-22.3-8.2-41.6-5.3-63.8c-4.2,2.5-6.7,6.3-9.9,9.5
		c2.4-14.3,10.2-22.4,15-31.7c-4.2-3.6-8-7.6-9.1-14.2l4.5,2.5c-1.7-11-1.8-15.9,5.9-20.4c0.6-0.4,1.2-0.6,1.8-1.2l2-4.2
		c3.6,1.2,2.9,0.9,4.7,3.4c0.1-0.2,0.3-0.5,0.4-0.6c5.4-6.2,11,3.6,20,4.7l0-4c0-0.2-0.1-0.4,0.1-0.9l11.5,3l-2.5-4.3
		c6.4-0.6,9.9,2.5,15,4.2c-0.6-2.5-1.9-4.2-2.8-6.2c5.4,1,7.1,3.7,10.5,6c1.6,1.1,3.6,1,6.1,0.5c2.4,0.5,4.5,0.6,6.1-0.5
		c3.5-2.3,5.2-5.1,10.5-6c-1,2-2.2,3.8-2.8,6.2c5.1-1.7,8.5-4.8,15-4.2l-2.5,4.3l11.5-3c0.2,0.6,0.1,0.7,0.1,0.9l0,4
		c9-1.2,14.6-10.9,20-4.7c0.1,0.1,0.3,0.4,0.4,0.6c1.8-2.5,1.1-2.2,4.7-3.4l2,4.2c0.5,0.5,1.1,0.8,1.8,1.2c7.7,4.6,7.6,9.4,5.9,20.4
		l4.5-2.5c-1.1,6.6-4.9,10.6-9.1,14.2c4.8,9.4,12.6,17.5,15,31.7c-3.1-3.2-5.6-7.1-9.9-9.5c2.9,22.2,6,41.5-5.3,63.8
		c-3.1,6.1-7.1,10.1-9.4,14.7c-2.6-1.8-1.6-1.4-2.9-4.8c-8.6,12.3-10.5,16.9-23.4,26C257.9,307.4,244.3,316.2,233.3,319.1
		L233.3,319.1z M221.2,180.4c-2.8-29.4,42-27.9,48.2-22.4l-6.7,2.3c7.7,1.2,12.7,1.5,18.9,5.4c3.8,2.3,10,7.5,11.4,11.1
		c-4.1-0.7-8.4-1.3-11.5,0.6c14.4,4.6,18.8,21.2,19.7,35.5c1.1,17.1-2.8,33.2-8.2,47.6l-3.5-5l-1.9,2.9c0,0.1-0.9,2.2-1.1,2.7
		c-1,2.3-1.5,3.3-3.1,5.7c-4.8,7.5-16.9,24.1-23.2,27.4c2-3.6,4-6,6.4-9.4c2.2-3.1,3.9-5.7,6.1-9.4c3.5-5.9,7.7-13.6,10.3-20.7
		c5.7-15.5,8.3-34.8,1.1-50.3c-0.5,17.1,2.5,38-15.7,56.7c0.3-10.9,1.1-27.1-7-33.3c3.9-3.5,5.9-0.1,13.2-7.4l-11.9-3.9
		c3.7-3.1,12.9-2.7,15.7-14.6c-5.7,0.7-11.8,1.3-16.2-1.9l7.1-4.4c-17.4-5.4-14.8,4.1-25.5,7.1l0.6-7.7c-3,2.1-5,4.1-6.5,6.8
		c-0.5-5.6-0.8-8.2-3-12.6c-0.2,2.5-0.6,5.3-1.5,7.9c-0.9-2.7-1.4-5.5-1.5-7.9c-2.2,4.4-2.5,7-3,12.6c-1.5-2.7-3.4-4.7-6.5-6.8
		l0.6,7.7c-10.8-3-8.1-12.4-25.5-7.1l7.1,4.4c-4.4,3.2-10.5,2.6-16.2,1.9c2.8,12,12,11.5,15.7,14.6l-11.9,3.9
		c7.3,7.4,9.3,3.9,13.2,7.4c-8.1,6.2-7.3,22.4-7,33.3c-18.2-18.7-15.2-39.6-15.7-56.7c-7.2,15.6-4.6,34.8,1.1,50.3
		c2.6,7,6.7,14.8,10.3,20.7c2.2,3.7,3.9,6.3,6.1,9.4c2.4,3.4,4.4,5.8,6.4,9.4c-6.4-3.3-18.4-19.9-23.2-27.4
		c-1.5-2.4-2.1-3.3-3.1-5.7c-0.2-0.5-1.1-2.6-1.1-2.7l-1.9-2.9l-3.5,5c-5.5-14.4-9.3-30.5-8.2-47.6c0.9-14.3,5.3-30.9,19.7-35.5
		c-3.1-1.9-7.3-1.3-11.5-0.6c1.4-3.5,7.7-8.7,11.4-11.1c6.2-3.8,11.2-4.1,18.9-5.4l-6.7-2.3C221.8,153.3,208.6,164,221.2,180.4
		L221.2,180.4z M233.3,204.9c0,0,0.1-0.1,0.1-0.1c1,3.2,2,6.9,2.5,11.2l3.1-6c0.1,0.2,0.2,0.5,0.3,0.7c0.1,0.3,0.5,1.1,0.6,1.4
		c0.6,1.3,0,0.7,1,2.4c1.9-1.8,2.9-2.7,4-6c3.7,1.7,4.3,3.2,9,1.8c7.8-2.4,4.7-0.8,9.2-1.8c-1.5,4.5-7.3,5.1-12.4,5.4
		c1.6,1.7,5.2,4.1,7.3,5.7c-5.9-0.3-8.4-1.3-12.8-3.5c-2.4,4.9-3,8.4-0.6,13.8l2.4-6.5l3.6,5.7c0.1-0.2,0.4,0.4,1,0.5l-2.6-8.7
		c7.5,3.8,8.9,15.7,7.6,26.8c-1.3,11.2-5.4,19.2-18.1,14.4c1.2-8.8,14-6.7,14-16.2c0-9.3-5.5-10-14.2-14.3c-1.6,1.6-2.5,3.2-4.9,4.3
		l-0.1,0.1l-0.1-0.1c-2.4-1.1-3.3-2.7-4.9-4.3c-8.7,4.3-14.1,5-14.2,14.3c0,9.6,12.8,7.5,14,16.2c-12.8,4.8-16.8-3.2-18.1-14.4
		c-1.3-11.1,0.1-23,7.6-26.8l-2.6,8.7c0.7-0.1,1-0.7,1-0.5l3.6-5.7l2.4,6.5c2.4-5.5,1.8-9-0.6-13.8c-4.3,2.2-6.9,3.2-12.8,3.5
		c2.1-1.6,5.7-4,7.3-5.7c-5.1-0.2-10.9-0.9-12.4-5.4c4.5,1,1.4-0.6,9.2,1.8c4.6,1.5,5.3-0.1,9-1.8c1.2,3.3,2.1,4.2,4,6
		c1-1.7,0.4-1,1-2.4c0.1-0.3,0.4-1.1,0.6-1.4c0.1-0.2,0.2-0.5,0.3-0.7l3.1,6c0.5-4.2,1.5-8,2.5-11.2
		C233.2,204.9,233.3,204.9,233.3,204.9L233.3,204.9z M233.3,270.9c2.4-0.1,4.9-0.3,7.5-0.8l2,2.3c-3.6,1.6-6.5,2.3-9.4,2.3
		c-2.9,0-5.8-0.7-9.4-2.3l2-2.3C228.4,270.6,230.9,270.8,233.3,270.9L233.3,270.9z M274.5,155.5c10.6,3.2,7.9,3.2,14.7,7.9
		c-0.4-1.9-0.4-2.3-1.3-4.1c-1.4-2.8-1.4-1.6-2.2-4.5c4.2-4.4,5.6-4.1,12.3-3.2l-12.9-2.9c-1.7,0.1-4.4,2.5-5.2,3.2
		C276.8,154.5,278.6,153.3,274.5,155.5L274.5,155.5z M192.2,155.5c-4.1-2.2-2.3-1-5.4-3.6c-0.8-0.7-3.6-3.1-5.2-3.2l-12.9,2.9
		c6.7-0.9,8.1-1.2,12.3,3.2c-0.8,2.9-0.8,1.7-2.2,4.5c-0.9,1.8-0.9,2.2-1.3,4.1C184.2,158.7,181.5,158.7,192.2,155.5z"/>
	<path class="st10" d="M233.2,235.7c-2.4-1.1-3.3-2.7-4.9-4.3c-8.7,4.3-14.1,5-14.2,14.3c0,9.6,12.8,7.5,14,16.2
		c-12.8,4.8-16.8-3.2-18.1-14.4c-1.3-11.1,0.1-23,7.6-26.8l-2.6,8.7c0.7-0.1,1-0.7,1-0.5l3.6-5.7l2.4,6.5c2.4-5.5,1.8-9-0.6-13.8
		c-4.3,2.2-6.9,3.2-12.8,3.5c2.1-1.6,5.7-4,7.3-5.7c-5.1-0.2-10.9-0.9-12.4-5.4c4.5,1,1.4-0.6,9.2,1.8c4.6,1.5,5.3-0.1,9-1.8
		c1.2,3.3,2.1,4.2,4,6c1-1.7,0.4-1,1-2.4c0.1-0.3,0.4-1.1,0.6-1.4c0.1-0.2,0.2-0.5,0.3-0.7l3.1,6c0.5-4.2,1.5-8,2.5-11.2
		c0,0.1,0.1,0.1,0.1,0.1c0,0,0.1-0.1,0.1-0.1c1,3.2,2,6.9,2.5,11.2l3.1-6c0.1,0.2,0.2,0.5,0.3,0.7c0.1,0.3,0.5,1.1,0.6,1.4
		c0.6,1.3,0,0.7,1,2.4c1.9-1.8,2.9-2.7,4-6c3.7,1.7,4.3,3.2,9,1.8c7.8-2.4,4.7-0.8,9.2-1.8c-1.5,4.5-7.3,5.1-12.4,5.4
		c1.6,1.7,5.2,4.1,7.3,5.7c-5.9-0.3-8.4-1.3-12.8-3.5c-2.4,4.9-3,8.4-0.6,13.8l2.4-6.5l3.6,5.7c0.1-0.2,0.4,0.4,1,0.5l-2.6-8.7
		c7.5,3.8,8.9,15.7,7.6,26.8c-1.3,11.2-5.4,19.2-18.1,14.4c1.2-8.8,14-6.7,14-16.2c0-9.3-5.5-10-14.2-14.3c-1.6,1.6-2.5,3.2-4.9,4.3
		l-0.1,0.1L233.2,235.7z"/>
	<path class="st10" d="M221.8,274c4.4,2.4,7.9,3.4,11.5,3.5c3.5,0,7.1-1.1,11.5-3.5c-0.5,7.3-4.1,12.7-11.5,12.9
		C225.9,286.6,222.4,281.3,221.8,274z"/>
	<path class="st8" d="M192.2,155.5c-10.6,3.2-7.9,3.2-14.7,7.9c0.4-1.9,0.4-2.3,1.3-4.1c1.4-2.8,1.4-1.6,2.2-4.5
		c-4.2-4.4-5.6-4.1-12.3-3.2l12.9-2.9c1.7,0.1,4.4,2.5,5.2,3.2C189.9,154.5,188.1,153.3,192.2,155.5z"/>
	<path class="st11" d="M225.8,265.1l2.2,5c1.8,0.3,3.5,0.4,5.3,0.5c1.7-0.1,3.5-0.2,5.3-0.5l2.2-5l1.9,7.2c-3.6,1.6-6.5,2.3-9.4,2.3
		c-2.9,0-5.8-0.7-9.4-2.3L225.8,265.1z"/>
	<ellipse class="st11" cx="217" cy="206.5" rx="2.4" ry="2"/>
	<ellipse class="st11" cx="249.2" cy="206.5" rx="2.4" ry="2"/>
</g>
<path class="st12" d="M229.5,302.1c4.5,1.2,9.4,2.6,14.6,3.9l0-0.1l49.4,11.6c1.6,0.5,5.1-7.7,5.7-8.7c0,0,17.4-0.6,22.3,9
	c0.6,1.4,1,3.2,0.4,4.2l-0.5,1.4L309.9,355l0,0.1c-0.2,0.5-0.5,1.4-0.8,2.3c-1.2,3.5-2.4,7-5.4,9.2l-0.6,0.4l-0.7,0.1
	c-9.8,2.1-37.8-6-56.7-11.5c-5.8-1.7-10.8-3.1-13.9-3.9c-8.4-2.1-17.9-4.4-27.5-5.8c-4.1-0.6-8.2-1-12.3-1.1c-1.5,2-0.6,6.1,3.8,8.4
	c1.9,1-0.1,2.7,1.8,6c-8.1-1-11-1.8-19.6-0.5c-5.3,0.9-11.7,2-15.4-1.4l-19.2-42.6l0,0l0.2,0c-0.9-2.2-1.5-4.2-1.6-6.1
	c-0.1-3.2,1.1-5.9,4.4-8.2c8.3-6,19.1-8,30.2-8c10.8,0.1,21.9,2.1,31.2,4.2C212.4,297.5,220.1,299.6,229.5,302.1z"/>
<linearGradient id="SVGID_2_" gradientUnits="userSpaceOnUse" x1="223.4907" y1="362.0173" x2="233.7261" y2="303.9696">
	<stop  offset="0" style="stop-color:#383838"/>
	<stop  offset="0.4793" style="stop-color:#262626"/>
	<stop  offset="1" style="stop-color:#0D0D0D"/>
</linearGradient>
<path class="st13" d="M318.3,322.4c-14.4,5.4-92.1-18.5-111.2-22.8c-18.4-4.2-43.5-7.9-58.9,3.2c-4.6,3.3-3.3,7.3-0.7,12.8l16,35.8
	c-0.5-7.8,10.2-8.2,12.7-8.8c17.7-3.4,39.5,1.7,56.4,5.9c13.8,3.4,57.4,18,69.2,15.4c2.8-2.1,3.7-6.4,5.1-10.1L318.3,322.4z"/>
<linearGradient id="SVGID_3_" gradientUnits="userSpaceOnUse" x1="165.4381" y1="350.504" x2="191.8886" y2="350.504">
	<stop  offset="0" style="stop-color:#0D0D0D"/>
	<stop  offset="1" style="stop-color:#1F1F1F"/>
</linearGradient>
<path class="st14" d="M188.1,344.6c-5.7-0.1-25.1,1.1-22.4,9.2c2.1,6.3,16.8-1,26.2,1.8C187.7,352.2,186.3,347.8,188.1,344.6z"/>
<linearGradient id="SVGID_4_" gradientUnits="userSpaceOnUse" x1="298.0118" y1="316.039" x2="318.6449" y2="316.039">
	<stop  offset="0" style="stop-color:#1F1F1F"/>
	<stop  offset="1" style="stop-color:#0D0D0D"/>
</linearGradient>
<path class="st15" d="M318.6,319.5c-3-6-8.1-7.5-17.7-7.5l-3,6.3C303.3,320.3,315.6,320.6,318.6,319.5z"/>
<linearGradient id="SVGID_5_" gradientUnits="userSpaceOnUse" x1="227.8979" y1="347.6074" x2="234.2743" y2="311.445">
	<stop  offset="0" style="stop-color:#FFC742"/>
	<stop  offset="0.3336" style="stop-color:#FFB530"/>
	<stop  offset="1" style="stop-color:#FF8500"/>
</linearGradient>
<path class="st16" d="M181.7,323.3c1.2-1.3,2.4-2.6,3.6-4c-0.2-1.5-0.3-3.1-0.5-4.6c-0.2-1.5-0.4-3.1-0.6-4.6
	c-1.7-1.5-3.3-2.9-5-4.4c-2.8,0.3-5.6,0.7-8.3,1c-2.8,0.4-5.5,0.8-8.3,1.2c0.4,2.5,0.9,5,1.3,7.5c0.5,2.5,0.9,4.9,1.4,7.3
	c0.4,2.4,0.9,4.8,1.3,7.1c0.4,2.3,0.8,4.7,1.1,7c1.2-0.4,2.3-0.7,3.5-1c1.2-0.3,2.3-0.5,3.5-0.7c-0.2-1.5-0.4-3-0.7-4.5
	c-0.2-1.5-0.4-3-0.7-4.5c0.4-0.1,0.9-0.1,1.3-0.2c1.1,1.4,2.2,2.7,3.2,4.1c1.1,1.4,2.1,2.9,3.2,4.3c1.4-0.1,2.7-0.1,4.1-0.1
	c1.4,0,2.7,0,4.1,0.1c-1.2-2-2.5-3.9-3.7-5.8C184.3,326.8,183,325.1,181.7,323.3L181.7,323.3z M177.1,319c-1.6,0.2-3.1,0.5-4.7,0.7
	c-0.4-2.2-0.8-4.4-1.1-6.7c1.6-0.2,3.2-0.5,4.8-0.7C176.4,314.5,176.7,316.8,177.1,319z M191,310.3c1.5-1.7,2.9-3.4,4.4-5.1
	c2,0.2,4,0.5,5.9,0.7c2,0.2,4,0.5,5.9,0.7c1.2,1.8,2.4,3.6,3.5,5.4c-0.2,1.5-0.3,3.1-0.5,4.6c-0.2,1.5-0.3,3.1-0.5,4.6
	c-0.2,1.5-0.3,3.1-0.4,4.6c-0.1,1.5-0.3,3.1-0.4,4.6c-1.5,1.7-2.9,3.4-4.3,5.1c-1.9-0.2-3.9-0.4-5.8-0.6c-1.9-0.2-3.9-0.4-5.8-0.6
	c-1.2-1.8-2.4-3.6-3.5-5.4c0.1-1.6,0.2-3.1,0.3-4.7c0.1-1.6,0.2-3.1,0.3-4.7c0.1-1.6,0.2-3.1,0.3-4.7
	C190.7,313.4,190.8,311.9,191,310.3L191,310.3z M202.5,328.6c0.1-1.3,0.2-2.6,0.3-3.9c0.1-1.3,0.2-2.6,0.3-3.9
	c0.1-1.3,0.2-2.6,0.4-3.9c0.1-1.3,0.2-2.6,0.4-3.9c-1-0.1-2.1-0.2-3.1-0.4c-1-0.1-2.1-0.2-3.1-0.4c-0.1,1.3-0.2,2.6-0.3,3.9
	c-0.1,1.3-0.2,2.6-0.3,3.9c-0.1,1.3-0.2,2.6-0.3,3.9c-0.1,1.3-0.2,2.6-0.3,3.9c1,0.1,2.1,0.2,3.1,0.3
	C200.4,328.4,201.5,328.5,202.5,328.6z M292.3,340.8c-0.5,1.9-1,3.7-1.4,5.6c0.5-3.5,1.1-6.9,1.6-10.4c-1.6-0.4-3.2-0.8-4.8-1.2
	c-1.7,3.2-3.4,6.3-5.1,9.5c0.8-1.8,1.5-3.6,2.3-5.4c0.9-3.7,1.8-7.4,2.8-11c-2.1-0.5-4.1-1-6.1-1.5c-1,4.5-2,8.9-3,13.4
	c-1,4.4-2,8.9-3,13.3c2.1,0.5,4.3,1.1,6.4,1.6c1.6-2.9,3.1-5.8,4.7-8.8c-0.5,3.2-1,6.4-1.4,9.6c2.2,0.5,4.3,1.1,6.5,1.6
	c1.9-4.2,3.8-8.5,5.7-12.7c1.9-4.2,3.8-8.5,5.7-12.7c-2.1-0.5-4.1-1-6.2-1.5C295.3,333.7,293.8,337.3,292.3,340.8z M260.6,335
	c-1.2,4.5-2.3,9-3.5,13.5c4.4,1.2,8.7,2.4,13.1,3.6c0.8-1.8,1.6-3.7,2.4-5.5c-2.6-0.7-5.3-1.4-7.9-2.2c0.5-1.9,1-3.8,1.5-5.7
	c2.3,0.6,4.6,1.3,7,1.9c0.8-1.8,1.6-3.6,2.4-5.5c-2.6-0.7-5.3-1.4-7.9-2.2c0.3-1.3,0.7-2.7,1-4c2.3,0.6,4.6,1.3,7,1.9
	c0.8-1.8,1.6-3.7,2.4-5.5c-4.7-1.3-9.4-2.6-14-3.8C263,326,261.8,330.5,260.6,335z M253.2,336.1c0.9,4,1.8,8,2.6,11.9
	c-2.4-0.7-4.8-1.4-7.2-2.2c-0.7-3.3-1.3-6.6-2-9.9c-0.4-0.1-0.8-0.2-1.1-0.3c-0.8,2.9-1.6,5.7-2.4,8.6c-2-0.6-4.1-1.2-6.1-1.8
	c1.3-4.5,2.5-8.9,3.8-13.4c1.3-4.5,2.5-8.9,3.8-13.4c4.4,1.3,8.9,2.7,13.3,4c0.7,1.9,1.4,3.7,2.1,5.6c-0.8,2.9-1.6,5.7-2.4,8.6
	C256.1,334.5,254.6,335.3,253.2,336.1L253.2,336.1z M251.1,330.6c-1.3-0.4-2.6-0.8-3.9-1.2c0.6-2.1,1.2-4.2,1.8-6.3
	c1.3,0.4,2.6,0.8,3.9,1.2C252.3,326.4,251.7,328.5,251.1,330.6z M223.7,323.8c-0.8,2.9-1.6,5.7-2.3,8.6c0.7,2,1.3,4.1,2,6.1
	c3.8,1.1,7.6,2.2,11.3,3.3c0.9-2,1.7-4,2.6-6c-2.8-0.8-5.6-1.6-8.4-2.4c0.7-2.5,1.4-5,2-7.4c0.7-2.5,1.4-5,2-7.4
	c2.5,0.7,5,1.4,7.5,2.1c0.8-1.8,1.7-3.6,2.5-5.5c-4.1-1.2-8.2-2.3-12.3-3.5c-1.6,1.2-3.1,2.4-4.6,3.6
	C225.3,318.1,224.5,321,223.7,323.8z"/>
<g>
	<path class="st0" d="M145.2,307.8c2.9-5.7,19.1-10.4,14.7-8.7c-4.4,1.6-12.5,7.5-13.2,14.5C145.7,311.4,145.2,309.5,145.2,307.8z"
		/>
	<path class="st0" d="M147.2,314.8c1.3-5.6,13.3-9.8,10-8.3c-3.2,1.5-8.5,7.2-7.9,13l-1.7-3.9C147.5,315.3,147.3,315.1,147.2,314.8z
		"/>
	<path class="st0" d="M149.8,320.5c0.7-3.9,8.7-8.3,6.6-6.9c-2.2,1.5-5.9,6.3-5.1,10.1l-0.4-0.8L149.8,320.5z"/>
</g>
<g>
	<path class="st0" d="M302.3,364.3c-5.3,1.8-18.3-5.1-14.5-3.4c3.7,1.6,12.4,2.9,17.1-1.1C304.1,361.7,303.3,363.3,302.3,364.3z"/>
	<path class="st0" d="M305.3,358.7c-4.2,2.8-14.3-1.9-11.4-0.9c2.9,1,9.7,0.6,12.9-3.4l-1.3,3.5
		C305.4,358.2,305.4,358.4,305.3,358.7z"/>
	<path class="st0" d="M307.1,353.5c-2.8,2-10.5-0.1-8.3,0.4c2.3,0.4,7.5-0.4,9.3-3.3l-0.2,0.7L307.1,353.5z"/>
</g>
</svg>
