<?xml version="1.0" encoding="UTF-8"?>
<svg width="196px" height="41px" viewBox="0 0 196 41" version="1.1" xmlns="http://www.w3.org/2000/svg" xmlns:xlink="http://www.w3.org/1999/xlink">
    <title>logotype_white_borders</title>
    <g id="Page-1" stroke="none" stroke-width="1" fill="none" fill-rule="evenodd">
        <g id="logotype_white">
            <path d="M37.5139,12.3407 C37.2292,11.5957 36.9369,10.9134 36.6132,10.2493 C36.2877,9.58453 35.9279,8.93316 35.5077,8.2527 C34.8561,7.25149 34.1975,6.35274 33.4358,5.54828 C32.6778,4.74732 31.8173,4.03891 30.7604,3.41665 C29.7519,2.87705 28.8193,2.4789 27.8552,2.17679 C26.8912,1.87526 25.8923,1.6692 24.7525,1.51553 C23.5659,1.38747 22.5043,1.34498 21.4509,1.39737 C20.3993,1.44975 19.3512,1.59702 18.1913,1.84616 C16.6077,2.23209 15.1868,2.74491 13.9115,3.45914 C12.6385,4.17221 11.507,5.08901 10.5004,6.28463 C10.2453,6.58616 10.0364,6.83995 9.82869,7.09142 C9.38485,7.62927 8.9558,8.14908 8.58475,8.55306 C8.37821,8.77949 8.18884,8.96867 8.02669,9.10314 C7.84323,9.25506 7.68108,9.34529 7.54674,9.35169 L7.46212,9.35635 L7.40826,9.29057 C7.29346,9.1497 7.25854,8.96518 7.28872,8.74806 C7.31772,8.54374 7.40649,8.30508 7.53964,8.04663 C7.71185,7.71309 7.961,7.33822 8.25512,6.94938 C8.58711,6.51048 8.97533,6.05412 9.37242,5.62046 C10.5442,4.34102 11.7923,3.31711 13.1853,2.49578 C14.5772,1.67502 16.1123,1.058 17.8587,0.591746 L17.864,0.591164 C19.1056,0.297788 20.23,0.117921 21.3627,0.0422485 C22.4948,-0.0334238 23.6376,-0.00606536 24.9158,0.113264 L24.9206,0.113264 C26.1681,0.262862 27.2646,0.474745 28.3287,0.793733 C29.3933,1.1133 30.4213,1.53881 31.5321,2.11742 L31.538,2.12033 C32.7399,2.80778 33.7152,3.58197 34.5739,4.46384 C35.4308,5.34339 36.1717,6.32829 36.9085,7.44009 L36.9103,7.44358 C37.3665,8.16713 37.7577,8.85807 38.111,9.56357 C38.4637,10.2691 38.7815,10.9938 39.091,11.7819 L39.0922,11.7843 C39.3236,12.3966 39.5248,12.9869 39.7041,13.5829 C39.8828,14.1773 40.0408,14.7791 40.1858,15.4165 L40.187,15.4189 C40.5149,16.9806 40.7084,18.3945 40.7528,19.8131 C40.7971,21.2317 40.6924,22.6537 40.4231,24.2318 L40.4219,24.2376 C40.0935,25.8122 39.6698,27.1556 39.0484,28.4095 C38.4258,29.6639 37.605,30.8269 36.483,32.0382 L36.4788,32.0423 C35.4391,33.0907 34.4543,33.9964 33.3997,34.8265 C32.3464,35.656 31.2255,36.4075 29.9147,37.149 L29.9105,37.1514 C28.6879,37.8022 27.5724,38.3039 26.4107,38.6881 C25.2502,39.0723 24.0465,39.3395 22.6475,39.5211 L22.6428,39.5217 C21.2171,39.6631 19.9667,39.6748 18.7286,39.5513 C17.4906,39.4274 16.2674,39.1695 14.8956,38.7713 L14.8909,38.7702 C13.3351,38.2713 11.9982,37.709 10.7241,37.0367 C9.45172,36.365 8.24151,35.5838 6.93661,34.6472 L6.93128,34.6437 C5.53702,33.568 4.46292,32.4806 3.57819,31.267 C2.69405,30.0545 1.99988,28.7162 1.36489,27.137 L1.36311,27.1312 C0.76067,25.4542 0.376597,23.9221 0.174796,22.3679 C-0.0275964,20.8143 -0.0465337,19.2426 0.0783343,17.4876 L0.0795178,17.4812 C0.347599,14.9677 0.872519,12.6242 1.7892,10.4484 C2.70707,8.26899 4.01789,6.25786 5.85777,4.40912 C6.84369,3.41898 8.0474,2.33279 9.09901,1.65989 C9.93876,1.12262 10.698,0.845539 11.2082,1.07256 L11.3147,1.11912 L11.3064,1.23321 C11.3028,1.28968 11.049,1.56501 10.646,1.9975 C9.85591,2.84562 8.45041,4.35266 7.3118,5.59601 C5.61454,7.44882 4.41972,9.22188 3.58352,11.1486 C2.74672,13.0771 2.265,15.1633 1.99574,17.6436 C1.87738,19.2619 1.89158,20.7101 2.07267,22.1397 C2.25376,23.567 2.60232,24.9769 3.1521,26.5177 C3.71608,27.9287 4.32976,29.126 5.11152,30.2093 C5.89209,31.2914 6.84251,32.2629 8.08113,33.2228 C9.29134,34.096 10.4152,34.8265 11.5952,35.454 C12.7752,36.0821 14.0138,36.6089 15.456,37.0757 C16.6911,37.4372 17.7907,37.6735 18.9003,37.7876 C20.0116,37.9023 21.136,37.8953 22.4214,37.7713 C23.6867,37.6101 24.775,37.3702 25.8248,37.0251 C26.8747,36.6799 27.8884,36.2258 29.0039,35.6368 C30.2313,34.9476 31.2817,34.2461 32.2694,33.4725 C33.2577,32.6983 34.1845,31.8508 35.1633,30.8694 C36.1693,29.7919 36.902,28.7564 37.4571,27.6423 C38.0122,26.5276 38.3921,25.329 38.6927,23.9221 C38.9496,22.4593 39.0519,21.1403 39.0164,19.8259 C38.9815,18.5133 38.8075,17.1989 38.5116,15.7443 C38.3797,15.1482 38.2359,14.5836 38.0719,14.0247 C37.9104,13.47 37.7263,12.917 37.5139,12.3407 Z" id="Path" fill="#EB0029"></path>
            <path d="M17.8057,9.2507 C17.7969,9.38544 17.7892,9.50152 17.7887,9.57326 C17.7646,11.0321 17.7575,12.3871 17.7511,13.7445 L17.7399,15.6519 C19.2221,15.1549 20.6744,14.6626 21.8131,14.2683 C22.7265,13.9516 23.4386,13.6967 23.8002,13.5532 C23.806,13.3385 23.8043,13.0049 23.8031,12.5983 C23.7943,10.6226 23.7784,7.00438 24.656,6.91863 C24.8896,6.8953 25.0387,6.89822 25.1608,7.11521 C25.2477,7.26803 25.2941,7.54569 25.334,8.07183 C25.381,8.69247 25.405,9.5126 25.415,10.3251 C25.4297,11.4853 25.4162,12.6251 25.405,13.1414 C25.8224,13.0264 26.3425,12.8672 26.8696,12.7056 C27.3451,12.5604 27.827,12.4122 28.225,12.2996 C28.539,12.2098 29.0198,12.0844 29.4407,12.0377 C29.9291,11.9847 30.3458,12.043 30.4257,12.3737 C30.5806,13.0177 30.3505,13.0935 29.7853,13.279 L29.7101,13.3035 C29.0644,13.5182 28.3031,13.7095 27.5335,13.9026 C26.7945,14.0869 26.0478,14.2741 25.4044,14.4812 C25.317,16.2189 25.2618,17.6305 25.2283,18.8694 C25.1961,20.0506 25.1831,21.0761 25.179,22.077 C26.4945,21.6477 27.6409,21.2779 28.5062,21.0143 C29.4377,20.7308 30.0388,20.5814 30.1662,20.631 C30.2713,20.6719 30.3529,20.7424 30.4057,20.8305 C30.4644,20.9262 30.4897,21.0423 30.4773,21.1624 C30.4656,21.275 30.421,21.3928 30.3406,21.499 C30.2384,21.6331 30.0788,21.7516 29.8575,21.821 C29.4078,21.9621 28.7756,22.1669 27.9743,22.4299 C27.1068,22.7152 26.1893,23.0197 25.1784,23.3556 L25.1872,26.1876 C25.1902,27.6511 25.1919,28.6095 25.4772,30.1401 C25.5083,30.3063 25.5218,30.7152 25.4702,31.1422 C25.4332,31.4514 25.3622,31.7751 25.2407,32.0364 C25.1062,32.3263 24.9072,32.5416 24.6226,32.5947 C24.5521,32.6069 24.4776,32.6098 24.4007,32.6005 C23.3875,32.4797 23.4286,30.8914 23.445,30.2387 L23.448,30.1197 C23.4714,28.6643 23.4785,27.258 23.4849,25.8662 L23.4961,23.9168 C22.0157,24.4126 20.5652,24.9037 19.427,25.2986 C18.5101,25.6165 17.7963,25.8715 17.4347,26.0155 C17.3954,26.7668 17.3713,27.3898 17.3619,27.8734 C17.3507,28.4077 17.356,28.7781 17.376,28.97 C17.3995,29.1957 17.4411,29.25 17.4916,29.3165 C17.5439,29.3859 17.6032,29.4629 17.6648,29.6338 C17.7675,29.9155 17.8597,30.4685 17.852,31.011 C17.8474,31.34 17.8063,31.6689 17.71,31.9373 C17.6043,32.2324 17.4306,32.4611 17.1664,32.5562 C17.0813,32.5871 16.9862,32.6022 16.8835,32.6011 C16.4943,32.5952 16.2607,32.4377 16.1122,32.1986 C15.9772,31.9816 15.9243,31.7028 15.8862,31.4175 C15.8603,31.2233 15.8386,30.976 15.8228,30.6931 C15.8063,30.4107 15.7952,30.0864 15.7876,29.7382 L15.6731,29.628 C15.6302,29.5877 15.5956,29.558 15.5733,29.5428 L15.4641,29.4675 C15.3837,29.4121 15.3021,29.3567 15.227,29.2978 C15.0755,29.1788 14.9217,29.0831 14.7621,28.9986 C14.5989,28.9128 14.4269,28.8376 14.2449,28.7606 C14.1616,28.7291 14.0729,28.6958 13.9778,28.6632 C13.8898,28.6328 13.7988,28.6037 13.706,28.5768 C13.4219,28.5022 13.0914,28.438 12.7504,28.3709 C12.1217,28.249 11.4572,28.1201 10.9313,27.8926 L10.9266,27.8903 C10.8843,27.871 10.8462,27.8512 10.808,27.8296 C10.7687,27.8069 10.7317,27.7824 10.6941,27.7561 L10.6918,27.7538 C10.6401,27.7153 10.5967,27.678 10.5585,27.6371 C10.5192,27.5945 10.484,27.5479 10.4493,27.4913 C10.4294,27.4575 10.4112,27.4201 10.393,27.3857 C10.3842,27.3641 10.3766,27.3431 10.3713,27.3216 C10.2175,26.6782 10.447,26.6018 11.0111,26.4168 L11.088,26.3912 C11.7272,26.1789 12.5978,25.9566 13.4777,25.732 C14.32,25.5168 15.1718,25.2992 15.831,25.0863 C15.919,23.3492 15.9736,21.9365 16.0077,20.6981 C16.04,19.5175 16.0529,18.4909 16.057,17.4905 C14.7245,17.9251 13.4642,18.3316 12.4939,18.6285 C11.4449,18.9493 10.7246,19.1372 10.5973,19.087 C10.4922,19.0462 10.4106,18.9756 10.3572,18.8875 C10.2985,18.7913 10.2738,18.6752 10.2856,18.5556 C10.2973,18.4436 10.3425,18.3264 10.4229,18.2196 C10.5245,18.0855 10.6841,17.9665 10.9054,17.8971 C11.3551,17.7565 12.1035,17.5144 13.0216,17.214 C13.9684,16.9043 15.0198,16.5572 16.0582,16.2131 L16.0494,13.6722 C16.047,12.8485 16.0447,11.8703 16.0787,10.9009 C16.1133,9.92208 16.1844,8.94854 16.3276,8.14241 L16.3423,8.05783 C16.3722,7.88401 16.4092,7.66527 16.4802,7.47277 C16.6123,7.11521 16.8436,6.84864 17.295,7.01255 C17.9354,7.24529 17.8526,8.52448 17.8057,9.2507 Z M23.0018,22.9332 L23.756,22.6928 C23.7698,21.589 23.7907,20.4362 23.8278,19.1886 C23.8649,17.9513 23.9181,16.6199 23.994,15.1515 C23.1735,15.37 20.9755,16.0721 18.6012,16.8308 L17.8667,17.0649 C17.853,18.1692 17.8315,19.3215 17.7944,20.5697 C17.7573,21.8075 17.7047,23.1377 17.6287,24.6061 C18.4469,24.3882 20.6346,23.6896 23.0018,22.9332 Z M14.7505,26.5685 C13.791,26.7804 12.7122,27.0183 12.2419,27.1964 C12.4037,27.2238 12.5923,27.2461 12.7797,27.2677 C13.1089,27.3059 13.4375,27.344 13.6598,27.4146 L13.8535,27.4764 C14.1233,27.5603 14.3807,27.6418 14.6593,27.7474 L14.6611,27.748 C14.9472,27.8619 15.2015,27.977 15.4426,28.1081 C15.5875,28.1863 15.7268,28.271 15.8642,28.3638 C15.8673,28.0006 15.873,27.6411 15.8811,27.3001 C15.8892,26.9413 15.9004,26.6029 15.9142,26.3032 C15.585,26.384 15.179,26.4744 14.7505,26.5685 Z" id="Shape" stroke="#2F0F48" fill="#FFFFFF"></path>
            <path d="M59.9268,9.59022 C59.3897,13.5726 57.5564,30.5067 57.8775,36.1495 C57.9148,36.8116 57.8781,38.1819 58.8358,38.1819 C60.7594,38.1819 60.7193,36.6496 59.9949,36.1203 C59.8855,36.0407 59.7883,35.815 59.8058,35.0353 C60.0013,26.7554 60.6663,17.0455 61.1044,9.13168 C66.1583,6.84662 69.0949,5.52307 75.0372,3.73923 C78.7371,2.62858 82.028,3.02219 80.759,1.88755 C77.933,-0.637307 58.851,8.59946 51.941,11.0606 C51.191,11.4167 46.9546,12.8321 47.4073,13.541 C47.9833,14.4434 58.3523,10.1657 59.9268,9.59022 Z M87.1558,24 C87.1286,25.8428 86.6647,28.1463 86.8541,29.9394 C84.8503,28.5946 77.942,28.1684 77.9751,27.5262 C78.0142,26.7653 85.8199,24.3708 87.1558,24 Z M104.079,32.0478 C103.687,32.2599 103.754,32.6794 104.029,33.0541 C105.875,35.5615 108.757,37.9989 111.555,38.1292 C113.846,38.2368 116.115,37.5681 117.849,35.8728 C118.391,35.3415 118.793,35.0021 119.27,34.3872 C119.514,34.0729 119.525,34.1584 119.784,34.4709 C120.37,35.1778 120.1,36.9771 120.368,37.7569 C120.858,39.1875 123.717,36.9209 120.63,32.236 C120.481,32.0119 120.259,31.6528 119.963,31.6378 C118.992,31.5876 118.327,32.8288 117.764,33.4765 C116.1,35.3882 114.226,36.7171 111.807,36.646 C109.605,36.5815 106.957,33.8249 105.595,32.5426 C105.069,32.0472 104.724,31.7006 104.079,32.0478 Z M71.712,38.5454 C72.6046,38.502 73.1018,38.5055 73.6913,36.1342 C73.0249,35.7845 71.6108,34.7587 70.8265,35.9646 C70.3196,36.7432 70.8636,38.5454 71.712,38.5454 Z M142.968,38.168 C144.553,37.9261 143.684,36.6463 142.552,36.1334 C140.491,35.1584 139.166,32.9862 137.279,32.1352 C134.364,30.8222 132.411,31.6702 130.229,33.9658 C129.673,34.5512 129.212,35.0819 128.72,35.7621 C128.501,36.064 128.612,36.1102 128.273,35.6613 C127.78,35.0108 128.165,33.7097 128.001,32.931 C127.803,31.9905 126.791,32.0587 126.569,32.9601 C126.351,33.8419 126.436,35.2248 126.799,36.2727 C127.095,37.1279 127.617,38.1218 128.437,38.1538 C129.476,38.1941 129.837,36.8889 130.393,36.2781 C131.886,34.636 134.313,32.6713 136.569,33.7506 C138.292,34.5749 141.177,38.442 142.968,38.168 Z M183.381,35.8845 C183.329,35.8827 183.285,35.5915 183.267,35.4847 C183.216,35.1845 183.118,33.9717 182.931,33.1983 C182.624,31.9324 181.337,32.1341 181.416,33.9807 C181.469,35.1922 181.75,38.1954 183.278,38.1817467 C185.68,38.1614 184.204,32.9589 188.53,32.6343 C190.686,32.4725 194.61,34.3889 194.948,33.6572 C195.513,32.4314 191.346,31.0563 189.2,31.1566 C183.268,31.4359 183.963,35.909 183.381,35.8845 Z M161.651,34.7281 C162.588,33.6555 165.647,33.2666 167.115,33.0667 C168.565,32.869 171.861,32.8315 172.015,33.5939 C172.139,34.0613 169.634,34.1428 168.273,34.1417 C167.697,34.1411 167.159,34.144 167.255,34.8413 C167.389,35.8166 168.9,35.5011 169.611,35.4454 C170.671,35.3609 174.071,35.0061 174.252,33.6367 C174.365,32.7834 172.726,32.0292 171.838,31.8362 C169.202,31.2662 159.405,31.7283 159.626,35.7105 C159.892,38.8164 164.837,38.156 166.969,38.0534 C168.685,37.9701 170.467,37.7725 172.198,37.7801 C173.759,37.7866 175.317,38.0335 176.88,38.1285 C177.68,38.1771 178.235,37.8487 178.229048,37.3197 C178.222,36.7743 177.316,36.5702 176.853,36.5051 C174.835,36.2242 171.044,36.2764 169.779,36.4025 C167.891,36.5907 165.603,36.786 163.71,36.7679 C162.866,36.7602 160.445,36.1104 161.651,34.7281 Z M153.031,8.45683 C153.04,7.81303 153.335,5.6682 152.545,5.37754 C151.811,5.10635 151.692,6.14633 151.601,6.66338 C151.242,8.71506 151.247,11.6069 151.253,13.7128 C151.267,18.5248 151.324,22.6175 150.97,29.6457 C149.274,30.217 147.361,30.5654 145.744,31.1114 C145.091,31.3313 144.818,31.3831 144.977,32.0535 C145.114,32.6236 146.714,32.2203 147.496,31.9951 C148.709,31.6443 149.991,31.1909 150.984,30.9298 C150.882,32.8187 150.868,36.2453 151.045,37.5759 C151.136,38.2574 151.286,38.8971 152.099,38.9089979 C153.402,38.9278 153.18,36.2058 152.888,35.3898 C152.722,34.9294 152.571,35.0779 152.51,34.4884 C152.46,33.9961 152.48,32.6366 152.591,30.5354 C154.294,29.8137 158.399,28.3357 161.186,27.449 C161.928,27.2114 161.984,26.4886 161.562,26.3223 C161.077,26.1313 154.342,28.7065 152.645,29.0856 C153.069,20.692 152.931,14.7327 153.031,8.45683 Z M99.1859,20.4259 C101.975,19.4888 106.965,18.078 108.767,17.4173 C109.609,17.1083 109.463,16.911 109.337,16.755 C109.179,16.5606 108.831,16.4628 107.936,16.6834 C106.15,17.1246 102.697,18.0221 99.2556,18.9603 C99.6837,14.5421 98.3503,8.25192 99.0182,4.26318 C99.167,3.37499 97.7816,2.9565 97.569,4.04375 C97.4326,4.73988 97.3711,5.92026 97.3623,6.16763 C97.2135,10.3781 98.0709,15.2865 97.8082,19.2228 C95.4477,19.898 90.8668,21.2425 88.6682,21.7792 C89.1902,17.3312 89.5517,12.8856 89.515,8.46611 C89.4955,6.06519 88.2011,6.91206 88.178,7.98884 C88.0759,12.6912 87.6501,17.5279 87.0678,22.2983 C83.9326,23.4304 75.5402,26.1998 75.2951,27.5885 C75.1363,28.4889 76.4243,28.6263 77.2369,28.8312 C79.5471,29.4132 82.6694,29.7991 85.4455,30.9807 C87.8314,31.9963 86.818,35.7383 86.9402,37.8074 C87.007,38.943 87.2786,40 88.6865,40 C89.6302,39.9441 90.0229,38.7562 89.9426,36.9792 C89.8204,34.282 89.7034,32.5534 88.2772,30.8497 C88.2772,29.0483 88.2524,27.0717 88.5566,23.3815 C91.0268,22.6674 95.6993,21.3933 97.7769,20.8491 C97.6635,25.4239 97.4243,29.447 97.1704,34.0381 C97.1308,34.7605 96.7889,37.9372 98.192,37.9559 C99.4369,37.9727 100.069,35.1632 98.8062,35.3355 C98.7011,35.3495 98.7206,35.3797 98.7395,34.445 C98.8009,29.4167 98.9261,25.4478 99.1859,20.4259 Z" id="Shape" stroke="#2F0F48" fill="#FFFFFF"></path>
        </g>
    </g>
</svg>