<?xml version="1.0" encoding="iso-8859-1"?>
<!-- Generator: Adobe Illustrator 17.1.0, SVG Export Plug-In . SVG Version: 6.00 Build 0)  -->
<!DOCTYPE svg PUBLIC "-//W3C//DTD SVG 1.1//EN" "http://www.w3.org/Graphics/SVG/1.1/DTD/svg11.dtd">
<svg xmlns="http://www.w3.org/2000/svg" xmlns:xlink="http://www.w3.org/1999/xlink" version="1.1" id="Capa_1" x="0px" y="0px" viewBox="0 0 512 512" style="enable-background:new 0 0 512 512;" xml:space="preserve" width="512px" height="512px">
<path d="M420.8,137.6c3.66-4.879,4.239-11.3,1.511-16.755C419.583,115.389,414.1,112,408,112H168V93.255  c0-6.411,2.497-12.438,7.029-16.971l22.627-22.627c0.343-0.343,0.642-0.713,0.91-1.098C202.557,54.75,207.135,56,212,56  c15.439,0,28-12.561,28-28S227.439,0,212,0s-28,12.561-28,28c0,4.865,1.249,9.443,3.441,13.434c-0.385,0.268-0.755,0.566-1.098,0.91  l-22.627,22.627C156.161,72.525,152,82.57,152,93.255V112h-48c-6.1,0-11.583,3.389-14.311,8.845  c-2.728,5.456-2.148,11.876,1.511,16.755l60.8,81.066V464h-8c-13.233,0-24,10.766-24,24v16c0,4.418,3.582,8,8,8h256  c4.418,0,8-3.582,8-8v-16c0-13.234-10.767-24-24-24h-8V218.667L420.8,137.6z M212,16c6.617,0,12,5.383,12,12s-5.383,12-12,12  s-12-5.383-12-12S205.383,16,212,16z M336,464c-4.418,0-8,3.582-8,8s3.582,8,8,8h32c4.411,0,8,3.589,8,8v8H136v-8  c0-4.411,3.589-8,8-8h159.999c4.418,0,8-3.582,8-8s-3.582-8-8-8H168V176h136c4.418,0,8-3.582,8-8s-3.582-8-8-8H160  c-4.418,0-8,3.582-8,8v24l-48-64h304l-48,64v-24c0-4.418-3.582-8-8-8h-16.005c-4.418,0-8,3.582-8,8s3.582,8,8,8H344v288H336z" fill="#3F2D3B"/>
<g>
</g>
<g>
</g>
<g>
</g>
<g>
</g>
<g>
</g>
<g>
</g>
<g>
</g>
<g>
</g>
<g>
</g>
<g>
</g>
<g>
</g>
<g>
</g>
<g>
</g>
<g>
</g>
<g>
</g>
</svg>
