<?xml version="1.0" encoding="utf-8"?>
<!-- Generator: Adobe Illustrator 21.1.0, SVG Export Plug-In . SVG Version: 6.00 Build 0)  -->
<svg version="1.1" id="Слой_1" xmlns="http://www.w3.org/2000/svg" xmlns:xlink="http://www.w3.org/1999/xlink" x="0px" y="0px"
	 viewBox="0 0 43.1 33.9" style="enable-background:new 0 0 43.1 33.9;" xml:space="preserve">
<style type="text/css">
	.st0{fill:#3F2D3B;}
</style>
<g>
	<g>
		<path class="st0" d="M14.6,33.9c-4.2,0-8.3-1.2-12-3.3L0,28.9L3,29c0.1,0,0.3,0,0.5,0c1.2,0,4.8-0.2,8.6-2.3
			c-2.8-0.8-5.2-3-6.2-5.9l-0.5-1.4l1.3,0.3c-2.1-1.6-3.5-4.1-3.6-6.8l-0.1-1.3l1.2,0.5c0.2,0.1,0.4,0.2,0.7,0.3
			C3.3,9.9,2.3,6.2,4.4,2.3L5,1.2l0.8,1c3.6,4.7,9,7.6,14.9,8c0-0.4-0.1-0.7-0.1-0.8c0-4.4,3.3-8.9,8.9-8.9c2.3,0,4.6,0.9,6.2,2.6
			c2.2-0.5,4.3-1.8,4.4-1.8L42,0l-0.7,2.1c-0.3,1-0.9,2-1.6,2.8c0.4-0.1,0.7-0.3,1.1-0.4l2.3-1.1l-1,2.1c-0.8,1.7-2.1,3.1-3.8,4
			c0.4,5.7-2,12-6.2,16.7c-3.1,3.5-8.7,7.6-17.5,7.7L14.6,33.9z M6,30.4c2.7,1.2,5.6,1.8,8.5,1.8l0.1,0c8.2-0.1,13.4-3.9,16.3-7.1
			c4.1-4.5,6.2-10.6,5.7-16l-0.1-0.6l0.5-0.2c0.8-0.4,1.6-0.9,2.2-1.6c-0.7,0.2-1.4,0.3-2.3,0.4l-0.6,0.1L36,6l0.6-0.4
			c0.8-0.5,1.5-1.1,2-1.8c-0.9,0.4-1.9,0.7-3,0.9l-0.4,0.1l-0.3-0.3c-1.4-1.5-3.3-2.4-5.4-2.4c-4.5,0-7.2,3.7-7.2,7.2
			c0,0.2,0.1,1.2,0.1,1.4l0.4,1l-1.2,0C15.3,11.7,9.5,8.9,5.4,4.2c-1.6,4.3,1.1,7.7,2.4,8.7l1.9,1.5l-2.4,0c-0.8,0-1.5-0.1-2.2-0.3
			c0.6,2.9,2.9,5.1,5.8,5.8l3.2,0.7l-3.2,0.9c-0.6,0.2-1.2,0.2-1.9,0.2c-0.3,0-0.6,0-0.9,0c1.3,2.2,3.6,3.7,6.2,3.9l2.3,0.1
			l-1.8,1.4C11.7,29.2,8.4,30.1,6,30.4z"/>
	</g>
</g>
</svg>
