<?xml version="1.0" encoding="utf-8"?>
<!-- Generator: Adobe Illustrator 21.1.0, SVG Export Plug-In . SVG Version: 6.00 Build 0)  -->
<svg version="1.1" id="Слой_1" xmlns="http://www.w3.org/2000/svg" xmlns:xlink="http://www.w3.org/1999/xlink" x="0px" y="0px"
	 viewBox="0 0 37.7 37.7" style="enable-background:new 0 0 37.7 37.7;" xml:space="preserve">
<style type="text/css">
	.st0{fill:none;stroke:#402E3C;stroke-miterlimit:10;}
</style>
<g>
	<g>
		<g>
			<g>
				<g>
					<path class="st0" d="M36.8,0.5h-36c-0.2,0-0.4,0.2-0.4,0.4v36c0,0.2,0.2,0.4,0.4,0.4h36c0.2,0,0.4-0.2,0.4-0.4v-36
						C37.2,0.7,37,0.5,36.8,0.5z M36.5,36.5H1.2V1.2h35.2V36.5z"/>
					<path class="st0" d="M4.6,15.1c1.7,3.3,3.1,5.7,4.7,7.8c1.3,1.7,2.8,2.9,4.4,3.8c1.9,1,4,1.4,6.6,1.2c0.9-0.1,1.5-0.6,1.6-1.5
						c0-0.2,0.2-1.6,0.4-2.2c0.1-0.1,0.2-0.3,0.3-0.4c0.1,0,0.3,0,0.5,0.2c0.2,0.2,0.4,0.4,0.6,0.6c0.3,0.3,0.5,0.5,0.7,0.8
						c0.4,0.5,0.9,1,1.4,1.4c0.7,0.7,1.6,1.1,2.7,1.1c0,0,0.1,0,0.3,0c0.8,0,1.9,0,2.7,0c0.7,0,1.2,0,1.5,0c0.7-0.1,1.2-0.4,1.4-0.9
						c0.2-0.5,0.2-1.1-0.2-1.7c-0.5-0.8-1.1-1.5-1.7-2.2c-0.5-0.5-1-1.1-1.6-1.6c-0.4-0.4-0.7-0.7-1.1-1.1c-0.4-0.4-0.4-0.6-0.1-1.2
						c0.1-0.2,0.2-0.4,0.3-0.5c0.1-0.2,0.1-0.4-0.1-0.5c-0.2-0.1-0.4-0.1-0.5,0.1c-0.1,0.2-0.2,0.4-0.4,0.6c-0.5,0.8-0.4,1.4,0.3,2
						c0.4,0.4,0.7,0.7,1.1,1.1c0.5,0.5,1,1,1.5,1.6c0.6,0.7,1.2,1.4,1.6,2.1c0.2,0.4,0.3,0.7,0.2,1c-0.1,0.3-0.4,0.4-0.8,0.5
						c-0.4,0.1-1.8,0.1-4.1,0c-0.2,0-0.3,0-0.3,0c-0.9,0-1.6-0.3-2.2-0.9C26,26,25.6,25.5,25.1,25c-0.2-0.3-0.5-0.5-0.8-0.8
						c-0.3-0.3-0.5-0.5-0.7-0.7c-0.4-0.3-0.8-0.4-1.2-0.3c-0.2,0.1-0.6,0.3-0.8,0.8c-0.3,0.7-0.5,2.3-0.5,2.4c0,0.5-0.3,0.8-0.9,0.8
						c-2.5,0.1-4.5-0.2-6.2-1.2c-1.5-0.8-2.9-2-4.1-3.6c-1.6-2-3-4.4-4.7-7.7c-0.1-0.2-1.3-2.9-1.5-3.1c-0.1-0.2-0.1-0.5,0.1-0.6
						c0.5-0.1,4.4,0,4.7,0c0.6,0,1,0.3,1.2,0.9c0.9,2.3,2.1,4.3,3.4,6c0.2,0.3,0.5,0.5,0.8,0.7c0.3,0.2,0.6,0.3,0.9,0.2
						c0.3-0.1,0.5-0.3,0.6-0.6c0.2-0.5,0.3-1.4,0.3-1.9c0-1.2,0-2-0.1-3.3c-0.1-1.1-0.6-1.8-1.7-2c0,0,0,0,0-0.1
						c0.4-0.5,0.8-0.6,1.6-0.6c0.8,0,1.7,0,2.6,0c0.3,0,0.6,0,0.9,0c0.5,0,0.9,0,1.3,0.1c0.4,0.1,0.7,0.4,0.8,0.9
						c0.1,0.3,0.1,0.6,0.1,0.9c0,0.5,0,1.1,0,1.6c0,0.8-0.1,1.6-0.1,2.4c0,0.6,0,1.2,0.2,1.6c0.1,0.7,0.5,0.9,0.7,0.9
						c0.2,0.1,0.6,0.1,1-0.4c0.6-0.6,1.1-1.2,1.7-2.2c0.8-1.2,1.6-2.6,2.3-4.4c0.3-0.7,0.4-0.7,1.1-0.7c1.8,0,3.4,0,4.8,0
						c0.3,0,0.5,0,0.7,0.1c0.2,0.1,0.3,0.2,0.3,0.5c0,0.2,0.1,0.4,0.3,0.4c0.2,0,0.4-0.1,0.4-0.3c0.1-0.6-0.1-1.2-0.7-1.4
						c-0.3-0.1-0.6-0.1-1-0.1c-1.4,0-2.9,0-4.8,0c-1,0-1.4,0.3-1.7,1.2c-0.7,1.8-1.4,3.1-2.2,4.3c-0.6,0.9-1.1,1.5-1.7,2.1
						c-0.2,0.2-0.3,0.2-0.3,0.2c0,0-0.1-0.1-0.2-0.4c-0.1-0.4-0.1-0.9-0.1-1.5c0-0.8,0-1.6,0.1-2.3c0-0.5,0-1.1,0-1.6
						c0-0.3,0-0.7-0.1-1c-0.1-0.8-0.6-1.3-1.3-1.4c-0.4-0.1-0.9-0.1-1.5-0.2c-0.3,0-0.6,0-0.9,0c-0.9,0-1.7,0-2.6,0
						c-0.7,0-1.5,0.1-2.1,0.9c-0.2,0.3-0.3,0.6-0.2,0.8c0,0.1,0.2,0.4,0.6,0.4c0.9,0.2,1.1,0.7,1.2,1.3c0.1,1.2,0.1,2,0.1,3.2
						c0,0.4-0.1,1.3-0.3,1.7c0,0.1-0.1,0.1-0.1,0.2c0,0-0.1,0-0.2-0.1c-0.2-0.2-0.4-0.4-0.6-0.6c-1.3-1.7-2.4-3.6-3.3-5.8
						c-0.3-0.8-0.9-1.3-1.8-1.3c0,0-4.6-0.1-5,0c-0.5,0.2-0.8,0.8-0.6,1.5C3.2,12.1,4.6,15.1,4.6,15.1z"/>
					<path class="st0" d="M32.5,14.2c-0.3,0.4-0.5,0.8-0.9,1.3c-0.1,0.2-0.1,0.4,0.1,0.5c0.1,0,0.1,0.1,0.2,0.1
						c0.1,0,0.2-0.1,0.3-0.2c0.3-0.5,0.6-0.9,0.9-1.3c0.1-0.2,0.1-0.4-0.1-0.5C32.8,14,32.6,14,32.5,14.2z"/>
					<path class="st0" d="M33.2,33h-3.1c-0.2,0-0.4,0.2-0.4,0.4c0,0.2,0.2,0.4,0.4,0.4h3.1c0.2,0,0.4-0.2,0.4-0.4
						C33.6,33.2,33.4,33,33.2,33z"/>
					<path class="st0" d="M26.4,33H4.5c-0.2,0-0.4,0.2-0.4,0.4c0,0.2,0.2,0.4,0.4,0.4h21.9c0.2,0,0.4-0.2,0.4-0.4
						C26.8,33.2,26.6,33,26.4,33z"/>
				</g>
			</g>
		</g>
	</g>
</g>
</svg>
