<svg xmlns="http://www.w3.org/2000/svg" viewBox="0 0 735.07 492.74"><defs><style>.cls-1{fill:#040706;}</style></defs><title>Ресурс 4</title><g id="Слой_2" data-name="Слой 2"><g id="Слой_1-2" data-name="Слой 1"><path class="cls-1" d="M14.52,0h101.8V1.46h-5.4q-1.75.8-9.41,16.35,3.5,0,3.5.95Q93,43.05,88.66,48.89q-4.82,0-5,.51a3.61,3.61,0,0,0-2-.51h-.95a4.61,4.61,0,0,0,.95,1.53v.51l-.44.95,3.43.51q1.46,0,1.46-.51l2.48.51h7.44q.95.15.95.95l-.95.51h-5a24.92,24.92,0,0,0-4.45.51q-.66-.51-3.43-.51Q79.76,58.31,67.43,83l.95.51h5q1,.15,1,.95Q74.07,86,70.42,86h-4l-2.92,3H57.07q-1.31,2-6,2l3,2a155.92,155.92,0,0,0-6.93,14.37h5l3,.44a.39.39,0,0,0,.44-.44l3.5.44q2.92,0,2.92-.44l5,.44H91.14q3.43,0,10.87-.44,1.39,3.43,2,3.43h5.91q1,.15,1,1v15.76l-.51,5.91q-4.89.51-105.74,0H3.21q-1,0-1-.95,8.17-14.6,10.87-21.24v-.51h-.51l-4.45-.51a3.47,3.47,0,0,1-1.46.51l-.51-1L15,93.41V91.95H12.55v-1h3l2.92-2.48H25q.29,0,2.92-2.92H34.3a.9.9,0,0,0,1-1q0-.95-1-.95h-5L28.39,83,43.71,54.37q8.17-.51,12.33-.51h1a.84.84,0,0,0,.95-.95v-.51H57.5q-4.89,0-14.81-.51v-.51q0-2.92,8-2.92L62,27.66V26.2H21.45a3.82,3.82,0,0,1-2-.51.45.45,0,0,0-.51.51l-3.43-.51H12a.84.84,0,0,1-.95-.95v-6l.51-.95q-4.45,0-4.45-2l.44-3-.44-3,.44-2.92L7.15,2l.95-.51h4.45ZM4.67,18.75h.95v6.42H4.67Zm5.4-2.48v1h.51v-1Zm5.47,5.47v1a.84.84,0,0,1,.95.95H17v-.95ZM29.34,48.89h4.45v1H29.34Zm11.38,0h1v1h-1Z"/><path class="cls-1" d="M143.6,0h70.2q.66,0,1.46,1.46V18.32q0,.66,1.46,1.46h2a4,4,0,0,0,2-.51q2.41.66,2.41,1.46v1a.84.84,0,0,1-.95.95h-2.48v2.48a.9.9,0,0,1-1,1H184.61q-5.18,0-15.76.51v4.45c.1.63.41.95.95.95h4.45q1,.15,1,1V54.37h43q.95.15.95.95v7.44q0,.95-5.4,1.46l-1-.51-2.92.51a4,4,0,0,0-1.53-.51l-.51,2.48v8.39l.51,5-1.46,1h-42q0,1.68-3.43,2l-3-.51h-.95c-.68.1-1,.44-1,1v.44h3l5,.51v16.35q0,2.63,2.92,2.92a3.83,3.83,0,0,0,.51,2,3.83,3.83,0,0,0-.51,2v.51h47q.95,0,1.46,5h7.37q1,.15,1,.95a.9.9,0,0,1-1,1h-5.4l-2.48.51v18.75h-81a.45.45,0,0,1-.51-.51l-1,.51h-2.92q-.73,0-1.53-1.46v-1a.45.45,0,0,1,.51-.51l-.51-.95V118.07l-2.48-.44h-4.38a.9.9,0,0,1-1-1v-1a1,1,0,0,1,1-.95q8.25-.51,12.84-.51h2v-.95l-5-.51h-2c-.68,0-1-.48-1-1.46l.51-1a3.84,3.84,0,0,1-.51-2q0-.66,3-1.46a4,4,0,0,0,.51-2q0-2.12-3.5-2.41V85.45l.51-.95-.95-.51h-6.42c-.68,0-1-.31-1-.95s.44-1,1-1h5.91q.95,0,.95-1V64.73c0-.68.51-1,1.53-1s4.13-.15,9.34-.44V33.13q0-1.53-5.4-1.53h-1V23.72l3.5-2v-1q0-.95-1-.95H129.3a.9.9,0,0,1-1-1V1.46l.51-.95Q138.71,0,143.6,0ZM124.84,59.33h2.48q.95.15.95.95v2.48a.84.84,0,0,1-.95.95h-2.48c-.68,0-1-.31-1-.95V60.28C124,59.65,124.31,59.33,124.84,59.33Zm17.8,54.8h4.45v-.95h-3.5Q142.65,113.33,142.65,114.13Zm53.34.51v2c.1.68.44,1,1,1h6.86a3.49,3.49,0,0,1,.51-1.53,3.47,3.47,0,0,1-.51-1.46Z"/><path class="cls-1" d="M245.31,0c.63,0,.95.17.95.51Q253.7,0,257.2,0h34.59Q310.62,0,317,3.43q4.45,1.31,5.47,3a3.83,3.83,0,0,0-.51,2q7.73,3.72,13.35,16.35,3.5,10.51,3.5,15.83,0,1.82-1.46,11.89,2.92,0,2.92,1-5.62,15.4-17.81,22.77l-7.44,2.92v.51q1.17,1.09,5.47,8a5.51,5.51,0,0,1-2.48.95l.51,1v.51q-9,.44-11.89.44v.51q.15,1,1,1H320l4.45,5.4q4.89,0,6.42,5V103q-2.48,0-2.48,1,15.4,22.11,15.4,22.77-2,.36-2,.95,3.43,5.18,3.43,6l-.95.44H319.52q-4.16,0-13.35-.44-3.94-5.62-3.94-6a4.73,4.73,0,0,1,2.48-.51v-.44Q290.33,104.94,290.33,103h2v-1q-1.53-4.89-5.91-4.89-3.87-5-6-5h-8.9v2.48a.39.39,0,0,1-.44.44l.44,1V118.8H277q1,.15,1,1t-1,.95h-5.47q0,2.48-.44,2.48l.44,1v5.91a4.36,4.36,0,0,1-.44,2,3.9,3.9,0,0,1,.44,1.53l-.95.44H250.27q-5,0-14.89-.44V121.79q.15-1,1-1h5.4v-1.46h-5.4a.9.9,0,0,1-1-1V92.6l-2.48-.51h-9.85a.9.9,0,0,1-1-1l1-.51q12.33-.22,12.33-.95c0-1,.34-1.53,1-1.53a3.45,3.45,0,0,0,1.46.51l.51-.95V53.93q.15-.95.95-.95h2.48l.51-3a3.47,3.47,0,0,0-1.46-.51q-4.38.51-5,.51Q235.9,46,232,46V43.57l3.43-2V8.39l3-2v-5c.1-.63.41-.95.95-.95h3.5A4.73,4.73,0,0,0,245.31,0Zm-2,50v.51h.95V50Zm2.48,0v.51h.95V50Zm12.33,40.57v.51q.15,1,1,1h8.9q.95,0,.95-1v-.51Zm13.35-64.29a.39.39,0,0,1-.44.44q.44,5,.44,7.44v3q0,.51-.44.51l.44.95v.51q0,4.45-3.94,4.45v3q3.94.29,3.94,1.46h-.44a3.87,3.87,0,0,1,.44,1.46H283.4v1H279L277,53H274.5v5h15.32q10,0,13.43-5,4.89,0,4.89-3.5h-4.45l-.95-.44a23,23,0,0,0,.95-6V39.11q0-5.18-8.9-11.38-1.09-1-9.85-1.46l-1,.44-1-.44a.39.39,0,0,0-.44.44,15.29,15.29,0,0,0-2-.44q-4.31.44-4.89.44A29,29,0,0,0,271.51,26.27ZM273,88.59l-1-.51c0,.68-.32,1-.95,1a3.87,3.87,0,0,1,.44,1.46q5-.44,7.44-.44h.51l.95.44,2-3.43q-2-4.45-2.48-4.45h-4.45q-1,0-1.53,5.91Zm24.74,39.11h.95a3.32,3.32,0,0,0,1,2v1q-.66-.07-2-2.48Zm3.43,5h.51v1h-.51Zm38.17-83.19h1.46v1h-1.46Zm3.43,0h1.53v1H342.8Zm2.48,0h4.45v1h-4.45Z"/><path class="cls-1" d="M435.9.22q17,0,28.75,7.22a4.17,4.17,0,0,1-1.9.44v.95q1.75,0,13.35,9.12a10.54,10.54,0,0,1,5.77,1.9h5.33l2.33.51v.51a.84.84,0,0,1-.95.95h-2.41c-.29,0-.44-.17-.44-.51a4.56,4.56,0,0,1-2.41.51v.44q10.87,12.12,16.27,32.62l-1.39.95H486.69v.51q7.08,0,8.17.44a5.2,5.2,0,0,1,2.41-.44h.95q1.9,0,1.9,9.12c.1.63.41.95.95.95h4.82a.39.39,0,0,1,.44.44l1-.44h.44q2.92.29,2.92,1.39,0,16-9.12,32.18l-.95.44h-9.12l-2,1.46h-4.74q-.95.15-.95.95,5.25,0,5.26.51-11.17,18.39-34.52,27.29a84,84,0,0,1-20.65,2.92h-5.25q-5.62,0-7.66-1a3.47,3.47,0,0,1-1.46.51q-21.09-3.57-33.06-13.94a85.39,85.39,0,0,1-14.89-15.76,3.46,3.46,0,0,0-1.9-.51h-4.31v-.95h4.74q0-1.46,1-1.46h6.2l2.41-.44q-7.44-14.16-8.17-25.91V72.61l.51-.95q.44,0,.44.51,7.22-.51,10.58-.51h7.15v-.51a.84.84,0,0,0-.95-.95H372.12q-.58,0-2.41-3.36h-8.17a.84.84,0,0,1-.95-.95q0-.95,3.87-1.46v-1.9A3.88,3.88,0,0,1,363,62.1a3.89,3.89,0,0,1-1.46.44,3.86,3.86,0,0,1-.44-1.46q1.39-16.64,12.41-33.49,4.23-5.76,7.74-5.77,6.2,0,6.2-1.46a5.79,5.79,0,0,0-2.85-.95h-.51l-2.41.44-.44-.95.44-.95q-1.9,0-1.9-.95,3.57-3.14,13.43-9.12h5.25Q411.31.22,435.9.22ZM363,70.2h5.25c.63.1.95.41.95.95l-.95.51H363Zm2.85,14.37h2.92L369.2,87l-1.39.95h-1.46q-.95,0-1.46-2.85Zm30.21-24.45v.95L399,63V64c0,.63-.34.95-1,.95h-2.34v1.46h8.61q.8,0,1.46,3.36Q416,70.2,421,70.2h3.79v.95c0,.68-.32,1-.95,1a3.05,3.05,0,0,0-1.39-.51.45.45,0,0,0-.51.51l-2.41-.51q-1.75,0-13.43.51v2.34q2.33,11.75,12,21.16,5.32,3.65,5.33,4.31l-.95.44h-6.71l.44.95v.51h-2.85v.95h5.76q8.54,2.41,11.46,2.41a46.78,46.78,0,0,0,9.12-1.46.84.84,0,0,0-.95-.95h-2.41v-.95h5.25q.51,0,6.71-1.46h4.82a3.39,3.39,0,0,1,3.36,0q9.41-4,16.78-17.73,2.85-9.63,2.85-11V67.79q0-.8-4.74-1.39l-.95.44h-3.36q-2,0-2-9.56l-2.34-.51H446.41v-.95q7.23-.44,10.58-.44h7.15v-.51q-4.52-12.77-14.37-19.63Q438.89,28.53,432,28.53q-20.07,0-32.62,20.58Q396.06,57.58,396.06,60.13ZM422,79.32h.51c.63.1.95.41.95.95v1.46a.84.84,0,0,1-.95.95H422a.84.84,0,0,1-.95-.95V80.27Q421.16,79.32,422,79.32Zm59-7.15-.44.95v.44h.44a.84.84,0,0,1,.95-.95v-.44Z"/><path class="cls-1" d="M1,215.54H2c.68.15,1,.49,1,1Q3,217.65.51,218L0,217.07v-.51C.1,215.88.44,215.54,1,215.54Zm17.73-36q4.74,0,21.67.51Q57.72,205.4,59.69,206.2q1.9,0,5.4,3.43H80.93a1,1,0,0,1,.95,1,.84.84,0,0,1-.95.95H79.4a4.36,4.36,0,0,1-2-.44,4.09,4.09,0,0,1-2,.44,4.37,4.37,0,0,1-2-.44l-2.92.44h-3l-.95-.44-.51.95Q72,219.92,94.72,253l-2.48,1q6.79,10.21,8.9,11.82l.51-2.48v-2.48q0-2.92-3-6.86,2.48-.51,2.48-1-2.48-3.79-2.48-4.89a3.46,3.46,0,0,1,1.46-.51,5.62,5.62,0,0,1-1.46-3.43V218q-2.48,0-2.48-.44l-.95.44q-1,0-1-.95v-.51c.1-.68.44-1,1-1h3.43v-8.83q-3,0-3-1V181l.51-.95q9.85-.51,14.81-.51h17.73a.45.45,0,0,1,.51.51l1-.51a1,1,0,0,1,.95,1V206.2q3.21,0,3.5,1.46v6.93q0,.73-1.53,1.46h-2.92v1.53h2.92q.73,0,1.53,1.46v33.57l-3.5,2v19.19q0,.66-2.92,2l.44,3.5v11.82q2.48,0,2.48.95v18.24l.51,2.48-1,.51H108.51q-4.89,0-14.81-.51Q80.13,291.8,77.94,291.06q-2.26,0-4.89-5.47Q65.6,276,65.6,274.79h1.46v-1l-13.79-19.7q2.48-.51,2.48-1l-6.93-9.85v-6.93q0-2.77-5.4-9.85h-.51v26.2l-2.92,2v.95h5.4a1,1,0,0,1,.95,1V258q0,.73-1.46,1.46H40l-.51,5.91v14.81l.51,2.48a4.59,4.59,0,0,1-3,.95v3l2.48,2v16.78l.51,2.92a3.83,3.83,0,0,0-.51,2l.51,2.48-1,.51H17.3q-4.23,0-13.35-.51l-.51-.95v-.51a.45.45,0,0,1,.51-.51l-.51-.95V288.58l-2.41-2v-2l2.41-2V260.49c0-.48.51-1,1.53-1.53H9.34q1,0,1-.95v-1.46a.9.9,0,0,0-1-1H4.45c-.68,0-1-.31-1-.95s.44-1,1-1H6.93v-.95a5.39,5.39,0,0,1,.44-2.48l-.44-2.48.44-2c0-.34-.15-.51-.44-.51l.44-2.48v-.95q0-2-.44-2l.44-3.5v-2q0-6.42-.44-16.71l.44-1-.44-1q.44-3.94,1.46-3.94h4.45q3.43,0,10.8-.44v-1h-.44a21.81,21.81,0,0,1-5.47-.51,40.89,40.89,0,0,1-6.42.51q-4.89,0-4.89-3.43-3,0-3-1.46V181l.51-.95Q14.52,179.56,18.75,179.56Zm71,36h.51c.68.15,1,.49,1,1v.51q0,.95-1,.95-.73,0-1.46-1.46C88.91,215.88,89.22,215.54,89.76,215.54Zm12.33,34.59a1,1,0,0,0,1,.95v-.95Zm2,1.46v1h.51v-1Z"/><path class="cls-1" d="M155.93,179.56H190q1,0,1.53,5.4h5.4q1,.22,1,1l-1.53,1a12.34,12.34,0,0,0-2-.51,3.84,3.84,0,0,1-2,.51v-.51A3.47,3.47,0,0,1,191,187v58.31q0,1.17,3.94,1.46a3.85,3.85,0,0,1,2-.51,5.38,5.38,0,0,0,1,1.46v1.53q0,.66-1.53,1.46h-2.92q-1.53,0-1.53-.51l-2.41.51h-5q-1,.15-1,1v2a1,1,0,0,0,1,.95H195v34.59a3.84,3.84,0,0,0,.51,2q-.8,2.48-3,2.48a.45.45,0,0,0-.51-.51l-.44,1v14.3q.15,1,.95,1a3.84,3.84,0,0,1,2-.51,7.93,7.93,0,0,1,1,3.94l-1,.51H172.71q-4.16,0-13.28-.51V310l-3.5-2a.45.45,0,0,0-.51-.51l.51-3.5v-2.92a3.61,3.61,0,0,0-.51-2,3.84,3.84,0,0,0,.51-2v-2.48q0-.95-4.45-2.48a3.47,3.47,0,0,1-.51-1.46q.8-2,1.53-2h2q.88,0,1.46,4.45h2.48q1,0,1-.95V255.67a.9.9,0,0,0-1-1q-8.69-.51-10.36-.51l-.51-.95v-1.46q0-.73,1.46-1.53a.45.45,0,0,1,.51.51l1-.51h10.36a.84.84,0,0,0,.95-.95v-1.53l-.95-1.46-3.5.51h-.95q-.73,0-1.46-1.46V188l.44-.95a5.63,5.63,0,0,0-2.92-.51v-1H155v-4.89Q155.13,179.56,155.93,179.56Zm2.48,6.42q.15,1,1,1h.95a1,1,0,1,0,0-2h-.95C158.75,185.11,158.41,185.45,158.41,186Z"/><path class="cls-1" d="M296.83,179.71a63.34,63.34,0,0,1,31.6,8.17v.44a15.6,15.6,0,0,0-4.31.51v.44q10.8,5.11,22.48,21.09,4.67,0,5.77,2.85,0,.66-2.85,1.46,0,2.19-15.83,9.12-7.15,4.74-10.07,4.74h-3.79l-9.12-10.95q-3.5-1.82-3.79-2.92v-.44h1.9v-1q-.66,0-6.2-2.85h-2a12.21,12.21,0,0,1-7.15-1.9h-7.66a3.89,3.89,0,0,0-1.9.44l-.95-.44q-16.57,5.18-21.6,13.43-1.17,1.39-6.2,1.9v.44q.15,1,.95,1t.95-.51l4.82.51h8.61v.44a.84.84,0,0,1-.95.95H258q-2.85,1.9-5.69,16.27v3.87q0,5.84,2.85,15.32l-.95.44H249.4l-2.85.51a3.48,3.48,0,0,0-1.46-.51l-.95.51a3.49,3.49,0,0,0-1.46-.51V263q3.21,9.12,12.92,15.32,4.74,3.36,6.71,3.36h12q11.24,3.36,16.35,3.36,9.92-3.36,12.41-3.36a3.46,3.46,0,0,0,1.46.51q10.87-7.29,11.46-9.12,2.77-2,7.66-10.07v-.51H285.3a.84.84,0,0,1-.95-.95V248.23q2.41-1.46,2.41-2.41l-.44-.95a4.35,4.35,0,0,0,.44-2q-2.41-.58-2.41-1.39a5.47,5.47,0,0,0,.95-1.46q1,0,1,.51,5.62-.51,8.1-.51h49.84a3.7,3.7,0,0,1,1.9.51,3.46,3.46,0,0,1,1.9-.51h8.61l2.92,3.36v2.85q-2.41,1.31-2.92,6.28-.44,7-.44,9.56,2.41,0,2.41.95v.51q-5.47,18.68-9.63,18.68a3.47,3.47,0,0,0-1.9-.51Q335.87,302,306.9,311.42a75.18,75.18,0,0,1-12,1.46h-9.12q-36.78,0-57.94-31.16H215q-2.41-1.31-8.17-16.27v-2.92h12.92l-1.9-15.32v-2.33q2.12-18.24,3.79-18.24,9.27-.44,12-.44v-.95h-.51q-5,0-15.32-.51,0-.73,4.82-1.9,9.27-23.28,28.68-34a24.12,24.12,0,0,0,13-3.36Q277.13,179.71,296.83,179.71Zm-82.9,43.56h1.46v1.46a14.14,14.14,0,0,1-1.9.51l-.51-1C213.08,223.59,213.4,223.27,213.93,223.27Zm57,17.3h1c.63.1.95.41.95.95v.95h-2a.84.84,0,0,1-.95-.95Q270.12,240.57,270.92,240.57Zm6.28-.51q4.74.36,4.74,1.46a.84.84,0,0,1-.95.95h-4.31a.84.84,0,0,1-.95-.95Q275.74,240.79,277.2,240.06Z"/><path class="cls-1" d="M389.12,179.56l3.43.51H412.7a3.46,3.46,0,0,0,1.9-.51q3,.66,3,1.46V217.8a.9.9,0,0,1-1,1h-4.89q-.95.15-.95.95v.51q0,.95,3.87,1.46a3.84,3.84,0,0,1,2-.51,3.62,3.62,0,0,1,1,2l-.51,1q0,1.09,2.92,2,0,6.86,2,6.86,3.94,0,3.94.44l2.48-.44h39.7a16.13,16.13,0,0,0,.51-2,3.49,3.49,0,0,0-.51-1.46l.51-2.48a3.45,3.45,0,0,1-.51-1.46H465.6q-.95,0-.95-1v-2.92H449.47c-.68,0-1-.32-1-.95v-1.53q9-.44,13.28-.44h2c.63,0,.95-.34.95-1V181q.15-.95.95-.95H500v35.76l.51,2.48-1,.51h-7.37l-2.92.44a5.2,5.2,0,0,0-2.41-.44h-2q-1,.15-1,.95v.51a1,1,0,0,0,1,.95q9,.51,15.18.51a.45.45,0,0,0,.51.51l-.51,2.41q0,1,3.94,1.53v34.3l.44.95,1-.44h2q2.92.29,2.92,1.46v2.48c0,.44-.49.93-1.46,1.46a16,16,0,0,0-2-.51l-2.92.51v10.8q0,1.17-3.94,1.9v29.48l.51,3.43L499,313H478.37q-4.16,0-13.21-.44l-.51-1V279.1q.15-.95.95-.95h2.48l.51-3.43a3.85,3.85,0,0,0-.51-2,44.86,44.86,0,0,1,1-6.86l.95.51H473q.73,0,1.46-1.46v-2.48q0-1-5.84-1.46l-1-2-.95.51h-10.8a23.58,23.58,0,0,1-4.38-.51,3.82,3.82,0,0,1-2,.51l-1-.51a3.82,3.82,0,0,1-2,.51c-.29,0-.44-.17-.44-.51l-1,.51H431.3l-2.92-.51a4.7,4.7,0,0,1-2.48.51h-4.38q-1,.15-1,.95V277.2a1,1,0,0,0,1,.95h2.92a3.84,3.84,0,0,0,2-.51q3.94.51,3.94,1.46v.51a.9.9,0,0,1-1,1H416.56l-2.41.44V312c0,.63-.34.95-1,.95H392q-4.16,0-13.21-.44l-.51-1v-6.35a.45.45,0,0,1,.51-.51l-.51-.95V281.58q.15-.95.95-.95h.51c1,0,1.46.14,1.46.44l2.48-.44H392l2.48-.51v-1q0-.95-1-.95H385.7c-.68,0-1-.32-1-.95V226.63l-2.92-2q0-2.92-.95-2.92h-5a.84.84,0,0,1-.95-.95v-.51c.1-.68.41-1,.95-1h4.45c.49,0,1-.48,1.46-1.46V190.87a3.61,3.61,0,0,1,.51-2,3.84,3.84,0,0,1-.51-2V181a1,1,0,0,1,1-.95h4.38Q389.12,180.07,389.12,179.56Zm69.18,81.88h4.38q1,.22,1,1v2.48q0,.95-1,.95-5.4,0-5.4-1.46h.51l-.51-1v-.95Q457.43,261.44,458.31,261.44Z"/><path class="cls-1" d="M534.84,179.49h82.1a4.06,4.06,0,0,0,3.94,0,3.6,3.6,0,0,1,1,2l-.51,1a7.21,7.21,0,0,0,2,3.94V205.1l-.51.95-2.48-.44H610.08l-3,.44a5.17,5.17,0,0,0-2.41-.44l-3.43.44a4.34,4.34,0,0,0-2-.44l-1,.44c-.34,0-.51-.15-.51-.44l-2.41.44h-5v17.22q0,1-3.94,1.53,0,1.9-.95,1.9H581c-.63.14-.95.49-.95,1s.41.95.95.95h5l.95.51-.51,2.48v4.45l3,2q0,.95-5.91,1.46v29q0,1.39-5,2V271H586q2.92,1.31,2.92,2v38.89a.84.84,0,0,1-.95.95h-19.7q-5,0-14.74-.51-.51-9-.51-13.28V272.46q-4.45-.95-4.45-2l-.95.51h-4.45v-.51a1,1,0,0,1,1-.95l2.41.51a3.5,3.5,0,0,1,1.53-.51V240q.15-.95.95-.95h4.45v-2q-2.48,0-2.48-.95v-6.42a.9.9,0,0,0-1-1h-4.38q-1,0-1-.95t1-1H550l2-2.41h2.48l.51-4.45c0-.63-.17-.95-.51-.95l.51-2.48v-7.88a2.91,2.91,0,0,0-2-2.92c-.34,0-.51.14-.51.44l-2.48-.44H521.56a.9.9,0,0,1-1-1V185.91q-2,0-2-.95v-.51a3.84,3.84,0,0,1,.51-2,3.85,3.85,0,0,1-.51-2,.45.45,0,0,0,.51-.51Q529.66,179.49,534.84,179.49Zm4.38,47.21h1c.63.14.95.49.95,1a.84.84,0,0,1-.95.95h-1a.84.84,0,0,1-.95-.95Q538.42,226.7,539.22,226.7ZM553,265.6v.95h.51v-.95Z"/><path class="cls-1" d="M678.44,179.12a3.45,3.45,0,0,0,1.9.51h1.46q10.51,0,13.94,2.41h2.84q1.46,0,12.48,4.74h4.82c.49,0,1,.49,1.46,1.46q-.51.51-3.87.51,8.68,7.66,8.68,8.61v.51q-.22.8-18.32,17.73h-6.71q-9.78-9.41-14.89-10.07h-.44q-9.63,0-9.63,3.87-2,0-2.41,6.71l.51,2.41h4.31q1.6,0,4.31,2.41,3.36.66,3.36,1.9l-.44.95.95.51h11.53v1.46h-9.63v.44q.15,1.31,10.07,4.82,19,5.62,30.28,15.4,0,.59,4.82,5.77-5.76.44-5.77,1.39,1.09,0,1.46,2.41h5.77q1.31,0,2.85,5.77l-.95.51h-4.82q-.95.15-.95.95h6.28q.66,0,1.39,1.46v.95a.84.84,0,0,1-.95.95H729.3v.51q0,2.48.51,8.17,0,8-5.77,18.76c-.63.1-.95.41-.95.95v.95h6.71c.63.1.95.41.95.95q-.59,0-6.2,6.28-12.55,9.56-34.15,9.56H690q-26.49,0-43.27-16.35-12.48-.8-12.48-5.25-4.6-4.16-4.82-7.66a122.67,122.67,0,0,1,11-6.71l2,.44q1.39-.36,13.94-8.17h5.77q.8,0,5.25,7.23v.95h-1.46v.95q8.17,7.22,16.35,7.23,12.48-2,12.48-12,0-1.53-2.41-6.71h4.82v-.44a4,4,0,0,0-3.8-2.41h-4.82a36.27,36.27,0,0,1-5.33-.51l-.95.51a3.47,3.47,0,0,0-1.46-.51v-.95h.51q1.31,0,9.63-.51v-.95l-13.5-4.31a13.12,13.12,0,0,1-3.36-.51,3.46,3.46,0,0,1-1.9.51,51,51,0,0,0-8.68-2.92v-.95h3.43v-.95q-14.89-5.54-20.21-14.89a22.34,22.34,0,0,1-4.3-11l.95-.51h1.9a.45.45,0,0,1,.51.51,5.42,5.42,0,0,1,2.85-.51v-.95h-6.2v-.95q2.41,0,2.41-.95l-3.36-2q-.73-1.9-1.46-1.9h-5.33v-3.87q0-15,13.94-26.42h1.46a.45.45,0,0,1,.51.51l.95-.51.95.51q2.92-.51,2.92-1.46l-1-.51h-2.85v-.44q6.2-3.57,6.2-4.31,0-1.39,11.53-2.41h7.22A3.82,3.82,0,0,0,678.44,179.12Zm-47.58,45.17h.95v.95h-.95Zm2.41,0h1.39v.95h-1.39Zm17.29,0v.95H651v-.95Zm1.39,0v.95h1.46a.84.84,0,0,0-.95-.95Zm3.87,46.56v1h.51v-1Zm14.45-8.61H675v1.46l-3.36-.51h-1.39Z"/><path class="cls-1" d="M58.38,358.68h7.74q6.79,0,16,3.36v1h-.51q-1.31,0-9.63.44V364a61.73,61.73,0,0,1,8.68.51l.95-.51q9.41,4.23,16,15.47Q101,386.2,101,399.84l.95.51h6.79q.95.15.95.95-.44,2.92-1.46,2.92H105.3v1.9h2.92v1.46H101v.95h6.28l.95.51q-2.63,9-17.44,28.61-12.26,15.47-13.5,15.47-16.49,0-16.49,2.41H54.51v.95H65.17c.63.14.95.49.95,1q-3.79,5.33-6.28,5.33a5.87,5.87,0,0,0-5.33,3.36v.51H91.8a3.92,3.92,0,0,1,1.9.44,4.36,4.36,0,0,1,2-.44h7.23c.68.1,1,.41,1,.95v23.28q0,.95-1,.95H6.57a3.84,3.84,0,0,1-2-.51,3.47,3.47,0,0,1-1.9.51H2.19q0-2.12,15.47-21.31l2.48-3.43v-.44H17.66l-.95-.51q0-3.57,8.25-4.38A28.16,28.16,0,0,1,27.88,457h-1q-2.48,0-8.17-.51a3.85,3.85,0,0,1-2,.51L16.2,456l1.46-.95c.34,0,.51.14.51.44a10.39,10.39,0,0,0,7.3-2.41h2.41c1,0,1.46.17,1.46.51l2.41-.51H38q3.06,0,13.06-14.52,9-10.51,22.26-29.55l-.95-.51H61.74v-.95h11.6c.68,0,1-.31,1-.95q-2.92-.66-2.92-1.46t4.38-1.46v-3.36a13.85,13.85,0,0,1-3.43-.51,23.58,23.58,0,0,1-4.38.51l-.44-1v-3.87q0-4.6-7.3-11.09v-.51q-12.92,0-15,13.57l.44,2.41-.95.51H21.09a56.21,56.21,0,0,1-6.79-.51,3.82,3.82,0,0,1-2,.51l-.44-1v-2.85q0-18.68,17.88-30.5c0-.34.49-.51,1.46-.51v-.95H23.5v-1q4.82-.44,7.3-.44h6.28Q50.5,358.68,58.38,358.68ZM15.76,462.3l.44.95q-.44,0-3.36,3.43a.45.45,0,0,0-.51-.51A8.53,8.53,0,0,1,15.76,462.3Zm33.86-54.73h1v.95h-1Zm5.84,0h.95v.95h-.95Z"/><path class="cls-1" d="M182,358.68q17.81,1.46,17.81,3.87a6.23,6.23,0,0,1-2.85.44q16.27,12,18.75,21.24,3.87,5.47,6.28,17.8.51,5.77,2.85,5.77,3.87,0,3.87,2.85V414c0,.68-.32,1-.95,1q-2,0-2-.51l-3.36.51h-4.82V416l3.36.44a4.33,4.33,0,0,0,2-.44q5.25.58,5.25,1.46a3.46,3.46,0,0,1,1.46-.51l.95.51a3.84,3.84,0,0,1,2-.51q.66,0,1.46,1.46v.44c0,.49-.49,1-1.46,1.46h-4.82v9.63q-2,23.94-5.33,27.95h-9.12v1.39q2.92,0,2.92,2,1.9,0,1.9,1.46-7.74,18.83-23.13,26-7.3,3.79-20.21,3.79h-.44q-28.24,0-39-15.83-4.75-4.3-8.68-15-1.46,0-4.82-2.41-2.92,0-2.92-.95l1-.44h3.36l3.36-.51v.51a3.48,3.48,0,0,1,1.46-.51q-4.38-16.12-4.38-24.08,2.92-.58,2.92-1.46V429q-.51-1.46-2.92-1.46v-6.71q.15-.95.95-.95h3.87c.34,0,.51.15.51.44a3.87,3.87,0,0,1,1.46-.44v-1.46c0-.63-.34-.95-1-.95H124.7l-1.39-1h-7.74a.84.84,0,0,1-.95-.95V415a5.59,5.59,0,0,0,2.92-.51l.95.51.95-.51a.45.45,0,0,1,.51.51q6.2,0,6.2-2.41a16.39,16.39,0,0,0,.51-4.38v-.44H122.8q-.95,0-.95-1a180.24,180.24,0,0,1,4.82-18.24l5.77-11.09q11.75-14.88,22.11-14.88A103.35,103.35,0,0,1,182,358.68Zm-26,49.11h3.36q.73,0,1.46,1.39-.37,5.84-1.9,5.84h-3.36a3.82,3.82,0,0,1-2-.51q-4.82.51-4.82,1.46c1.95,0,2.92.32,2.92.95q1.9-.36,1.9-.95,6.27.58,6.28,1.46l.95-.51h2.41q.73,0,1.9,1.9c0,.49-.46,1-1.39,1.46h-4.82c-.63.1-.95.41-.95.95v5.33q2.85,1.82,2.85,2.41v2.85q-2.41,1.46-2.41,2.41,0,13.87,4.82,22.62l-1.46,1h-7.66v.44q0,.95,4.82,1.46,0,1.68,4.31,1.9,4.38,5.77,9.63,5.77,6.35-1.39,9.12-5.77-2.55-2.41-3.36-2.41a.84.84,0,0,1-.95-.95l.95-.44h4.82a3.45,3.45,0,0,0,1.9-.51l1,.51q5,0,7.23-27v-8.61a15.76,15.76,0,0,1-.51-2l.95-.44h5.77v-1.46a.84.84,0,0,0-.95-.95H195a33.81,33.81,0,0,1-3.8-1H184.9a.84.84,0,0,1-.95-.95l.44-.95a3.84,3.84,0,0,1,2,.51,56.35,56.35,0,0,1,6.71-.51h1.46V413q0-5.25-2.41-5.26-4.38,0-4.38-6.79-4.09-12.62-10.58-15.84-4.09-1.46-4.31-1.46Q160.67,383.71,156,407.79Zm19.27,52,.51.95-1,.51h-.44v-.51Q174.46,459.75,175.27,459.75ZM181.54,415l.44.95-.95.44-.44-.95Zm.95-29.41v.51h.95v-.51Z"/><path class="cls-1" d="M242.61,358.9h53.27a1,1,0,0,1,.95,1v9.85l-.51,3.43q3.94.51,3.94,1.46v.51a5.63,5.63,0,0,0-1.46,3.43v45.9q.15,1,1,1h6.42q.66,0,1.46,1.46l-2,1.46h-9.41l-.95.51.51.95v1.53l-3.94,2.92c0,.34.15.51.44.51a3.83,3.83,0,0,1-.44,1.46q0,4.45,2.92,4.45c.68.1,1,.44,1,1s-.34.95-1,.95H284v.51q7.44.51,10.87.51l1,.51-.51,3.43v35l.51,3.43-2,1.46q0,.51.44.51-.44,4.45-1.46,4.45H267.71q-8.83,0-8.83-1.46v-3.5l1.46-2V444.28c-1.75-.34-2.75-.51-3-.51a3.46,3.46,0,0,0-1.46.51,24.92,24.92,0,0,0-4.45-.51H247.5v-1h11.82q1,0,1-.95v-1h-2.48a.84.84,0,0,1-.95-.95v-5.91l3.43-2q0-3.5.51-4a3.85,3.85,0,0,1,2,.51q5-.51,7.88-.51h.51a.84.84,0,0,0,.95-.95v-1l-2.48-.44h-5.91V385a.84.84,0,0,0-.95-.95H244.58a.9.9,0,0,1-1-1v-5.91a5.38,5.38,0,0,0,1-1.46v-2q-3,0-3-1V359.92Q241.73,358.9,242.61,358.9ZM253.92,426h2q1,.15,1,1c0,.63-.34.95-1,.95h-.95c-.68,0-1-.31-1-.95Z"/><path class="cls-1" d="M378.25,358.9q12.92,0,26.85,6.86,5.18.22,15.62,12.19,0,.95,4.89,1.46,6.86,11.75,6.86,16.13a5.83,5.83,0,0,1-3,.51l.51,5.84v2.92a.84.84,0,0,1-.95.95,3.85,3.85,0,0,0-1.46-.44l-1,.44a.39.39,0,0,1-.44-.44l-3.43.44H417.8v.51q.15,1,.95,1H432l2,3.36h3.87v1h-5.33l-3,.44a3.85,3.85,0,0,0-1.46-.44l-.95.44a3.85,3.85,0,0,0-1.46-.44q-2.92,14.45-17.07,32.18l-15.18,21.53v.51q2.92,0,2.92,1.46h3c.63.1.95.41.95.95v.51a.84.84,0,0,1-.95.95h-4.45q-2.33,1.6-12.19,16.13-4.89,6.86-5.4,6.86H340.6q-.95,0-.95-1,12.77-16.71,17.59-22h4.38q.73,0,1.46-1.46v-.95h-3.43q-3.87-1.39-3.87-2L366,452.16v-.44h-1.9q-7.22,0-23-7.88-18-16.13-18-25.83l-2.48-6.35h-2v-1h4.45a4.26,4.26,0,0,0,2.41,1.46q.44,0,3.94-.44v.44l.95-.44h3.43v-1h-4.38q-1,0-1-.95v-2.41H312.79v-1l.51-.95.95.44.95-.44a3.89,3.89,0,0,1,1.53.44,27.39,27.39,0,0,1,4.38-.44h1.46c.34,0,.51.14.51.44q2.19,0,2.92-9.27L327,396h9.78c.63,0,.95-.34.95-1q-1.46-.44-1.46-.95l-.95.51a23.73,23.73,0,0,0-4.38-.51h-.51v-.51a41.48,41.48,0,0,1,6.35-13.64v-1l-2.48.51v-.95q6.93-8.83,13.72-11.75l-.51-.95v-.51Q359.13,358.9,378.25,358.9ZM366,394.08h5.91q.66,0,1.46,1.46l-1,.51H361.18q-1,0-2,4.89v3.36q0,.88-4.38,1.46c-.34,0-.51-.15-.51-.44l-2.48.44h-5.33v1l4.89.51h9.78q2.41,3.36,2.92,3.36h1.46l2.41-.44.51.95-.95.51H356.29c-.68.1-1,.41-1,.95q5.25,9.71,7.81,10.29a14.84,14.84,0,0,0,10.8,4.38q10.22,0,16.05-13.64,0-1.53,1-1.53,9.34-.44,12.7-.44v-1h-3.94l-2-3.36H383.58v-1a1,1,0,0,1,1-.95h10.22l1-.51-1.46-8.32,2.92-.95A21.87,21.87,0,0,0,388,385.24a32.72,32.72,0,0,1-4.89-1.46h-3.43q-8.91,2.56-11.24,6.35Q366,392.76,366,394.08Zm13.72,11.68h.95v1h-.95Zm7.3,4.89h2v1h-2Z"/></g></g></svg>